<?xml version="1.0" standalone="no"?>
<!DOCTYPE svg PUBLIC "-//W3C//DTD SVG 1.1//EN" "http://www.w3.org/Graphics/SVG/1.1/DTD/svg11.dtd" >
<svg xmlns="http://www.w3.org/2000/svg" xmlns:xlink="http://www.w3.org/1999/xlink" version="1.1">
<metadata></metadata>
<defs>
<font id="ryknyqdessertscriptregular" horiz-adv-x="1323" >
<font-face units-per-em="2048" ascent="1638" descent="-410" />
<missing-glyph horiz-adv-x="382" />
<glyph horiz-adv-x="0" />
<glyph unicode="&#xd;" horiz-adv-x="681" />
<glyph unicode=" "  horiz-adv-x="382" />
<glyph unicode="&#x09;" horiz-adv-x="382" />
<glyph unicode="&#xa0;" horiz-adv-x="382" />
<glyph unicode="!" horiz-adv-x="524" d="M37 84q0 61 42 108.5t95 47.5q80 0 92 -88q0 -70 -36.5 -122.5t-100.5 -52.5q-41 0 -66.5 30t-25.5 77zM160 426q0 8 4 19.5t4 13.5l86 317q92 338 129 502q8 23 12 27q16 29 70.5 55t150.5 26q70 0 76 -43q0 -33 -108 -284l-78 -176q-41 -90 -100.5 -249t-77.5 -194 q-27 -47 -113 -47q-55 0 -55 33z" />
<glyph unicode="&#x22;" horiz-adv-x="772" d="M268 938q0 12 31 50t62.5 94.5t31.5 113.5q0 8 -1 35t-1 43q0 125 139 125q104 0 105 -90q0 -51 -28.5 -115t-61.5 -100q-147 -174 -252 -174q-25 0 -25 18zM637 938q0 12 31.5 50t62.5 94.5t31 113.5q0 8 -1 35t-1 43q0 125 139 125q104 0 105 -90q0 -51 -29 -115 t-62 -100q-147 -174 -251 -174q-25 0 -25 18z" />
<glyph unicode="#" horiz-adv-x="1517" d="M76 303q0 18 10 45t48 56.5t97 29.5h181q45 123 104 275q-82 -2 -274 -2q-41 0 -41 28q0 18 10 45t48 56.5t97 29.5h222q25 63 54.5 135t41.5 103q39 106 143 106q20 0 25 -2q18 -4 18 -28q0 -12 -6 -31q-4 -14 -109 -281q207 0 287 2q23 57 52.5 128t41.5 104 q41 106 148 106q6 0 12 -1t8 -1q20 -8 21 -32q0 -12 -6 -31q-4 -14 -15.5 -41t-38 -89.5t-57.5 -140.5q88 2 152.5 4.5t94.5 4.5t44 2q51 0 51 -33q0 -16 -10 -41t-49 -53.5t-97 -28.5q-27 0 -57.5 -1t-82.5 -3t-107 -4l-105 -281q106 2 179 5t106 5.5t47 2.5q51 0 51 -33 q0 -16 -10 -41t-49 -53.5t-96 -28.5q-6 0 -283 -10l-74 -207q-37 -105 -141 -105q-23 0 -35 4q-16 8 -16 25q0 4 4 25l94 254l-287 -5l-71 -194q-39 -106 -140 -107q-20 0 -39 7q-16 8 -16 22q0 8 6 25l90 245h-235q-41 0 -41 29zM580 434h18q193 0 268 2l105 277 q-53 0 -287 -4z" />
<glyph unicode="$" horiz-adv-x="1189" d="M80 264q0 121 79 216t247 95q49 0 49 -18q0 -20 -41 -59q-109 -100 -109 -248q0 -57 32 -109.5t93 -74.5q82 219 184 606q-84 76 -126 120t-85 117.5t-43 143.5q0 174 130.5 259t320.5 91q43 117 119 192q49 49 65 50q10 0 11 -15q0 -16 -29 -88q-43 -104 -55 -141 q285 -16 284 -127q0 -88 -71.5 -197.5t-130.5 -109.5q-20 0 -21 41q0 12 3 49t3 59q0 150 -100 182l-47 -172q-14 -55 -64 -249q10 -8 47 -41t50.5 -45.5t45 -43t46 -48t39 -48t36 -54.5t25.5 -54.5t19.5 -60t5.5 -62.5q0 -150 -90.5 -260.5t-218.5 -159.5t-271 -49h-14 l-2 -4q-53 -100 -98.5 -154.5t-67 -63t-47.5 -8.5q-14 0 -14.5 10.5t15 37t46 81t57.5 111.5q-139 27 -223 104.5t-84 198.5zM543 51q137 8 215 105.5t78 195.5q0 102 -134 236q-100 -385 -159 -537zM602 1130q0 -78 88 -169l45 178q18 76 47 170q-76 -6 -128 -51.5 t-52 -127.5z" />
<glyph unicode="%" horiz-adv-x="1634" d="M150 965q0 59 24.5 128.5t70.5 137t128 111.5t184 44q123 0 207 -77.5t84 -241.5q0 -66 -23.5 -135.5t-69.5 -134t-125 -105.5t-175 -41q-25 0 -52.5 3t-75.5 21.5t-85 49.5t-64.5 93.5t-27.5 146.5zM291 -84q0 14 10 29l926 1401q55 84 135 84q35 0 49 -11 q18 -14 18.5 -28.5t-12.5 -34.5l-921 -1391q-55 -84 -136 -84q-31 0 -55 13q-14 8 -14 22zM313 948q0 -90 34 -140t97 -50q102 0 168 95t66 230q0 191 -127 191q-86 0 -162 -95.5t-76 -230.5zM866 244q0 59 24.5 128.5t71 137.5t128 112t184.5 44q123 0 207 -78t84 -242 q0 -66 -23.5 -135.5t-70 -134t-125.5 -105.5t-175 -41q-25 0 -52 3.5t-75.5 21.5t-85 49t-64.5 93.5t-28 146.5zM1030 227q0 -90 34 -140t97 -50q102 0 168 95t66 230q0 191 -127 191q-86 0 -162 -95.5t-76 -230.5z" />
<glyph unicode="&#x26;" horiz-adv-x="1271" d="M59 305q0 262 367 432q-55 156 -55 271q0 205 120.5 300t296.5 95q135 0 225.5 -67.5t90.5 -186.5q0 -117 -111.5 -228.5t-316.5 -191.5q102 -264 289 -524q86 106 86 260q0 92 -15.5 190.5t-15.5 100.5v6l2 4q4 10 18 10q59 0 139.5 -79t80.5 -191q0 -106 -54.5 -216 t-161.5 -192q190 -244 383 -374q25 -18 25 -29q0 -14 -39 -14q-90 0 -252 77.5t-319 233.5q-123 -41 -277 -41q-242 0 -374 98t-132 256zM317 346q0 -127 89 -201.5t245 -74.5q61 0 115 12q-180 250 -303 555q-68 -51 -101.5 -110.5t-39 -93.5t-5.5 -87zM598 1071 q0 -104 43 -240q115 74 173 147t58 177q0 68 -27.5 112t-78.5 44q-66 0 -117 -69t-51 -171z" />
<glyph unicode="'" horiz-adv-x="403" d="M268 938q0 12 31 50t62.5 94.5t31.5 113.5q0 8 -1 35t-1 43q0 125 139 125q104 0 105 -90q0 -51 -28.5 -115t-61.5 -100q-147 -174 -252 -174q-25 0 -25 18z" />
<glyph unicode="(" horiz-adv-x="587" d="M215 473q0 225 77 433t189.5 342t230.5 214t206 80q29 0 30 -20q0 -14 -54 -66.5t-132 -144.5t-156 -218t-132 -328t-54 -433q0 -88 15.5 -190.5t31.5 -170t16 -69.5q0 -23 -22 -23q-18 0 -47 23.5t-64 74t-64.5 117t-50 167.5t-20.5 212z" />
<glyph unicode=")" horiz-adv-x="581" d="M-131 -100q0 14 54 66t132 144.5t156 218.5t132 327.5t54 433.5q0 88 -16 190t-31.5 170t-15.5 70q0 23 22 22q18 0 47 -23.5t64 -73.5t64.5 -116.5t50 -168t20.5 -212.5q0 -225 -76.5 -433t-189.5 -342t-230.5 -214t-205.5 -80q-29 0 -31 21z" />
<glyph unicode="*" horiz-adv-x="1001" d="M193 1204q0 41 26.5 78t63.5 53q8 4 24 4q8 0 15.5 -1t16.5 -5t15 -7t17.5 -10t17.5 -12.5t18.5 -14.5t17.5 -14t19.5 -17.5t20.5 -16.5q14 -10 71.5 -51t77.5 -57q-63 145 -63 270q0 92 43 129q35 29 82 29q68 0 112 -50q16 -20 17 -45q0 -27 -49 -159 q-8 -27 -27.5 -84.5t-28.5 -81.5q66 59 159 112.5t163 53.5q33 0 55 -15q61 -39 62 -116q0 -41 -21 -78q-20 -35 -94 -35q-14 0 -50 2t-59 2h-182q90 -53 172 -135t82 -152q0 -14 -2 -20q-12 -47 -53 -74t-88 -27q-10 0 -31 5q-16 2 -27.5 12t-21.5 31.5t-14.5 36t-14.5 51 t-14 51.5q-8 29 -28.5 90t-26.5 86q-10 -61 -38 -136t-78 -144.5t-106 -73.5h-12q-51 0 -89 41t-44 90v6q0 10 3 20.5t12.5 20.5t17.5 18t24.5 20.5t26.5 18.5t31.5 20.5t31.5 20.5q23 16 78.5 57t77.5 56q-37 -6 -88 -6q-264 0 -311 106q-10 27 -10 47z" />
<glyph unicode="+" horiz-adv-x="1017" d="M174 575q0 18 5 45t24.5 57t48.5 30q133 0 276 4l19 270q2 41 48 61.5t81 20.5q33 0 33 -27v-2l-19 -319q180 8 314 8q27 0 26 -33q0 -29 -18.5 -73t-59.5 -50q-166 0 -272 -6l-18 -299q-2 -31 -32 -49t-57.5 -22.5t-50.5 -4.5q-29 0 -28 21v2l24 346q-164 -8 -323 -8 q-20 0 -21 28z" />
<glyph unicode="," horiz-adv-x="475" d="M-45 -217q0 12 30.5 50t62.5 94.5t32 113.5q0 8 -1 35t-1 43q0 125 139 125q104 0 105 -90q0 -51 -29 -115t-62 -100q-147 -174 -251 -175q-25 0 -25 19z" />
<glyph unicode="." horiz-adv-x="440" d="M35 80v16q0 59 41 101.5t96 42.5q41 0 71.5 -27t35.5 -70v-16q0 -57 -41 -98t-97 -41q-43 0 -72.5 25.5t-33.5 66.5z" />
<glyph unicode="/" horiz-adv-x="921" d="M-63 -88.5q0 14.5 10 29.5l925 1400q56 84 136 84q33 0 49 -10q18 -14 18 -28.5t-12 -34.5l-922 -1391q-55 -84 -135 -84q-31 0 -55 12q-14 8 -14 22.5z" />
<glyph unicode="0" horiz-adv-x="1134" d="M143 369q0 88 16.5 192.5t50.5 222t91 227t131 197.5t180.5 141.5t227.5 53.5q133 0 222 -97.5t89 -312.5v-6q0 -88 -17.5 -195.5t-52 -225t-92 -226.5t-129.5 -197t-173 -140t-216 -52q-31 0 -57.5 3t-80.5 25.5t-91 62.5t-68 125t-31 202zM381 246q0 -109 29.5 -159 t70.5 -50q104 0 208 206t162 452.5t58 404.5q0 211 -88 211t-174 -128t-141 -305.5t-90 -351.5t-35 -276v-4z" />
<glyph unicode="1" horiz-adv-x="774" d="M193 1024q0 16 88 70.5t176 128t88 137.5q0 23 43 36t98 13q119 0 119 -49q0 -53 -26.5 -156.5t-133.5 -464.5q-162 -555 -162 -678q0 -16 2 -37.5t2 -31.5q1 -45 -194 -45q-39 0 -67.5 16.5t-28.5 38.5q0 33 31.5 141.5t93 300t94.5 301.5q59 205 59 267q0 39 -20 39h-2 q-31 -4 -113 -33t-111 -29q-37 0 -36 35z" />
<glyph unicode="2" horiz-adv-x="1013" d="M-23 41q0 90 46.5 150.5t121.5 60.5q311 260 458 469t147 420q0 74 -27 125t-80 51q-16 0 -32.5 -4t-44 -23.5t-50 -53.5t-44 -100.5t-30.5 -156.5l-4 -16q-2 -14 -28 -15q-53 0 -101.5 52.5t-56.5 113.5q0 4 -1 11.5t-1 11.5q0 115 119.5 190.5t253.5 75.5 q117 0 200.5 -35t123.5 -92t56.5 -108.5t16.5 -104.5q0 -373 -750 -834q10 -4 57.5 -22.5t74 -26.5t82 -17t116.5 -9q131 0 279 100q12 10 26 10q25 0 25 -33q0 -129 -78 -221t-242 -92q-135 0 -307 52.5t-203 52.5q-35 0 -57 -25q-12 -16 -29 -16q-14 0 -25.5 17t-11.5 42z " />
<glyph unicode="3" horiz-adv-x="909" d="M-31 -141q0 29 82 53q301 92 450.5 228t149.5 306q0 53 -19.5 91t-46 56.5t-67.5 29t-68.5 12.5t-64.5 2h-16q-18 0 -28.5 12.5t-10.5 26.5q0 20 57 57q170 106 252 202.5t82 201.5q0 180 -115 180q-16 0 -32.5 -4t-44 -23.5t-50 -53.5t-44 -100.5t-29.5 -156.5 q-2 -31 -33 -31q-53 0 -101.5 52.5t-56.5 113.5q0 4 -1 10t-1 11q0 115 126 191.5t263 76.5q172 0 264 -76t92 -178q0 -197 -346 -387h17q29 0 69.5 -12.5t91 -40t84 -89t33.5 -145.5q0 -129 -52 -233.5t-137 -173t-202 -118.5t-235.5 -75t-249.5 -35h-15q-47 0 -47 19z" />
<glyph unicode="4" horiz-adv-x="1179" d="M53 327.5q0 51.5 56 90.5q61 45 139 131t166 209t150.5 282.5t72.5 311.5q2 39 92 69.5t166 30.5q53 0 53 -18q0 -178 -194.5 -483.5t-477.5 -536.5q186 39 410 39h2q6 25 45 231q12 55 45 67.5t180 24.5h17q43 0 43 -35q0 -20 -12.5 -57t-40 -108.5t-45.5 -129.5 q82 -4 112.5 -4t82.5 8.5t63 8.5q16 0 16 -23q0 -12 -26.5 -51t-79 -79t-105.5 -40q-59 0 -115 6q-51 -188 -51 -272q0 -16 2 -38t2 -32q0 -45 -194 -45q-39 0 -68 16.5t-29 39.5q0 31 12.5 72.5t45.5 132t53 151.5q-119 14 -217 14q-135 0 -272 -24q-51 -10 -60 -11 q-39 0 -39 51.5z" />
<glyph unicode="5" horiz-adv-x="948" d="M-35 -141q0 29 82 53q565 174 565 534q0 96 -40 150.5t-93 69t-135 14.5q-55 0 -82 -2h-4q-35 0 -35 33q0 80 69.5 312t69.5 314q0 70 123 70q45 0 187.5 -14.5t226.5 -14.5q135 0 215 43q20 10 29 11q16 0 16 -21q0 -35 -11 -92t-57.5 -126t-117.5 -69q-23 0 -246 39 t-250 39q-14 0 -22.5 -4t-10.5 -7t-5 -18.5t-5 -23.5q-16 -66 -38.5 -147.5t-33 -126t-10.5 -64.5q0 -10 13 -10q4 0 63 11t115 11q133 0 229 -86t96 -262q0 -129 -49 -233.5t-129 -174t-191.5 -118.5t-227 -74t-244.5 -35h-15q-47 0 -47 19z" />
<glyph unicode="6" horiz-adv-x="1124" d="M158 381q0 397 301 715.5t737 406.5q25 4 33 4q27 0 26 -12q0 -27 -79 -63q-193 -88 -345.5 -223.5t-242.5 -282t-136 -290.5t-46 -274q0 -139 41.5 -234t125.5 -95q94 0 158 108.5t64 237.5q0 250 -160 428q-14 14 -14 29q0 31 51 30q147 0 259.5 -119.5t112.5 -312 t-129 -343t-356 -150.5q-184 0 -292.5 115.5t-108.5 324.5z" />
<glyph unicode="7" horiz-adv-x="876" d="M197 227q0 109 50 225.5t153.5 245.5t220 247t286.5 274q-479 -90 -614 -95h-4q-90 0 -90 95q0 41 17 93t37.5 86t31.5 34q14 0 35.5 -27t56.5 -27q184 0 470 33t296 33q43 0 43 -41q0 -20 -15 -39q-31 -37 -116.5 -138.5t-125.5 -149.5t-116 -144t-116 -154.5 t-93 -145.5t-79.5 -153.5t-47 -142.5t-20.5 -143q0 -74 24 -228v-6q0 -27 -39 -27q-115 0 -180 87t-65 208z" />
<glyph unicode="8" horiz-adv-x="1105" d="M102 250q0 125 83 244.5t255 183.5q31 10 47 10q25 0 25 -18q0 -23 -35 -60q-137 -145 -137 -321q0 -102 51 -170t133 -68q113 0 177.5 84t64.5 174q0 98 -63.5 206t-138.5 186.5t-138.5 181t-63.5 192.5q0 162 126 245t294 83q170 0 269.5 -64.5t99.5 -181.5 q0 -111 -87 -190.5t-185 -108.5q-23 -6 -35 -6q-27 0 -27 20q0 18 23 48q84 115 84 237q0 68 -38 111t-120 43q-68 0 -115 -50.5t-47 -127.5q0 -74 64.5 -170.5t142.5 -178.5t142.5 -189.5t64.5 -199.5q0 -141 -86 -246.5t-205 -151.5t-244 -46q-178 0 -279.5 84t-101.5 215 z" />
<glyph unicode="9" horiz-adv-x="1058" d="M4 -147q0 23 82 59q186 82 339 228.5t240 304t133 302t46 248.5q0 63 -4 107.5t-18.5 97.5t-49.5 82t-88 29q-94 0 -157.5 -108.5t-63.5 -237.5q0 -248 155 -420q14 -14 15 -29q0 -31 -51 -31q-147 0 -258 116t-111 308.5t129 343t356 150.5q180 0 283.5 -112.5 t103.5 -338.5q0 -260 -135 -501.5t-370.5 -406.5t-513.5 -204q-10 -2 -29 -2q-33 0 -33 15z" />
<glyph unicode=":" horiz-adv-x="509" d="M55 80v16q0 59 41.5 101.5t96.5 42.5q41 0 71.5 -27t34.5 -70v-16q0 -57 -41 -98t-96 -41q-43 0 -73 25.5t-34 66.5zM240 760v16q0 59 41 101.5t96 42.5q41 0 71.5 -27t34.5 -70v-16q0 -57 -41 -98t-96 -41q-43 0 -72.5 25.5t-33.5 66.5z" />
<glyph unicode=";" horiz-adv-x="565" d="M-25 -217q0 12 31 50t62.5 94.5t31.5 113.5q0 8 -1 35t-1 43q0 125 140 125q104 0 104 -90q0 -51 -28.5 -115t-61.5 -100q-147 -174 -252 -175q-25 0 -25 19zM260 760v16q0 59 41 101.5t96 42.5q41 0 72 -27t35 -70v-16q0 -57 -41 -98t-96 -41q-43 0 -73 25.5t-34 66.5z " />
<glyph unicode="&#x3c;" horiz-adv-x="778" d="M106 594q0 6 85 77.5t206 186.5t187 207q29 35 131 35q63 0 63 -35q0 -18 -14 -39q-66 -82 -183.5 -190.5t-200.5 -177t-83 -72.5q0 -2 22.5 -25.5t59.5 -66.5t79 -96.5t89 -126t82 -144.5q2 -2 2 -8q0 -16 -18.5 -27.5t-45.5 -11.5h-30q-74 0 -86 22q-55 117 -142.5 232 t-145 179.5t-57.5 80.5z" />
<glyph unicode="=" horiz-adv-x="1202" d="M201 385q0 18 5 45t23.5 56.5t46.5 29.5h3q61 -2 176 -2q129 0 254 5t198.5 9t77.5 4q27 0 27 -32q0 -29 -18.5 -73t-59.5 -50q-66 -2 -245 -11.5t-402 -9.5h-66q-20 0 -20 29zM287 754q0 18 5 44.5t23.5 56.5t46.5 30h3q61 -2 176 -2q129 0 254 5t198.5 9t77.5 4 q27 0 27 -33q0 -29 -18.5 -72.5t-59.5 -50.5q-66 -2 -245 -11t-402 -9h-66q-20 0 -20 29z" />
<glyph unicode="&#x3e;" horiz-adv-x="827" d="M106 111q0 18 15 39q66 82 183.5 190.5t200.5 177t83 72.5q0 2 -22.5 25.5t-59.5 66.5t-79 96t-89 126t-82 145q-2 2 -2 8q0 16 18.5 27.5t44.5 11.5h31q74 0 86 -23q55 -117 143.5 -227.5t146.5 -171t58 -70.5q0 -14 -85 -91t-206.5 -193.5t-189.5 -208.5 q-29 -35 -131 -35q-63 0 -64 35z" />
<glyph unicode="?" horiz-adv-x="874" d="M109 84q0 61 42 108.5t95 47.5q82 0 92 -88q0 -70 -37 -122.5t-100 -52.5q-41 0 -66.5 30t-25.5 77zM121 1161q0 115 119.5 190.5t253.5 75.5q109 0 191.5 -26.5t127.5 -63.5t73.5 -86t38 -87t9.5 -72q0 -104 -57.5 -194.5t-138.5 -154t-161.5 -119t-138 -114.5 t-57.5 -117q0 -68 -119 -67q-76 0 -80 36v11q0 119 207 289q274 223 275 462q0 217 -150 217q-16 0 -32.5 -4t-44 -23.5t-50 -53t-44 -100t-30.5 -156.5l-4 -17q-2 -14 -28 -14q-53 0 -101.5 52t-56.5 114q0 4 -1 11t-1 11z" />
<glyph unicode="A" horiz-adv-x="1193" d="M-33 125q0 59 29 59q8 0 20.5 -1t18.5 -1q115 0 190.5 49.5t110.5 104.5q76 117 76 135q0 10 -17 10h-231q-18 0 -19 17q0 14 10.5 29.5t49.5 31.5t98 16l152 3q16 0 28 26q102 211 179 431t77 296q0 4 -1 8t-1 7q-2 8 -2 20q0 55 63.5 72.5t205.5 17.5q84 0 116.5 -18.5 t36.5 -63.5v-12q0 -16 -5 -46t-18.5 -115t-25.5 -204q-2 -14 -17.5 -144t-32 -322.5t-16.5 -303.5q0 -47 2 -65q4 -57 28 -91t24 -42q0 -37 -66.5 -56.5t-122.5 -19.5q-139 0 -145 88q-2 16 -2 57t5 94.5t13 131t13 127.5v6q0 25 -19 24h-194q-18 0 -25 -18 q-115 -252 -226.5 -384t-252.5 -132q-47 0 -77 59.5t-30 118.5zM608 588q0 -8 15 -8h172q14 4 16 12l16 100q58 344 58 494q0 14 -12.5 14t-20.5 -18q-51 -117 -133 -320t-109 -268z" />
<glyph unicode="B" horiz-adv-x="1423" d="M221 1124q0 131 186.5 243t466.5 112q246 0 391.5 -73t145.5 -230q0 -78 -44 -143.5t-98.5 -100.5t-98.5 -61.5t-44 -32.5q2 -8 35 -36t72 -61.5t74.5 -91t40.5 -117.5q0 -4 1 -14t1 -16q0 -94 -44 -184.5t-138.5 -173.5t-268.5 -134t-405 -51q-207 0 -207 64 q0 10 28.5 84.5t82 219t98.5 277.5q122 370 122 562q0 34 -2 46q0 27 56.5 45.5t154.5 18.5q49 0 68.5 -8t22.5 -35q0 -41 -60.5 -255t-114.5 -370l-53 -157q-20 -61 -54 -154.5t-53.5 -148t-19.5 -66.5q0 -27 41 -27q184 0 339 109.5t155 298.5q0 27 -2 41 q-6 61 -54.5 120.5t-92.5 100.5t-44 57q0 18 42 51t92.5 67t92.5 94.5t42 127.5q0 90 -83 176t-255 86q-43 0 -76 -4t-89.5 -27.5t-98.5 -67.5t-88 -131t-74 -208q-4 -10 -17 -10q-37 0 -104.5 70.5t-67.5 117.5z" />
<glyph unicode="C" horiz-adv-x="1212" d="M154 401q0 63 13 145.5t46 186t80 204.5t124 198.5t170 172t224 120t281 45.5q119 0 155.5 -23t36.5 -92q0 -94 -75.5 -220t-137.5 -126q-20 0 -20 43q0 18 5 69.5t5 79.5q0 141 -105 142q-131 0 -252.5 -142.5t-193.5 -362.5t-72 -446q0 -321 177 -321h1q221 0 324 446 q2 14 35 15q55 0 116.5 -36t61.5 -87.5t-50 -128t-129 -151.5t-198 -128t-237 -53h-2q-383 0 -383 450z" />
<glyph unicode="D" horiz-adv-x="1626" d="M186 842q0 291 223.5 469t563.5 178q74 0 149.5 -9.5t176 -45t175 -94t128 -168t53.5 -254.5q0 -260 -142.5 -482.5t-372 -348.5t-481.5 -126q-227 0 -227 64q0 10 28.5 87.5t84 227t98.5 281.5q129 397 129 557q0 6 -1 17t-1 15q0 10 24.5 20.5t78 17.5t122.5 7 q41 0 57.5 -6t18.5 -28q0 -55 -180 -596l-53 -158q-20 -63 -55 -160.5t-54.5 -155t-19.5 -63.5q0 -29 67 -29q94 0 204 72t203 185.5t155.5 271t62.5 315.5q0 229 -119 363.5t-369 134.5q-213 0 -350 -128t-137 -323q0 -106 18.5 -196t18.5 -95q0 -27 -33 -26 q-55 0 -149.5 63.5t-94.5 145.5z" />
<glyph unicode="E" horiz-adv-x="1222" d="M72 293q0 80 29.5 163t88 164.5t165 142t241.5 79.5q16 4 16 12q0 10 -12 18q-205 156 -205 304q0 152 149.5 233.5t352.5 81.5q184 0 291.5 -34t107.5 -101q0 -94 -75.5 -209t-137.5 -115q-20 0 -20 43q0 12 3 52t3 63q0 205 -188 205q-84 0 -162 -50.5t-78 -164.5 q0 -152 227 -330q37 -33 37 -50q0 -26 -65 -46q-55 -16 -103.5 -35t-126.5 -62t-132 -94t-95 -133t-41 -176q0 -102 55.5 -165.5t153.5 -63.5q45 0 88 16t96 60t102.5 143.5t82.5 244.5q2 14 34 15q55 0 117 -36t62 -87t-50.5 -128t-129.5 -151.5t-197.5 -128t-237.5 -53.5 q-195 0 -320.5 89t-125.5 284z" />
<glyph unicode="F" horiz-adv-x="1236" d="M127 -217q0 12 29.5 47t80 99.5t105.5 156.5t117.5 251t105.5 349l23 92q-123 -4 -207 -14h-12q-23 0 -23 12q0 20 41 48t88 36q88 12 143 17q117 330 324 440q-27 4 -115 29.5t-147 25.5q-70 0 -119 -42t-49 -113q0 -39 2 -81t2 -49q0 -23 -6 -29.5t-27 -6.5 q-74 0 -137 73.5t-63 175.5q0 68 104.5 117t294.5 49q154 0 312.5 -13t258.5 -13q147 0 228 45q20 10 30 10q16 0 17 -22q-14 -242 -150 -242q-25 0 -39 4q-125 29 -194 29q-111 0 -161 -76t-112 -299q129 4 355 4q14 0 14 -16q0 -20 -20.5 -42t-79 -42.5t-140.5 -20.5h-28 q-74 4 -131 4l-54 -190q-20 -74 -33.5 -115t-41 -125t-54 -137t-66.5 -128t-85 -122t-101.5 -93t-125 -67.5t-144.5 -21.5q-10 0 -10 6z" />
<glyph unicode="G" horiz-adv-x="1304" d="M154 401q0 63 13 145.5t46 186t80 204.5t124 198.5t170 172t224 120t281 45.5q119 0 155.5 -23t36.5 -92q0 -94 -75.5 -220t-137.5 -126q-20 0 -20 43q0 18 5 69.5t5 79.5q0 141 -105 142q-131 0 -252.5 -142.5t-193.5 -362.5t-72 -446q0 -321 177 -321h1q188 0 338 487 q14 45 14.5 63.5t-20.5 18.5q-4 0 -16 -1t-21 -1q-20 0 -80.5 -5t-89.5 -5q-65 0 -65 21q0 32 101.5 81t258 88t287.5 39q35 0 35 -67q0 -55 -25.5 -107.5t-64.5 -52.5h-4q-12 0 -31 3t-27 3q-27 0 -39 -27.5t-51 -150.5q-147 -487 -147 -678v-39q0 -10 -2 -12q-4 -4 -15 -4 q-16 0 -38.5 11t-46 36.5t-40 76t-16.5 117.5q0 41 6 90q-114 -108 -275 -108h-3q-385 0 -385 450z" />
<glyph unicode="H" horiz-adv-x="1257" d="M76 723q0 16 5 35.5t35.5 46t84.5 26.5q29 0 86 -2t84 -2q16 0 24 25q113 375 113 491q0 6 -1 18.5t-1 16.5q0 10 24.5 20.5t78 17.5t122.5 7q76 0 76 -34q0 -20 -28.5 -111.5t-71.5 -220.5t-64 -211q-4 -16 -4 -21q0 -6 123 -6q135 0 167 4t38 23q108 366 108 491 q0 31 -2 43q0 10 24.5 20.5t78 17.5t122.5 7q41 0 58.5 -6t17.5 -28q0 -27 -37 -150t-97 -305t-75 -229q-119 -387 -135 -500q-8 -55 -8 -101q0 -29 4 -61l4 -31q0 -49 -123 -49q-157 0 -157 83q0 75 24.5 177.5t77.5 269.5t55 173q6 18 6 28v4q0 14 -21 17.5t-136 3.5 q-150 0 -152 -6q-166 -463 -166 -629q0 -16 2 -37.5t2 -30.5q0 -55 -200 -55q-43 0 -74 16.5t-31 40.5q0 33 24.5 118t85 269.5t89.5 276.5q8 20 8 29q0 12 -10 12q-76 0 -128 -5t-76 -9t-34 -4q-20 0 -20 16z" />
<glyph unicode="I" horiz-adv-x="798" d="M213 1069v4q6 115 151.5 243t340.5 128q94 0 144 -45t50 -155.5t-121 -440.5q-223 -598 -223 -717q0 -18 2 -40.5t2 -33.5q0 -47 -207 -47q-39 0 -68.5 16.5t-29.5 39t17.5 80t49 145.5t63.5 171t78 200.5t73 191.5q120 321 120 422q0 100 -34 100q-119 0 -222 -418 q-4 -10 -16 -10q-41 0 -105.5 54.5t-64.5 111.5z" />
<glyph unicode="J" horiz-adv-x="1079" d="M-158 -74q0 86 107.5 151.5t204.5 65.5q51 0 51 -20q0 -14 -58.5 -120.5t-60.5 -168.5v-8q0 -162 166 -162q143 0 229 141q68 113 181 496q6 23 28 98q207 709 207 830q0 98 -35 98q-117 0 -219 -418q-2 -10 -18 -10q-37 0 -103.5 56.5t-66.5 109.5q0 111 150.5 243 t340.5 132q98 0 146.5 -45t48.5 -156q0 -66 -27 -189.5t-60.5 -243.5t-115.5 -409q-131 -459 -303 -648t-412 -189q-168 0 -274.5 102t-106.5 264z" />
<glyph unicode="K" horiz-adv-x="1271" d="M72 23v4q0 23 23.5 90t61.5 171.5t60 180.5l90 289q139 444 139 553q0 16 -4 38.5t-4 30.5q0 10 24.5 20.5t78 17.5t125.5 7q88 0 88 -34q0 -49 -76 -305.5t-131 -397.5q-2 -4 -2 -8q0 -6 4 -6q8 0 12 10q86 131 142.5 214t150.5 204t168 191.5t162 123.5t166 53 q25 0 52.5 -15t27.5 -44q0 -98 -51.5 -207.5t-106.5 -109.5q-14 0 -27.5 20.5t-24 44t-34 44t-58.5 20.5q-86 0 -239 -242q-16 -29 -17 -76q0 -8 17 -131q33 -221 80 -384t90 -240.5t82 -123.5t62.5 -67.5t23.5 -40.5v-2q-5 -29 -62 -29q-401 0 -497 770q-4 12 -6 13 q-12 0 -91 -119t-116 -195q-80 -168 -80 -303q0 -4 1 -12t1 -12q0 -59 -150 -60q-147 0 -155 54z" />
<glyph unicode="L" horiz-adv-x="1230" d="M94 29q0 39 41 74.5t107 56.5q76 66 170 229.5t178 421.5q106 326 106 424t-34 98q-119 0 -222 -418q-4 -10 -16 -10q-41 0 -105.5 54.5t-64.5 111.5v4q6 115 157.5 243t346.5 128q92 0 137 -44t45 -157q0 -115 -94 -440q-115 -401 -447 -664q25 -2 74 -2q211 0 362.5 39 t211 84t104.5 84t70 39q26 0 26 -55q0 -115 -75.5 -246t-192.5 -131q-82 0 -260 20.5t-287 20.5q-106 0 -213 -14q-66 -8 -78 -9q-25 0 -36 12.5t-11 45.5z" />
<glyph unicode="M" horiz-adv-x="1665" d="M-66 143q0 45 25 45q8 0 23.5 -1t21.5 -1q215 2 297 162q86 174 169 448.5t105 417.5q6 49 7 78q0 10 -5.5 42t-5.5 55q0 10 26 22t74 20.5t105 8.5q139 0 148 -39q6 -33 6 -227q0 -82 -9.5 -304.5t-13.5 -355.5q0 -37 8 -37q12 0 21 12l276 465q186 317 187 404v8 q-2 4 -2 14q0 66 194 66h78q86 0 86 -60q0 -43 -124 -539.5t-124 -653.5q0 -49 8.5 -100.5t8.5 -53.5q0 -70 -195 -70q-137 0 -141 54v16q0 111 162 713q88 324 88 333q0 14 -11 15q-12 0 -22 -17q-27 -41 -107.5 -180t-182 -312t-146.5 -249q-133 -223 -183.5 -292.5 t-76.5 -69.5q-31 0 -35 90q-2 29 -2 112q0 141 15 469t15 381v33q-4 18 -20 18q-6 0 -16 -14q-190 -612 -254 -770q-113 -274 -240 -332q-43 -18 -92 -18q-74 0 -110 63.5t-36 130.5z" />
<glyph unicode="N" horiz-adv-x="1361" d="M-66 143q0 45 25 45q8 0 23.5 -1t21.5 -1q215 2 297 162q137 272 227 871q6 49 7 77q0 10 -5.5 42t-5.5 55q0 10 18.5 21t60.5 18.5t99 7.5q111 0 123 -41q135 -451 240 -1049q4 -23 18 -22q6 0 13 12q106 334 159.5 520.5t61.5 231.5t8 88q0 61 -43 121.5t-43 72.5 q0 27 41 51.5t117 24.5q155 0 155 -101q0 -46 -60 -199t-163.5 -439.5t-181.5 -579.5q-4 -14 -11.5 -57t-16.5 -67.5t-23 -31.5q-61 -20 -140 -20q-84 0 -90 39q-106 639 -217 1087q-2 20 -16 21q-10 0 -17 -25q-135 -618 -248.5 -873t-285.5 -255q-76 0 -112 63.5 t-36 130.5z" />
<glyph unicode="O" d="M154 375q0 113 25.5 249t87 287.5t149.5 273.5t228 202.5t308 80.5q170 0 280.5 -103t110.5 -335q0 -115 -26.5 -253t-89 -288.5t-150.5 -272.5t-223 -202t-293 -80q-37 0 -69.5 3.5t-100 27t-115 65.5t-85 132t-37.5 213zM403 246q0 -115 50.5 -168t119.5 -53 q98 0 196.5 131t166.5 314t111 370.5t43 308.5q0 223 -158 223q-109 0 -211.5 -137t-169 -325.5t-107.5 -371.5t-41 -292z" />
<glyph unicode="P" horiz-adv-x="1388" d="M229 1120q0 131 189.5 243t474.5 112q276 0 425.5 -96.5t149.5 -291.5q0 -215 -155.5 -366.5t-452.5 -151.5q-29 0 -90 4h-12q-29 0 -43.5 -16t-30.5 -63q-84 -244 -84 -463v-19q0 -47 -207 -47q-39 0 -68.5 16.5t-29.5 38.5q0 72 182 584q137 389 137 572q0 8 -1 20 t-1 16q0 10 25 20.5t78 17.5t123 7q41 0 57 -6t18 -28q0 -18 -24.5 -97t-67.5 -210.5t-61 -194.5q-2 -4 -2 -12q0 -31 30 -37q45 -4 66 -4q178 0 275.5 117.5t97.5 283.5q0 53 -14.5 102.5t-49.5 99.5t-105.5 79.5t-168.5 29.5q-59 0 -99 -4t-101.5 -27.5t-105.5 -67.5 t-90.5 -130t-74.5 -209q-4 -10 -17 -10q-37 0 -104.5 70.5t-67.5 117.5z" />
<glyph unicode="Q" horiz-adv-x="1243" d="M154 31q0 53 33.5 123.5t88.5 70.5q131 0 291 -71q123 31 231.5 219t165 403t56.5 373q0 223 -158 223q-115 0 -218 -170t-159.5 -395t-56.5 -414v-18q0 -53 -22 -53q-88 0 -155 86t-67 213q0 78 24.5 182t82 222t135.5 216t197.5 162.5t259.5 64.5q170 0 280.5 -103 t110.5 -335q0 -125 -34 -265t-97.5 -278.5t-176 -249t-253.5 -153.5q49 -27 136 -77t135 -76.5t104.5 -49t91.5 -22.5q31 0 82 6t61 6q16 0 16 -23q0 -33 -70.5 -134t-146.5 -101q-94 0 -257 91t-329.5 182t-269.5 91q-16 0 -39.5 -1t-29.5 -1q-25 0 -34 10.5t-9 45.5z" />
<glyph unicode="R" horiz-adv-x="1347" d="M229 1122q0 131 181.5 243t451.5 112q250 0 399.5 -79t149.5 -243q0 -47 -10 -89t-39 -82t-48.5 -65.5t-69.5 -62.5t-67.5 -49t-80 -51t-72.5 -45q-6 -2 -6 -23q0 -94 111.5 -409.5t230.5 -528.5q10 -20 10 -29q0 -14 -16 -14q-63 0 -206.5 134t-223.5 300 q-137 289 -138 490q0 23 60.5 76t133.5 110t133.5 143t60.5 168q0 98 -81 176t-245 78q-49 0 -89 -5t-99.5 -29.5t-103.5 -68.5t-83 -130t-55 -205q0 -10 -17 -10q-37 0 -104.5 70.5t-67.5 117.5zM291 20q0 72 182 584q137 389 137 572q0 8 -1 20t-1 16q0 10 24.5 20.5 t78 17.5t123.5 7q41 0 57 -5.5t18 -28.5q0 -25 -204 -656q-109 -338 -109 -536v-19q0 -47 -207 -47q-39 0 -68.5 16.5t-29.5 38.5z" />
<glyph unicode="S" horiz-adv-x="1189" d="M51 250q0 55 18.5 110.5t55.5 105.5t106.5 81t161.5 31q51 0 51 -20.5t-43 -61.5q-114 -105 -114 -260q0 -85 58 -148t169 -63q156 0 244 104t88 213q0 70 -51.5 148.5t-125 151.5t-147 148.5t-125 162.5t-51.5 169q0 131 76 217t183.5 119t242.5 33q176 0 281.5 -34 t105.5 -101q0 -94 -76 -209t-137 -115q-20 0 -21 43q0 12 3.5 52t3.5 63q0 205 -189 205q-88 0 -153.5 -48.5t-65.5 -142.5q0 -63 53.5 -136t129 -144.5t150.5 -147.5t128 -171t53 -191q0 -158 -94 -273.5t-229.5 -168t-284.5 -52.5q-197 0 -326 87t-129 243z" />
<glyph unicode="T" horiz-adv-x="1216" d="M258 1280q0 66 33 84q211 115 569 115q121 0 277.5 -20.5t220.5 -20.5q156 0 227 30q25 10 31 11q16 0 16 -23q0 -8 -12 -32.5t-41 -60.5t-66.5 -69.5t-99 -57.5t-129.5 -24q-59 0 -248.5 81t-257 81t-140.5 -41t-124 -89t-104.5 -89t-85.5 -41q-23 0 -44.5 55.5 t-21.5 110.5zM459 111q0 133 110 493q137 444 138 535q0 4 -1 16t-1 16q0 10 20 20.5t69 18t119 7.5q41 0 57.5 -6.5t18.5 -28.5q0 -14 -102 -328q-154 -469 -154 -668q0 -59 36 -94t36 -47q0 -18 -79 -41.5t-132 -23.5q-135 0 -135 131z" />
<glyph unicode="U" horiz-adv-x="1482" d="M213 1069v4q6 115 151.5 243t340.5 128q94 0 144 -45t50 -156q0 -154 -102 -440q-23 -66 -78 -205t-81 -218t-26 -130v-8q4 -72 45 -72q59 0 165 122t206 298t146 323q102 332 102 437q0 6 -1 15t-1 13q0 10 24.5 20.5t78 17.5t122.5 7q41 0 57.5 -6t18.5 -28v-5 q0 -39 -53.5 -221t-106.5 -329q-153 -437 -153 -665q0 -62 35.5 -97t35.5 -47q0 -18 -78.5 -42t-132.5 -24q-135 0 -135 131q0 74 88 391v6q0 10 -6 11q-4 -1 -10 -11q-298 -534 -534 -534h-1q-180 0 -180 240q0 145 197 616q114 283 114 422q0 100 -34 100 q-119 0 -222 -418q-4 -10 -16 -10q-41 0 -105.5 54.5t-64.5 111.5z" />
<glyph unicode="V" horiz-adv-x="1355" d="M213 1071v4q6 115 157.5 243t346.5 128q92 0 145 -54.5t84 -217t31 -457.5q0 -125 -6 -279q0 -27 12 -26q8 0 16 12q166 244 271.5 465t105.5 311q0 74 -30.5 118t-30.5 56q0 29 38 54.5t107 25.5q158 0 158 -108q0 -141 -590 -1090q-74 -117 -150.5 -209t-117.5 -92h-1 q-32 0 -32 65v9q12 299 12 573q0 731 -118.5 731t-221.5 -418q-4 -10 -16 -10q-41 0 -105.5 54.5t-64.5 111.5z" />
<glyph unicode="W" horiz-adv-x="1982" d="M213 1071v4q6 115 157.5 243t346.5 128q90 0 143 -51.5t86 -205t33 -427.5q0 -162 -8 -324v-4q0 -20 12 -20q8 0 16 12q150 246 234 471t84 305q0 49 -27.5 105.5t-27.5 70.5q0 27 42 47.5t128 20.5q123 0 137 -80q43 -233 43 -614q0 -137 -6 -314q0 -25 14 -24 q6 0 14 12q158 229 257.5 453.5t99.5 320.5q0 72 -31 116t-31 58q0 27 38 52.5t108 27.5q157 -4 157 -107q0 -87 -156.5 -386t-412.5 -705q-76 -119 -152.5 -210t-117.5 -91q-29 0 -29 59v15q22 410 22 672v22q0 100 -2 147q-4 23 -14 23t-16 -14q-117 -289 -326 -623 q-72 -113 -151.5 -207t-118.5 -94q-29 0 -29 57v17q16 291 16 553q0 751 -124 751q-119 0 -222 -418q-4 -10 -16 -10q-41 0 -105.5 54.5t-64.5 111.5z" />
<glyph unicode="X" horiz-adv-x="1320" d="M-8 94q0 10 24.5 18.5t82 34t132 71.5t192.5 155.5t247 263.5q-78 197 -143.5 343t-103.5 213t-64.5 106.5t-36 51t-9.5 19.5q0 29 38 38t126 9q131 0 162 -41q12 -16 205 -551q106 139 170.5 261t64.5 180q0 33 -28.5 65.5t-28.5 42.5q0 29 38 54.5t107 25.5h3 q155 0 155 -108q0 -27 -22.5 -72t-71.5 -114.5t-94 -129t-125 -163t-129 -169.5q86 -215 186 -398t176 -241q33 -27 33 -45q0 -25 -46 -37t-97 -12h-17q-53 0 -82.5 3t-64.5 17.5t-53 45.5q-41 66 -197 475q-35 -45 -95.5 -128t-97 -133t-93 -114.5t-100.5 -101.5 t-98.5 -62.5t-107.5 -25.5q-137 0 -137 153z" />
<glyph unicode="Y" horiz-adv-x="1388" d="M213 1069v4q6 115 151.5 243t340.5 128q96 0 143 -37t47 -141q0 -152 -104 -467q-8 -25 -9 -47q0 -61 70 -62q76 0 185.5 111.5t156.5 257.5q59 184 59 319q0 10 25 20.5t77 17.5t124 7q41 0 57 -6t18 -28v-5q0 -39 -159 -550q-86 -274 -171 -460t-179.5 -292.5 t-189.5 -150.5t-214 -44q-166 0 -273.5 97.5t-107.5 236.5q0 86 97.5 137.5t193.5 51.5q51 0 51 -21q0 -8 -49 -85t-49 -142q0 -170 166 -170q96 0 165.5 77.5t108.5 174t121 346.5q12 39 19.5 60.5t19.5 57t22 66.5q2 4 2 8q0 8 -6 8.5t-12 -10.5q-125 -152 -237.5 -227.5 t-192.5 -75.5t-126 47t-46 133q0 68 31 154q112 319 112 436q0 84 -30 84q-119 0 -222 -418q-4 -10 -16 -10q-41 0 -105.5 54.5t-64.5 111.5z" />
<glyph unicode="Z" horiz-adv-x="1388" d="M23 29q0 43 37.5 80.5t109.5 50.5q164 94 508 663q8 12 43 70.5t42 69t35.5 55.5t41 56t40 43t48 45.5t51.5 32.5t65 34q-31 10 -110.5 40.5t-139 46t-112.5 15.5q-63 0 -125.5 -44t-62.5 -111q0 -39 2 -81t2 -48q0 -23 -6.5 -30t-26.5 -7q-68 0 -137.5 69.5t-69.5 159.5 q0 74 105.5 130t320.5 56q104 0 240.5 -13t208.5 -13q147 0 227 45q20 10 31 10q16 0 16 -22v-37q0 -225 -160 -226q-23 0 -35 2q-8 2 -20 3q-14 0 -24.5 -4.5t-24 -18.5t-25.5 -31.5t-34.5 -54.5t-45 -77t-64.5 -108.5t-85 -138.5q-123 -197 -218.5 -314.5t-164 -171.5 t-164.5 -101q98 -4 141 -4q233 0 393 35.5t217.5 77.5t98.5 78t63 36q27 -1 27 -60q0 -111 -76 -241.5t-192 -130.5q-78 0 -274.5 23.5t-346.5 23.5q-111 0 -246 -12q-14 0 -40.5 -3.5t-36.5 -3.5q-27 0 -37 11.5t-10 44.5z" />
<glyph unicode="[" horiz-adv-x="591" d="M35 -33q0 12 26.5 108.5t72.5 250t63 215.5q68 238 140.5 519t72.5 316q0 10 -1 27.5t-1 26.5q0 27 77.5 35t239.5 8h236q14 0 14 -19q0 -35 -49 -69.5t-144 -34.5h-18q-29 2 -129 12q-23 -137 -156 -576q-57 -195 -119.5 -440.5t-70.5 -325.5q180 8 303 9q14 -1 14 -19 q0 -35 -49 -69.5t-143 -34.5h-19q-43 2 -135 8t-133 6q-92 0 -92 47z" />
<glyph unicode="\" horiz-adv-x="1316" d="M18.5 1386.5q-0.5 14.5 18.5 28.5q16 10 49 10q80 0 135 -84l926 -1400q10 -16 10 -29q0 -14 -14 -23q-25 -12 -56 -12q-80 0 -135 84l-921 1391q-12 20 -12.5 34.5z" />
<glyph unicode="]" horiz-adv-x="591" d="M-211 -76q0 35 49 70t144 35h18q29 -2 129 -13q23 137 156 576q57 195 119.5 440.5t70.5 325.5q-180 -8 -303 -8q-14 0 -14 18q0 35 49 70t143 35h19q43 -2 135 -8.5t133 -6.5q92 0 92 -47q0 -12 -26.5 -108.5t-72.5 -250t-63 -214.5q-68 -238 -140.5 -519.5 t-72.5 -316.5q0 -10 1 -27.5t1 -25.5q0 -27 -77.5 -35t-239.5 -8h-236q-14 0 -14 18z" />
<glyph unicode="^" horiz-adv-x="1085" d="M211 1110v2q0 2 8 10q164 113 301 234t198.5 176t88.5 55q23 -4 45 -42t49 -94t101.5 -141t183.5 -165q4 -2 4 -10q-6 -29 -59.5 -64t-114.5 -35q-18 0 -27 2q-57 8 -100 65.5t-62.5 122t-41 120t-40.5 57.5h-4q-20 0 -45.5 -42t-68.5 -114.5t-92 -124.5 q-94 -96 -193 -96q-20 0 -29 2q-45 6 -73.5 32.5t-28.5 49.5z" />
<glyph unicode="_" d="M-158 -188q0 18 10.5 43.5t48.5 56.5t97 31q188 2 507.5 9t528.5 7h96q51 0 52 -33q0 -16 -10.5 -40.5t-48.5 -53.5t-93 -29h-4q-102 2 -258 2q-160 0 -430 -9t-455 -13q-41 0 -41 29z" />
<glyph unicode="a" horiz-adv-x="925" d="M41 207q0 264 160.5 498.5t359.5 234.5q72 0 125 -24.5t59 -24.5q2 0 24 7t51.5 15.5t53.5 8.5q53 0 54 -33q0 -25 -113 -455q-86 -319 -86 -340q0 -12 6 -37q8 -20 8 -32q0 -18 -22.5 -31.5t-55 -19t-50 -6.5t-27.5 -1q-92 0 -92 72q0 25 16 79t38.5 117.5t27.5 73.5v2 l2 4q0 10 -11 11q-6 0 -10 -9q-76 -158 -164 -252t-174 -94q-180 0 -180 236zM279 244q0 -45 11 -61.5t42 -16.5q55 0 142 148.5t147.5 307t60.5 203.5v2q-12 39 -59 39q-76 0 -160 -116.5t-134 -263t-50 -242.5z" />
<glyph unicode="b" horiz-adv-x="954" d="M53 124.5q0 16.5 7.5 44.5t26.5 92.5t36 135.5q186 758 186 836q0 10 -1 27.5t-1 25.5q0 61 142 62q116 0 116 -57q0 -38 -22.5 -132t-47 -182t-55 -193.5t-37.5 -126.5q-2 -4 -2 -8t5 -4q6 0 12 10q166 289 319 289q172 0 172 -199q0 -131 -36.5 -266t-104.5 -251.5 t-177.5 -190.5t-240.5 -74q-104 0 -183 38t-104 87q-10 20 -10 36.5zM283 111q0 -74 57 -74q68 0 132.5 76.5t105 185.5t65.5 216.5t25 176.5q0 72 -41 72q-29 0 -85.5 -64.5t-105.5 -148.5q-57 -98 -105 -230.5t-48 -209.5z" />
<glyph unicode="c" horiz-adv-x="776" d="M41 248q0 147 63.5 302t193.5 268.5t294 113.5q209 0 210 -109q0 -86 -42.5 -174t-100.5 -88q-27 0 -27.5 74t-10 148.5t-54.5 74.5q-63 0 -129.5 -95t-107.5 -234.5t-41 -266.5q0 -162 110 -162q61 0 118.5 29t94.5 58.5t50 29.5q14 0 14 -18q0 -63 -100.5 -150.5 t-260.5 -87.5q-139 0 -206.5 79t-67.5 208z" />
<glyph unicode="d" horiz-adv-x="911" d="M41 180v27q0 264 160.5 498.5t359.5 234.5q78 0 127 -27h6q10 0 11 15q38 196 38 300v5q0 10 -1 27.5t-1 25.5q0 61 136 62q122 0 122 -57q0 -91 -196 -857q-74 -291 -74 -340q0 -16 4 -33q10 -31 10 -36q0 -18 -22.5 -31.5t-55 -19t-50 -6.5t-27.5 -1q-92 0 -92 72 q0 25 16 79t38.5 117.5t27.5 73.5v2l2 4q0 10 -11 11q-6 0 -10 -9q-76 -160 -164 -253t-174 -93q-180 0 -180 209zM279 244q0 -45 11 -61.5t42 -16.5q55 0 142 148.5t147.5 307t60.5 203.5q0 14 -16.5 27.5t-42.5 13.5q-76 0 -160 -116.5t-134 -263t-50 -242.5z" />
<glyph unicode="e" horiz-adv-x="815" d="M41 264q0 162 73.5 320.5t204.5 263t281 104.5q236 0 236 -194q0 -139 -133.5 -234.5t-303.5 -95.5q-29 0 -28 25q0 14 10 26.5t27 12.5q76 0 135 66.5t83.5 141t24.5 130t-41 55.5q-14 0 -27.5 -2t-47 -22.5t-63.5 -57.5t-68.5 -114t-71.5 -183q-10 -31 -27.5 -123 t-17.5 -127q0 -162 139 -162q51 0 106.5 30t93.5 59.5t50 29.5q14 0 14 -18q0 -63 -100.5 -150.5t-259.5 -87.5q-129 0 -209 74.5t-80 232.5z" />
<glyph unicode="f" horiz-adv-x="681" d="M-88 -487q0 10 5 27.5t17.5 48t24.5 61.5t32.5 81t37.5 95q41 104 84 260t99 376t89 339q-72 0 -156 -15h-8q-16 0 -16 15q0 23 33.5 55.5t72.5 38.5q37 6 105 10q133 451 454 451q86 0 141.5 -37t55.5 -110.5t-41 -158.5t-70 -85q-35 0 -52 76.5t-26.5 154.5t-23.5 78 q-63 0 -114.5 -78t-110.5 -297q18 -2 57 -2q66 0 139 8q10 2 29 2q51 0 51 -24q0 -23 -41 -51.5t-78 -30.5q-86 -6 -151 -6h-33q-18 -70 -66.5 -257.5t-71 -270.5t-59 -213t-67 -212t-61.5 -141q-106 -207 -252 -207q-29 0 -29 19z" />
<glyph unicode="g" horiz-adv-x="907" d="M-61 -366.5q0 73.5 40.5 158.5t69.5 85q35 0 52.5 -78t26.5 -154.5t24 -76.5q98 0 211.5 198.5t209.5 542.5v2l2 4q0 10 -10 11q-6 0 -10 -9q-76 -158 -164 -252t-174 -94q-180 0 -180 211v25q0 264 160.5 498.5t359.5 234.5q72 0 125 -24.5t59 -24.5q2 0 23.5 7 t51.5 15.5t54 8.5q53 0 54 -33q0 -20 -18.5 -90t-50.5 -186.5t-50 -196.5l-76 -312q-31 -131 -79 -236.5t-119.5 -194.5t-174 -138t-227.5 -49q-82 0 -136 37t-54 110.5zM274 244q0 -45 11.5 -61.5t42.5 -16.5q55 0 142 148.5t147.5 307t60.5 203.5v2q-12 39 -60 39 q-76 0 -159.5 -116.5t-134 -263t-50.5 -242.5z" />
<glyph unicode="h" horiz-adv-x="995" d="M4 18q0 51 111 379q68 199 140.5 495t72.5 341q0 10 -1 27.5t-1 25.5q0 59 135 60q123 0 123 -56q0 -68 -89 -376t-145 -476v-6q0 -10 6 -10q4 0 13 10q74 123 117.5 189.5t111.5 150.5t133.5 123t134.5 39q47 0 80 -26.5t33 -86.5q0 -51 -84 -315q-109 -334 -109 -468 q0 -71 -122 -71q-66 0 -97.5 16.5t-31.5 65.5q0 33 86 311q8 27 36.5 109t47 142.5t18.5 78.5q0 33 -18 33q-25 0 -60 -39q-109 -119 -209 -275.5t-143 -267.5q-39 -96 -80 -133t-117 -37q-92 0 -92 47z" />
<glyph unicode="i" horiz-adv-x="505" d="M123 352q41 127 78 285t37 197q0 10 -1 27.5t-1 25.5q0 61 135 61q37 0 57.5 -3t37.5 -16.5t17 -39.5v-15q0 -29 -17 -91t-49 -163.5t-48 -162.5q-82 -295 -82 -398q0 -92 -137 -92h-9q-118 0 -118 50q0 15 100 335zM293 1157v19q0 74 50 125t118 51q49 0 86 -33t43 -84 v-16q0 -72 -50.5 -122t-117.5 -50q-51 0 -87 30.5t-42 79.5z" />
<glyph unicode="j" horiz-adv-x="503" d="M-430 -366.5q0 73.5 41 158.5t70 85q35 0 52 -78t26.5 -154.5t23.5 -76.5q78 0 165 198.5t171 544.5q117 477 117 523q0 10 -1.5 27.5t-1.5 25.5q0 59 140 59q37 0 57.5 -3t35.5 -18.5t15 -43.5q0 -20 -18.5 -85t-48 -167.5t-47.5 -171.5l-91 -353q-33 -133 -73.5 -235 t-101 -193.5t-146.5 -140.5t-195 -49q-82 0 -136 37t-54 110.5zM291 1157v19q0 74 50 125t118 51q49 0 86 -33t43 -84v-16q0 -72 -50.5 -122t-117.5 -50q-51 0 -87 30.5t-42 79.5z" />
<glyph unicode="k" horiz-adv-x="970" d="M-2 18q0 51 111 379q68 199 140.5 495t72.5 341q0 10 -1.5 27.5t-1.5 25.5q0 66 138 66q121 0 121 -62q0 -47 -29 -151.5t-67 -223t-46 -153.5v-4q0 -10 6.5 -10t12.5 8q176 182 360 182q76 0 121 -37t45 -102q0 -41 -15.5 -80t-31.5 -65.5t-57 -56.5t-62.5 -45t-77 -41 t-72 -32t-73.5 -28q-20 -8 -21 -33q0 -51 95 -182q45 -61 88 -94t62.5 -40.5t19.5 -13.5q0 -33 -56.5 -85t-122.5 -52q-72 0 -149.5 124t-128.5 308q-2 6 -2 18q0 35 24 43q123 43 227.5 121t104.5 148q0 47 -63 47q-57 0 -131 -38t-129 -104q-49 -57 -105.5 -272 t-56.5 -291q0 -84 -137 -84h-21q-92 0 -92 47z" />
<glyph unicode="l" horiz-adv-x="473" d="M4 18q0 51 111 379q68 199 140.5 495t72.5 341q0 10 -1 27.5t-1 25.5q0 61 137 62q121 -1 121 -58q0 -47 -28 -145t-82 -262t-77 -240q-139 -469 -139 -586q0 -86 -147 -86h-15q-92 0 -92 47z" />
<glyph unicode="m" horiz-adv-x="1503" d="M6 18q0 39 111 379l84 262q28 85 28 153q0 18 -1 40q-1 20 -1 27q0 63 140 63q55 0 83.5 -11t28.5 -48q0 -47 -21.5 -126t-59.5 -187.5t-46 -131.5v-4l-2 -4q0 -8 8 -8q6 0 13 10q12 18 42.5 73.5t46 80t46.5 74t50 74t49 63.5t53.5 58t53 41t59.5 31t60 9 q135 0 136 -109q0 -61 -51.5 -223t-51.5 -174q0 -10 6 -10q8 0 15 12q14 27 50 89.5t52.5 91t50 80.5t54 79t54.5 62.5t61.5 53t62.5 31t71 13.5q137 0 138 -109q0 -31 -10.5 -77t-18.5 -73.5t-29.5 -93t-23.5 -73.5q-6 -18 -22.5 -71.5t-22.5 -74t-19.5 -63.5t-18.5 -68.5 t-12.5 -62.5t-9.5 -68.5t-2 -64.5t-47 -46.5t-82 -13.5q-125 0 -125 76q0 57 94.5 320.5t94.5 316.5q0 33 -23 33q-18 0 -41 -23q-227 -227 -399 -653q-27 -70 -162 -70q-82 0 -82 41q0 66 82 316q111 332 111 360q0 31 -21 31q-23 0 -43 -25q-190 -209 -352 -555 q-33 -96 -76 -133t-121 -37q-92 0 -92 47z" />
<glyph unicode="n" horiz-adv-x="995" d="M4 18q0 51 111 379q112 331 112 426q0 12 -1 29.5t-1 26.5q0 63 135 63q57 0 87 -11t30 -48t-16.5 -101.5t-33.5 -118t-44 -129t-33 -96.5v-6q0 -10 6 -10q8 0 13 10q57 111 103 188.5t106.5 157.5t125 122t130.5 42q145 0 145 -121q0 -55 -84 -315q-4 -12 -10 -35 q-86 -260 -94 -387q-2 -27 -3 -51q0 -33 -46 -46.5t-78 -13.5q-129 0 -129 76q0 57 94 322.5t94 318.5q0 33 -18 33q-37 0 -87 -57q-100 -109 -190 -259.5t-135 -265.5q-39 -96 -80 -133t-117 -37q-92 0 -92 47z" />
<glyph unicode="o" horiz-adv-x="913" d="M47 299q0 94 35 202.5t99.5 210t174 169t240.5 67.5q53 0 116.5 -18t63.5 -66q0 -27 -28 -26q-4 0 -27 8t-47 8q-129 0 -254 -185.5t-125 -377.5q0 -213 125 -213q74 0 146.5 98t72.5 244q0 104 -27 158q-8 16 -22.5 33.5t-22.5 34t-8 42.5q0 37 33 72t84 35 q29 0 70.5 -27t70.5 -27q43 0 96.5 38t57.5 38q14 0 14 -16v-2q0 -66 -52 -113t-120 -63q4 -41 4 -74q0 -131 -46 -246t-116.5 -187.5t-152.5 -113.5t-158 -41q-156 0 -226.5 95.5t-70.5 242.5z" />
<glyph unicode="p" horiz-adv-x="931" d="M-158 -496q0 14 13.5 52t41 115t50.5 149q254 838 254 1014q0 16 -4 32.5t-4 22.5q0 65 113 65h3q41 0 60.5 -2t37 -19.5t17.5 -49.5q0 -45 -23.5 -139.5t-23.5 -96.5q0 -6 4 -6t12 8q170 295 322 295q172 0 172 -199q0 -178 -58.5 -353t-179.5 -301t-270 -126 q-43 0 -79 7.5t-54 15.5l-21 6q-8 0 -23.5 -52.5t-46 -143.5t-71.5 -160q-86 -152 -213 -152q-29 0 -29 18zM248 90q0 -45 61 -45q94 0 175 128t121 274.5t40 244.5q0 72 -41 72q-29 0 -80 -59.5t-100 -145.5q-47 -82 -111.5 -263t-64.5 -206z" />
<glyph unicode="q" horiz-adv-x="911" d="M41 180v27q0 264 160.5 498.5t359.5 234.5q72 0 125 -24.5t59 -24.5q2 0 24 7t51.5 15.5t53.5 8.5q53 0 54 -33q0 -20 -16.5 -88t-50.5 -193.5t-50 -193.5l-78 -310q-74 -287 -74 -411q0 -59 36 -94t36 -48q0 -18 -75.5 -41.5t-127.5 -23.5q-72 0 -98.5 35t-26.5 96 q0 133 175 692v2l2 4q0 10 -11 11q-6 0 -10 -9q-76 -160 -164 -253t-174 -93q-180 0 -180 209zM279 244q0 -45 11 -61.5t42 -16.5q55 0 142 148.5t147.5 307t60.5 203.5v2q-12 39 -59 39q-76 0 -160 -116.5t-134 -263t-50 -242.5z" />
<glyph unicode="r" horiz-adv-x="847" d="M29 47q0 23 101 379t101 399q0 10 -1 27.5t-1 26.5q0 63 140 63q55 0 83.5 -11t28.5 -48q0 -47 -23.5 -128t-63.5 -187.5t-48 -129.5v-6q0 -10 6 -10t13 10q141 279 229 398.5t182 119.5q102 0 103 -131q0 -100 -58.5 -195.5t-93.5 -95.5q-27 0 -44 87t-40 87 q-47 0 -175 -221t-159 -340q-10 -33 -15 -78t-11 -57q-16 -35 -131 -35q-123 0 -123 76z" />
<glyph unicode="s" horiz-adv-x="796" d="M10 123q0 80 44 164t83 84q29 0 38 -42t13.5 -114t16.5 -111q8 -29 34.5 -47t55.5 -18q61 0 106 39t45 110q0 59 -71.5 154.5t-144 196t-72.5 172.5q0 90 85 165.5t242 75.5q127 0 209 -37.5t82 -105.5q0 -72 -38 -145.5t-91 -73.5q-20 0 -27.5 47t-12.5 109.5t-15 82.5 q-27 49 -90 50q-39 0 -72 -33t-33 -90.5t46 -130t101.5 -131t101.5 -131t46 -130.5q0 -123 -113.5 -199.5t-291.5 -76.5q-129 0 -203 41t-74 125z" />
<glyph unicode="t" horiz-adv-x="729" d="M143 117q0 72 156 594q4 16 10 34.5t12.5 39t10.5 30.5q-92 0 -164 -14h-8q-16 0 -17 12q0 20 31 48t72 34q70 10 116 11q59 182 60 196q0 59 45 96t90 47t86 10q72 0 72 -47q0 -10 -13.5 -48t-44 -116.5t-55.5 -146.5h19q66 0 139 8q12 2 33 1q49 0 49 -20t-40 -43.5 t-77 -27.5q-86 -6 -152 -6q-20 -53 -38 -121q-12 -39 -43 -140.5t-45.5 -151.5t-29 -118.5t-14.5 -113.5q0 -57 36 -88t36 -47q0 -27 -59.5 -47.5t-108.5 -20.5q-164 0 -164 156z" />
<glyph unicode="u" horiz-adv-x="948" d="M33 115q0 98 101.5 390t101.5 357q0 4 -1.5 10.5t-1.5 8.5v6q0 55 129 55q119 0 119 -61q0 -49 -108 -359q-98 -283 -99 -311q0 -47 35 -47q76 0 200 228.5t204 473.5q23 76 129 76h4q98 0 98 -45q0 -14 -99.5 -354t-99.5 -430q0 -18 4.5 -40t4.5 -38q0 -61 -121 -62 q-76 0 -99.5 22.5t-23.5 76t82 288.5q2 4 2 13q0 6 -4 6q-10 0 -17 -12q-88 -174 -195.5 -285t-219.5 -111q-49 0 -87 33t-38 111z" />
<glyph unicode="v" horiz-adv-x="827" d="M137 193q0 115 19.5 349t19.5 283q0 37 -6 49q-4 6 -4 19q0 31 51 46t82 15q59 0 87 -19.5t28 -72.5q0 -35 -24.5 -262t-33.5 -360v-7q1 -26 11 -26q8 0 28 24q147 182 213 313.5t66 186.5q0 37 -18.5 58.5t-37 35t-18.5 33.5q0 45 53.5 81t106.5 36q108 0 108 -84 q0 -94 -123.5 -316.5t-281.5 -412t-238 -189.5q-88 0 -88 220z" />
<glyph unicode="w" horiz-adv-x="1271" d="M137 199q0 117 19.5 348t19.5 278q0 37 -6 49q-4 6 -4 19q0 33 49 48t80 15q59 0 87 -19t28 -75q0 -35 -24 -260t-32 -354v-6q0 -27 13 -27q14 0 28 25q217 346 242 491q6 49 6 88q0 43 -6 55.5t-6 20.5q0 31 44 45t70 14q68 0 95.5 -18t27.5 -74q0 -35 -7 -131 t-19.5 -242.5t-18.5 -240.5v-12q0 -25 10.5 -25t24.5 20q145 184 210 314.5t65 185.5q0 37 -18.5 58.5t-37 35t-18.5 33.5q0 45 53 81t107 36q108 0 108 -84q0 -94 -122 -316.5t-276.5 -412t-234.5 -189.5q-96 0 -96 199q0 90 14 238q0 20 -6 20t-24 -33 q-113 -205 -197 -314.5t-156 -109.5q-92 0 -92 226z" />
<glyph unicode="x" horiz-adv-x="942" d="M4 141q0 127 66 127q10 0 51 -19.5t69 -19.5q35 0 66 25q45 35 127 141q10 14 10 35q0 4 -4 21q-37 102 -71.5 182t-56 120t-38 66.5t-23.5 38.5t-7 21q0 27 43 43t112 16q74 0 96 -39q49 -88 105 -278q6 -16 14 -17q6 0 12 10q164 244 209 287q49 49 103 49 q92 0 92 -112q0 -76 -36 -155t-66 -79q-35 0 -57.5 56.5t-43.5 56.5q-45 0 -174 -178q-18 -29 -18 -50q0 -10 2 -14q49 -129 108 -223q41 -63 82 -100t59.5 -47.5t18.5 -16.5q0 -33 -56.5 -85t-121.5 -52q-53 0 -98.5 71.5t-133.5 278.5q-8 18 -16 18q-6 0 -12 -8 q-119 -178 -190.5 -264t-121.5 -86q-47 0 -73.5 55.5t-26.5 124.5z" />
<glyph unicode="y" horiz-adv-x="917" d="M-96 -375q0 74 45 163t74 89q35 0 50 -78t21 -154.5t21 -76.5q100 0 225 207t238 565q0 10 -9 10q-4 0 -12 -12l-2 -2q-141 -242 -289 -328q-63 -37 -119 -37q-49 0 -86.5 33t-37.5 111q0 33 8 73.5t16 70.5t24.5 80t22.5 73q8 33 44 139t50.5 178t14.5 152q0 49 157 49 q90 0 91 -49q0 -29 -27 -137.5t-59 -200.5l-66 -185q-35 -92 -35 -151q0 -47 35 -47q25 0 43 18q115 109 223.5 319t157.5 369q18 63 151 64q80 0 80 -33q0 -10 -25.5 -83t-64.5 -189.5t-65 -208.5l-88 -312q-174 -618 -621 -618q-82 0 -134 34t-52 105z" />
<glyph unicode="z" horiz-adv-x="909" d="M-10 16q0 29 86 132.5t259 307t312 394.5q-16 0 -65.5 5t-73.5 5q-158 0 -158 -141q0 -14 2 -34.5t2 -25.5q0 -20 -35 -20q-53 0 -112.5 45t-59.5 113q0 70 75 114.5t208 44.5q63 0 166.5 -12t151.5 -12q27 0 83 5t74 5q35 0 35 -12q0 -53 -231.5 -354.5t-425.5 -507.5 h30q57 0 106.5 3t91.5 12t69.5 15t60.5 20.5t43 19.5t41 22l29 16q8 4 12 4q35 0 35 -80q0 -125 -86 -184q-47 -31 -121 -31q-78 0 -180 35q-111 39 -221.5 52.5t-156.5 17.5t-46 26z" />
<glyph unicode="{" horiz-adv-x="684" d="M209 737q0 16 20 21q51 6 88 34.5t63 85t41 109.5t38 141q10 39 14 60q47 188 141.5 276t198.5 88q33 0 33 -22q0 -6 -10.5 -17.5t-29 -33t-37.5 -53t-43 -94t-40 -140.5q-23 -100 -57.5 -176t-69.5 -115t-67.5 -64.5t-52 -38t-19.5 -20.5t16.5 -22.5t34.5 -34 t34.5 -64.5t16.5 -106q0 -29 -54 -217.5t-54 -282.5q0 -72 29.5 -140.5t29.5 -70.5q0 -23 -20 -22q-45 0 -140.5 111.5t-95.5 205.5q0 84 48 223.5t48 200.5q0 53 -25.5 89t-52 55.5t-26.5 33.5z" />
<glyph unicode="|" horiz-adv-x="522" d="M14 -184q0 8 4 28l414 1620q23 92 156 92q35 0 35 -45q0 -23 -5 -36l-413 -1610q-27 -100 -154 -101q-37 0 -37 52z" />
<glyph unicode="}" horiz-adv-x="712" d="M0 -160q0 6 10 17.5t28.5 33t38 53t43 94t40.5 140.5q23 100 57.5 176t69.5 115t67.5 64.5t52 38t19.5 20.5t-16.5 22.5t-35 34t-34.5 64.5t-16 106q0 29 54 217.5t54 282.5q0 72 -29.5 140.5t-29.5 70.5q0 23 20 22q45 0 140.5 -111.5t95.5 -205.5q0 -84 -48.5 -223.5 t-48.5 -200.5q0 -53 27 -89t52.5 -55.5t25.5 -33.5q0 -16 -21 -21q-51 -6 -87.5 -34.5t-62.5 -85t-41 -109.5t-38 -141q-10 -39 -14 -60q-47 -188 -141.5 -276t-198.5 -88q-33 0 -33 22z" />
<glyph unicode="~" horiz-adv-x="1222" d="M119 408q0 94 109.5 174t244.5 80q100 0 247 -67t204 -67q61 0 116.5 25t88 48.5t41 23.5t8.5 -21q0 -96 -102.5 -177t-235.5 -81q-94 0 -245 68.5t-222 68.5q-61 0 -116.5 -24.5t-88.5 -48t-41 -23.5t-8 21z" />
<glyph unicode="&#xa1;" horiz-adv-x="544" d="M-188 -389q0 33 108 285l78 176q41 90 100.5 248.5t77.5 193.5q27 47 113 47q55 0 55 -33q0 -8 -4 -19t-4 -13l-86 -318q-92 -338 -129 -502q-8 -23 -12 -26q-16 -29 -70.5 -55.5t-151.5 -26.5q-70 0 -75 43zM238 803q0 70 36.5 122t100.5 52q41 0 66.5 -29.5t25.5 -77.5 q0 -61 -42 -108t-95 -47q-80 0 -92 88z" />
<glyph unicode="&#xa2;" horiz-adv-x="770" d="M41 248q0 139 56.5 285.5t174 261t265.5 133.5l18 55q25 80 80 80h10q18 -6 19 -23q0 -6 -5 -18l-28 -92q170 -8 170 -107q0 -86 -42 -174t-100 -88q-25 0 -27.5 55.5t-5.5 127t-24 98.5l-235 -738q20 -4 32 -4q61 0 118.5 29t94.5 58.5t50 29.5q14 0 14 -18 q0 -35 -37 -87.5t-123 -100.5t-194 -50l-17 -55q-27 -80 -80 -80q-12 0 -14 2q-12 4 -12 16q0 8 2 15l35 110q-195 43 -195 279zM289 262q0 -59 10 -90l209 666q-84 -59 -151.5 -235.5t-67.5 -340.5z" />
<glyph unicode="&#xa3;" horiz-adv-x="1327" d="M94 29q0 39 41 74.5t107 56.5q4 4 14 12q41 35 68.5 63.5t71.5 88t67.5 141.5t23.5 178v4q-106 0 -194 -12h-12q-23 0 -23 12q0 20 41 48t88 36q51 8 86 10q-8 27 -74.5 183.5t-66.5 255.5q0 160 149.5 235.5t366.5 75.5q176 0 281.5 -34t105.5 -101q0 -94 -76 -209 t-137 -115q-20 0 -21 43q0 12 3.5 52t3.5 63q0 205 -189 205q-88 0 -153.5 -48.5t-65.5 -142.5q0 -74 58.5 -219t72.5 -227q147 6 408 6q14 0 14 -16q0 -20 -20.5 -42t-79 -42.5t-140.5 -20.5h-28q-78 4 -142 4v-10q0 -281 -327 -498h57q211 0 362.5 39t211 84t104.5 84 t70 39q26 0 26 -59q0 -111 -75.5 -242t-192.5 -131q-82 0 -260 20.5t-287 20.5q-106 0 -213 -14q-66 -8 -78 -9q-25 0 -36 12.5t-11 45.5z" />
<glyph unicode="&#xa4;" horiz-adv-x="1200" d="M162 233l131 129q-84 137 -84 271q0 137 84 258l-131 129l104 106l131 -131q119 82 275 82q123 0 254 -82l131 131l104 -106l-129 -129q86 -129 86 -270.5t-86 -258.5l129 -129l-104 -104l-131 129q-131 -84 -267 -84q-141 0 -262 84l-129 -129zM356 627q0 -141 93 -226 q94 -84 217 -84q121 0 215 82q90 84 90 228v4q0 121 -90 212t-211 91h-13q-121 0 -211 -90t-90 -211v-6z" />
<glyph unicode="&#xa5;" horiz-adv-x="1214" d="M174 1071v4q0 113 141.5 242t321.5 129q78 0 122 -43t70.5 -170t26.5 -356q0 -53 -4 -205q0 -27 12 -27q6 0 17 12q354 438 354 543q0 74 -30.5 118t-30.5 56q0 29 37.5 54.5t107.5 25.5q158 0 158 -108q0 -16 -12.5 -45t-40 -74t-57.5 -88t-82 -114t-92 -124 t-109.5 -146t-116.5 -157q90 2 245 2q14 0 15 -16q0 -20 -20.5 -42t-79 -42.5t-140.5 -20.5h-29l-77 4v-2l-25 -92q111 2 299 2q14 0 14 -16q0 -20 -20.5 -42t-78.5 -42.5t-140 -20.5h-29l-74 4q-12 -57 -12 -102q0 -59 36 -94t36 -47q0 -18 -79 -42t-132 -24 q-135 0 -135 131q0 37 34 180q-154 0 -266 -14h-12q-23 0 -23 12q0 20 41 48t88 36q61 8 195 21l18 106q-174 -4 -249 -14h-13q-23 0 -22 12q0 20 41 48t88 36q23 4 164 19q10 133 10 250q0 209 -24.5 353t-69.5 144q-23 0 -43.5 -21.5t-57.5 -119.5t-80 -277 q-4 -10 -16 -10q-41 0 -105.5 54.5t-64.5 111.5z" />
<glyph unicode="&#xa6;" horiz-adv-x="522" d="M14 -184q0 8 4 28l170 668q23 92 156 92q35 0 35 -45q0 -23 -4 -37l-170 -657q-27 -100 -154 -101q-37 0 -37 52zM258 768q0 8 4 29l170 667q23 92 156 92q35 0 35 -45q0 -23 -5 -36l-169 -658q-27 -100 -154 -100q-37 0 -37 51z" />
<glyph unicode="&#xa7;" horiz-adv-x="876" d="M31 117q0 80 44 164t83 84q29 0 38 -42t13 -114t16 -111q8 -29 35 -47t55 -18q61 0 106.5 39t45.5 110q0 59 -71.5 154.5t-144.5 196t-73 172.5q0 82 73 154.5t208 84.5q-102 137 -103 217q0 90 85 166t243 76q127 0 209 -38t82 -105q0 -72 -38 -146t-91 -74 q-20 0 -27.5 47.5t-12.5 110t-15 82.5q-27 49 -91 49q-39 0 -71.5 -32.5t-32.5 -90t46 -130t101.5 -131t101.5 -131.5t46 -130q0 -98 -73 -168t-197 -96q92 -115 92 -193q0 -123 -114 -199.5t-292 -76.5q-129 0 -202.5 41t-73.5 125zM418 749.5q0 -55.5 34.5 -111.5 t102.5 -138q90 37 90 139q0 68 -129 233q-39 -4 -68.5 -35.5t-29.5 -87z" />
<glyph unicode="&#xaa;" horiz-adv-x="937" d="M293 924q0 211 128 398t288 187q57 0 100 -19.5t47 -19.5q2 0 19.5 6.5t41 12.5t44.5 6q41 0 40.5 -26.5t-90.5 -362.5q-68 -264 -67 -272q0 -14 4 -31q6 -12 6 -25q0 -20 -33 -31.5t-55.5 -13.5t-34.5 -2q-74 0 -74 57q0 18 12.5 61.5t32 96.5t21.5 60v4q0 8 -8 8 q-6 0 -8 -6q-59 -125 -130 -201t-141 -76q-143 0 -143 189zM483 952q0 -35 9 -48t34 -13q66 0 172.5 229.5t106.5 296.5v2q-8 31 -47 31q-61 0 -128 -93t-107 -210t-40 -195z" />
<glyph unicode="&#xac;" horiz-adv-x="1554" d="M158 842q0 18 10 43.5t48 56.5t97 31q188 2 508 9t529 7h96q51 0 51 -33q0 -29 -24 -63q4 -4 4 -10v-2l-47 -363q-6 -43 -52.5 -59.5t-87.5 -16.5q-29 0 -28 21v2l53 362v7q-90 2 -232 2q-160 0 -430 -9.5t-454 -13.5q-41 0 -41 29z" />
<glyph unicode="&#xb0;" horiz-adv-x="888" d="M299 1124q0 59 24.5 129t70.5 137.5t128 111.5t185 44q123 0 206.5 -77.5t83.5 -241.5q0 -66 -23.5 -135.5t-69.5 -134t-125 -105.5t-175 -41q-25 0 -52.5 3t-75.5 21.5t-85 49t-64.5 93t-27.5 146.5zM463 1108q0 -90 33.5 -140t97.5 -50q102 0 167.5 95t65.5 230 q0 191 -127 191q-86 0 -161.5 -95.5t-75.5 -230.5z" />
<glyph unicode="&#xb1;" horiz-adv-x="1085" d="M174 23q0 18 5 44.5t24.5 56.5t48.5 30q219 0 418 8t334 8q27 0 26 -33q0 -29 -18.5 -73t-59.5 -50q-164 0 -360.5 -9t-396.5 -11q-20 0 -21 29zM174 637q0 18 5 45t24.5 56.5t48.5 29.5q133 0 276 4l19 270q2 41 48 61.5t81 20.5q33 0 33 -26v-2l-19 -320q180 8 314 8 q27 0 26 -32q0 -29 -18.5 -73t-59.5 -50q-166 0 -272 -6l-18 -299q-2 -31 -32 -49.5t-57.5 -22.5t-50.5 -4q-29 0 -28 20v2l24 346q-164 -8 -323 -8q-20 0 -21 29z" />
<glyph unicode="&#xb2;" horiz-adv-x="976" d="M256 799q0 55 27.5 93t74.5 38q23 0 33 -2q178 150 277.5 279.5t99.5 211.5q0 39 -20.5 66.5t-61.5 27.5q-76 0 -94 -172l-4 -10q0 -8 -17 -8q-49 0 -96 33t-47 69q0 76 75 124t167 48q158 0 220 -58t62 -126q0 -207 -467 -514q68 -23 156 -22q125 0 199 53q12 10 26 10 q20 0 21 -25q0 -88 -58.5 -148t-183.5 -60q-82 0 -184.5 30.5t-120.5 30.5q-23 0 -35 -14.5t-22 -14.5q-27 0 -27 60z" />
<glyph unicode="&#xb3;" horiz-adv-x="737" d="M184 729.5q0 24.5 76 42.5q168 39 235.5 97.5t67.5 138.5q0 115 -164 114h-6q-23 0 -22 23q0 12 32 35q201 127 201 239q0 39 -20.5 66.5t-61.5 27.5q-8 0 -16 -2t-22.5 -12t-26 -26.5t-19.5 -51.5t-8 -80q0 -18 -22 -18q-49 0 -96.5 33t-47.5 69q0 76 75 124t167 48 q158 0 220 -56t62 -122q0 -111 -210 -223h12q18 0 42.5 -7t54.5 -23.5t50.5 -53.5t20.5 -88q0 -158 -153 -238.5t-374 -80.5q-47 0 -47 24.5z" />
<glyph unicode="&#xb5;" horiz-adv-x="948" d="M-141 -453q0 18 3 42t10 56.5t13 60.5t19.5 75t23 78.5t28.5 92t30.5 94.5t35 107.5t35.5 112.5q12 41 59.5 174t72 237.5t24.5 203.5q0 49 158 49q90 0 90 -49q0 -29 -26.5 -137.5t-59.5 -200.5q-100 -285 -100.5 -332t34.5 -47q78 0 202 220t222 482q23 63 146 64h6 q80 0 80 -33q0 -14 -110 -354t-110 -430q0 -18 4.5 -40t4.5 -38q0 -59 -146 -60q-61 0 -80.5 15.5t-19.5 52.5q0 76 84 317q2 4 2 13q0 6 -4 6q-8 0 -17 -12l-2 -5q-154 -268 -303 -356q-59 -35 -110 -35q-53 0 -88 33q-14 0 -15 -27q0 -20 27 -122.5t27 -161.5 q-1 -33 -5 -47q-14 -66 -73.5 -119t-112.5 -53q-25 0 -39 12q-20 14 -20 61z" />
<glyph unicode="&#xb6;" horiz-adv-x="921" d="M201 1020q0 195 184 306.5t492 131.5q16 2 59 2q197 0 197 -59q0 -27 -41 -55q-31 -20 -64 -64.5t-69.5 -125.5t-61.5 -139.5t-67 -181t-57 -172t-60 -186.5q-57 -180 -150 -530q-6 -29 -24 -29q-31 0 -55.5 41t-24.5 72q0 14 2 16q16 70 36.5 144.5t38 134t45 142.5 t43 129t48.5 136t45 123t49 130t45 115.5t49 122t43 109.5v6q0 23 -41 23q-72 -4 -88 -39q-106 -246 -180 -453q-211 -590 -281 -927l-6 -6q-6 -6 -18 -7q-27 0 -50.5 27t-23.5 82q0 29 8 53q20 104 91 328.5t124 357.5q2 4 2 10q0 25 -34 25q-84 0 -144.5 62.5t-60.5 144.5 z" />
<glyph unicode="&#xb7;" horiz-adv-x="401" d="M117 592v16q0 59 41 101.5t96 42.5q41 0 71.5 -27t34.5 -70v-16q0 -57 -40.5 -98t-96.5 -41q-43 0 -72.5 25.5t-33.5 66.5z" />
<glyph unicode="&#xb9;" horiz-adv-x="694" d="M336 748q0 20 18.5 82.5t58.5 183.5t58 180q41 135 41 137q0 25 -12 25q-20 0 -69.5 -18.5t-65.5 -18.5q-27 0 -27 31q0 20 49 52t102.5 75t63.5 86q6 33 119 32q78 0 78 -32q0 -39 -101 -373q-100 -332 -100 -406q0 -10 1 -23t1 -20q0 -26 -137 -26q-31 0 -54.5 9 t-23.5 24z" />
<glyph unicode="&#xba;" horiz-adv-x="944" d="M297 997q0 76 27.5 162t80 168t140.5 135.5t192 53.5q23 0 51.5 -4.5t60.5 -19.5t32 -42q0 -23 -23 -23q-4 0 -21.5 7.5t-37.5 7.5q-102 0 -202.5 -148.5t-100.5 -302.5q0 -172 100 -172q59 0 117.5 79t58.5 196q0 82 -22 127q-6 12 -18.5 26.5t-18.5 27.5t-6 34 q0 29 25.5 56.5t68.5 27.5q23 0 56.5 -20.5t55.5 -20.5q35 0 78 29.5t45 29.5q12 0 13 -12v-2q0 -53 -42 -91t-96 -51q0 -8 1 -27.5t1 -31.5q0 -205 -122.5 -337t-255.5 -132q-123 0 -180.5 77t-57.5 193z" />
<glyph unicode="&#xbc;" horiz-adv-x="1654" d="M186 1241q0 12 61.5 49t123 89.5t61.5 97.5q0 14 31 24t67 10q84 0 84 -34q0 -55 -112 -435q-113 -389 -113 -475q0 -12 2 -26.5t2 -22.5q0 -31 -137 -31q-27 0 -47.5 11.5t-20.5 27.5q0 25 22.5 100.5t64.5 207t67 213.5q41 135 41 186q0 27 -14 27q-23 -2 -80.5 -22.5 t-77.5 -20.5q-25 0 -25 24zM240 4q0 12 10 29l926 1401q55 82 118 82q12 0 37 -9q18 -14 19 -28q0 -12 -13 -35l-921 -1391q-53 -82 -119 -82q-27 0 -43 11q-14 6 -14 22zM754 254q0 35 39 63q106 78 232 265.5t138 388.5q0 29 63.5 49t116.5 20q37 0 37 -12 q0 -125 -136 -339t-335 -376q133 29 287 29h2q12 51 21.5 104.5t11.5 57.5q8 39 31.5 47t126.5 16h10q31 0 31 -24q0 -14 -8.5 -40t-28 -76t-33.5 -89q57 -4 79.5 -4t58.5 6t42 6q12 0 12 -16q0 -8 -18 -36t-55 -55.5t-74 -27.5q-31 0 -80 4q-37 -131 -37 -190q0 -12 2 -27 t2 -23q0 -31 -137 -30q-27 0 -47.5 11t-20.5 28q0 20 8.5 49.5t32 92t37.5 105.5q-78 10 -151 11q-94 0 -191 -17q-6 0 -21.5 -4t-21.5 -4q-27 0 -26 37z" />
<glyph unicode="&#xbd;" horiz-adv-x="1667" d="M186 1241q0 12 61.5 49t123 89.5t61.5 97.5q0 14 31 24t67 10q84 0 84 -34q0 -55 -112 -435q-113 -389 -113 -475q0 -12 2 -26.5t2 -22.5q0 -31 -137 -31q-27 0 -47.5 11.5t-20.5 27.5q0 25 22.5 100.5t64.5 207t67 213.5q41 135 41 186q0 27 -14 27q-23 -2 -80.5 -22.5 t-77.5 -20.5q-25 0 -25 24zM240 4q0 12 10 29l926 1401q55 82 118 82q12 0 37 -9q18 -14 19 -28q0 -12 -13 -35l-921 -1391q-53 -82 -119 -82q-27 0 -43 11q-14 6 -14 22zM883 63q0 63 32.5 105.5t85.5 42.5q219 182 320.5 328.5t101.5 294.5q0 51 -18.5 86.5t-54.5 35.5 q-10 0 -22.5 -3t-32 -16t-36 -36.5t-31 -70t-20.5 -109.5l-2 -12q-2 -10 -20 -11q-37 0 -71 36t-40 81q0 4 -1 8t-1 6q0 80 84 133.5t178 53.5q154 0 216.5 -75t62.5 -163q0 -258 -527 -583q12 -4 42 -15.5t50.5 -18.5t58.5 -13.5t81 -6.5q96 0 194 72q8 6 19 6q18 0 18 -22 q0 -90 -54 -155t-169 -65q-94 0 -215 37t-143.5 37t-38.5 -18q-10 -10 -20.5 -10t-18.5 11t-8 29z" />
<glyph unicode="&#xbe;" horiz-adv-x="1753" d="M14 432q0 18 58 37q422 129 422 375q0 133 -187 133h-12q-27 0 -27 27q0 16 39 40q233 143 234 281q0 127 -80 127q-10 0 -22.5 -3t-32 -16.5t-35 -37t-29.5 -69.5t-20 -109q-2 -23 -25 -23q-37 0 -70.5 37t-40.5 80v14q0 80 88 133t185 53q121 0 185.5 -52t64.5 -124 q0 -137 -244 -272h12q31 0 70 -12.5t82 -61.5t43 -127q0 -111 -54.5 -196.5t-147.5 -135t-194.5 -77t-218.5 -35.5h-8q-35 0 -35 14zM338 4q0 12 10 29l926 1401q56 82 119 82q12 0 37 -9q18 -14 18 -28q0 -12 -12 -35l-922 -1391q-53 -82 -119 -82q-27 0 -43 11 q-14 6 -14 22zM852 254q0 35 39 63q106 78 232 265.5t139 388.5q0 29 63.5 49t116.5 20q37 0 37 -12q0 -125 -136.5 -339t-334.5 -376q133 29 286 29h2q12 51 21.5 104.5t11.5 57.5q8 39 31.5 47t126.5 16h10q31 0 31 -24q0 -14 -8.5 -40t-27.5 -76t-34 -89q57 -4 80 -4 t58.5 6t41.5 6q12 0 13 -16q0 -8 -18.5 -36t-55.5 -55.5t-74 -27.5q-31 0 -80 4q-37 -131 -37 -190q0 -12 2.5 -27t2.5 -23q0 -31 -138 -30q-27 0 -47 11t-20 28q0 20 8 49.5t31.5 92t38.5 105.5q-78 10 -152 11q-94 0 -190 -17q-6 0 -21.5 -4t-21.5 -4q-27 0 -27 37z" />
<glyph unicode="&#xbf;" horiz-adv-x="837" d="M-147 -137q0 104 57 194t138 153.5t162 119t138.5 115t57.5 116.5q0 68 118 68q76 0 80 -37v-10q0 -119 -207 -289q-274 -223 -274 -463q0 -217 149 -217q16 0 33 4t44.5 23.5t50 53.5t44 100.5t29.5 156.5l4 16q2 14 29 15q53 0 101 -52.5t57 -113.5q0 -4 1 -11.5 t1 -11.5q0 -115 -120 -190.5t-253 -75.5q-109 0 -192 26.5t-128 63.5t-73.5 86t-37.5 87t-9 73zM449 803q0 70 36.5 122t100.5 52q41 0 66.5 -29.5t25.5 -77.5q0 -61 -42 -108t-95 -47q-82 0 -92 88z" />
<glyph unicode="&#xc0;" horiz-adv-x="1193" d="M-33 125q0 59 29 59q8 0 20.5 -1t18.5 -1q115 0 190.5 49.5t110.5 104.5q76 117 76 135q0 10 -17 10h-231q-18 0 -19 17q0 14 10.5 29.5t49.5 31.5t98 16l152 3q16 0 28 26q102 211 179 431t77 296q0 4 -1 8t-1 7q-2 8 -2 20q0 55 63.5 72.5t205.5 17.5q84 0 116.5 -18.5 t36.5 -63.5v-12q0 -16 -5 -46t-18.5 -115t-25.5 -204q-2 -14 -17.5 -144t-32 -322.5t-16.5 -303.5q0 -47 2 -65q4 -57 28 -91t24 -42q0 -37 -66.5 -56.5t-122.5 -19.5q-139 0 -145 88q-2 16 -2 57t5 94.5t13 131t13 127.5v6q0 25 -19 24h-194q-18 0 -25 -18 q-115 -252 -226.5 -384t-252.5 -132q-47 0 -77 59.5t-30 118.5zM608 588q0 -8 15 -8h172q14 4 16 12l16 100q58 344 58 494q0 14 -12.5 14t-20.5 -18q-51 -117 -133 -320t-109 -268zM621 1802q0 41 49 91.5t92 50.5q23 0 37 -21q33 -51 70.5 -107.5t61 -89t44 -64.5 t30 -53.5t9.5 -35.5q0 -8 -11.5 -23.5t-25.5 -15.5q-49 0 -202.5 96t-153.5 172z" />
<glyph unicode="&#xc1;" horiz-adv-x="1193" d="M-33 125q0 59 29 59q8 0 20.5 -1t18.5 -1q115 0 190.5 49.5t110.5 104.5q76 117 76 135q0 10 -17 10h-231q-18 0 -19 17q0 14 10.5 29.5t49.5 31.5t98 16l152 3q16 0 28 26q102 211 179 431t77 296q0 4 -1 8t-1 7q-2 8 -2 20q0 55 63.5 72.5t205.5 17.5q84 0 116.5 -18.5 t36.5 -63.5v-12q0 -16 -5 -46t-18.5 -115t-25.5 -204q-2 -14 -17.5 -144t-32 -322.5t-16.5 -303.5q0 -47 2 -65q4 -57 28 -91t24 -42q0 -37 -66.5 -56.5t-122.5 -19.5q-139 0 -145 88q-2 16 -2 57t5 94.5t13 131t13 127.5v6q0 25 -19 24h-194q-18 0 -25 -18 q-115 -252 -226.5 -384t-252.5 -132q-47 0 -77 59.5t-30 118.5zM608 588q0 -8 15 -8h172q14 4 16 12l16 100q58 344 58 494q0 14 -12.5 14t-20.5 -18q-51 -117 -133 -320t-109 -268zM956 1552q0 63 86 216t177 153q55 0 93 -46t38 -99q0 -12 -4.5 -22.5t-13.5 -21t-18 -17.5 t-26.5 -17t-29 -16.5t-34 -18.5t-34.5 -18q-29 -16 -85 -48t-85 -47.5t-39 -15.5q-25 0 -25 18z" />
<glyph unicode="&#xc2;" horiz-adv-x="1193" d="M-33 125q0 59 29 59q8 0 20.5 -1t18.5 -1q115 0 190.5 49.5t110.5 104.5q76 117 76 135q0 10 -17 10h-231q-18 0 -19 17q0 14 10.5 29.5t49.5 31.5t98 16l152 3q16 0 28 26q102 211 179 431t77 296q0 4 -1 8t-1 7q-2 8 -2 20q0 55 63.5 72.5t205.5 17.5q84 0 116.5 -18.5 t36.5 -63.5v-12q0 -16 -5 -46t-18.5 -115t-25.5 -204q-2 -14 -17.5 -144t-32 -322.5t-16.5 -303.5q0 -47 2 -65q4 -57 28 -91t24 -42q0 -37 -66.5 -56.5t-122.5 -19.5q-139 0 -145 88q-2 16 -2 57t5 94.5t13 131t13 127.5v6q0 25 -19 24h-194q-18 0 -25 -18 q-115 -252 -226.5 -384t-252.5 -132q-47 0 -77 59.5t-30 118.5zM608 588q0 -8 15 -8h172q14 4 16 12l16 100q58 344 58 494q0 14 -12.5 14t-20.5 -18q-51 -117 -133 -320t-109 -268zM645 1653q0 12 10 14q92 33 186.5 99.5t156 115.5t85.5 49h2q18 0 34 -24.5t31 -60.5 t61 -90t114 -103q4 -2 4 -11q-6 -31 -59 -67.5t-113 -36.5q-35 0 -58.5 35t-30.5 77t-14 76.5t-18 34.5q-14 0 -58 -55t-93 -111.5t-76 -56.5q-72 0 -118 41t-46 74z" />
<glyph unicode="&#xc3;" horiz-adv-x="1193" d="M-33 125q0 59 29 59q8 0 20.5 -1t18.5 -1q115 0 190.5 49.5t110.5 104.5q76 117 76 135q0 10 -17 10h-231q-18 0 -19 17q0 14 10.5 29.5t49.5 31.5t98 16l152 3q16 0 28 26q102 211 179 431t77 296q0 4 -1 8t-1 7q-2 8 -2 20q0 55 63.5 72.5t205.5 17.5q84 0 116.5 -18.5 t36.5 -63.5v-12q0 -16 -5 -46t-18.5 -115t-25.5 -204q-2 -14 -17.5 -144t-32 -322.5t-16.5 -303.5q0 -47 2 -65q4 -57 28 -91t24 -42q0 -37 -66.5 -56.5t-122.5 -19.5q-139 0 -145 88q-2 16 -2 57t5 94.5t13 131t13 127.5v6q0 25 -19 24h-194q-18 0 -25 -18 q-115 -252 -226.5 -384t-252.5 -132q-47 0 -77 59.5t-30 118.5zM608 588q0 -8 15 -8h172q14 4 16 12l16 100q58 344 58 494q0 14 -12.5 14t-20.5 -18q-51 -117 -133 -320t-109 -268zM637 1626q0 72 85 130.5t187 58.5q61 0 149.5 -39t123.5 -39q51 0 96 18.5t71.5 36.5 t30.5 18q23 0 23 -34q0 -76 -89 -140.5t-204 -64.5q-57 0 -151.5 40t-137.5 40t-79.5 -13.5t-59.5 -27t-27 -13.5q-18 0 -18 29z" />
<glyph unicode="&#xc4;" horiz-adv-x="1193" d="M-33 125q0 59 29 59q8 0 20.5 -1t18.5 -1q115 0 190.5 49.5t110.5 104.5q76 117 76 135q0 10 -17 10h-231q-18 0 -19 17q0 14 10.5 29.5t49.5 31.5t98 16l152 3q16 0 28 26q102 211 179 431t77 296q0 4 -1 8t-1 7q-2 8 -2 20q0 55 63.5 72.5t205.5 17.5q84 0 116.5 -18.5 t36.5 -63.5v-12q0 -16 -5 -46t-18.5 -115t-25.5 -204q-2 -14 -17.5 -144t-32 -322.5t-16.5 -303.5q0 -47 2 -65q4 -57 28 -91t24 -42q0 -37 -66.5 -56.5t-122.5 -19.5q-139 0 -145 88q-2 16 -2 57t5 94.5t13 131t13 127.5v6q0 25 -19 24h-194q-18 0 -25 -18 q-115 -252 -226.5 -384t-252.5 -132q-47 0 -77 59.5t-30 118.5zM608 588q0 -8 15 -8h172q14 4 16 12l16 100q58 344 58 494q0 14 -12.5 14t-20.5 -18q-51 -117 -133 -320t-109 -268zM707 1657v14q0 59 39 100t94 41q41 0 69.5 -25.5t34.5 -66.5v-14q0 -57 -40 -97t-95 -40 q-41 0 -69.5 24.5t-32.5 63.5zM1067 1657v14q0 59 39 100t94 41q41 0 69.5 -25.5t35.5 -66.5v-14q0 -57 -40 -97t-96 -40q-41 0 -69.5 24.5t-32.5 63.5z" />
<glyph unicode="&#xc5;" horiz-adv-x="1193" d="M-33 125q0 59 29 59q8 0 20.5 -1t18.5 -1q115 0 190.5 49.5t110.5 104.5q76 117 76 135q0 10 -17 10h-231q-18 0 -19 17q0 14 10.5 29.5t49.5 31.5t98 16l152 3q16 0 28 26q102 211 179 431t77 296q0 4 -1 8t-1 7q-2 8 -2 20q0 55 63.5 72.5t205.5 17.5q84 0 116.5 -18.5 t36.5 -63.5v-12q0 -16 -5 -46t-18.5 -115t-25.5 -204q-2 -14 -17.5 -144t-32 -322.5t-16.5 -303.5q0 -47 2 -65q4 -57 28 -91t24 -42q0 -37 -66.5 -56.5t-122.5 -19.5q-139 0 -145 88q-2 16 -2 57t5 94.5t13 131t13 127.5v6q0 25 -19 24h-194q-18 0 -25 -18 q-115 -252 -226.5 -384t-252.5 -132q-47 0 -77 59.5t-30 118.5zM608 588q0 -8 15 -8h172q14 4 16 12l16 100q58 344 58 494q0 14 -12.5 14t-20.5 -18q-51 -117 -133 -320t-109 -268zM780 1677q0 104 80 182t180 78q84 0 137.5 -47t53.5 -129q0 -102 -80 -181t-178 -79 q-86 2 -139.5 48t-53.5 128zM913 1704q0 -35 22.5 -57.5t59.5 -22.5q39 0 71 34t32 77q0 35 -22.5 56t-59.5 21q-39 0 -71 -32.5t-32 -75.5z" />
<glyph unicode="&#xc6;" horiz-adv-x="1857" d="M-33 98q0 86 37 86q8 0 20.5 -1t18.5 -1q115 0 195.5 49.5t123.5 104.5q92 121 93 137q0 8 -15 8h-231q-16 0 -16 14.5t12 30t52 32.5t103 17l152 3q14 0 31 26q135 223 240.5 444.5t105.5 286.5v13l-2 6q0 70 53 89t182 19q70 0 207 14.5t207 14.5q172 -2 273.5 -37 t101.5 -98q0 -94 -76 -209t-137 -115q-20 0 -21 43q0 12 3 52t3 63q0 195 -165 194q-104 0 -195 -38q-57 -199 -92 -349q-4 -10 -57 -233q326 100 403 100q53 0 63 -30q2 -10 2 -33q0 -102 -57 -185q-35 -51 -51 -51q-20 0 -55 21.5t-93.5 43t-138.5 21.5q-51 0 -102 -8 q-80 -371 -80 -481q0 -41 10 -68h23q141 0 248.5 28t164 65.5t93 76.5t59.5 66.5t39 27.5q27 0 27 -67q-6 -115 -81 -240t-188 -125q-61 0 -199.5 16.5t-228.5 16.5q-61 0 -131 -6q-4 0 -13 -1t-14 -1q-109 0 -108 84q0 41 10 97t35 165t35 154q0 20 -2 25t-13 5h-194 q-20 0 -27 -18q-147 -254 -274 -385t-268 -131q-49 0 -75 47t-26 104zM682 590q0 -10 12 -10h172q14 4 17 12l30 100q117 385 117 496q0 12 -10 12t-23 -18q-51 -92 -105 -193.5t-114.5 -218.5t-93.5 -176q-2 -2 -2 -4z" />
<glyph unicode="&#xc7;" horiz-adv-x="1212" d="M154 401q0 63 13 145.5t46 186t80 204.5t124 198.5t170 172t224 120t281 45.5q119 0 155.5 -23t36.5 -92q0 -94 -75.5 -220t-137.5 -126q-20 0 -20 43q0 18 5 69.5t5 79.5q0 141 -105 142q-131 0 -252.5 -142.5t-193.5 -362.5t-72 -446q0 -322 178 -321q221 0 324 446 q2 14 35 15q55 0 116.5 -36t61.5 -87.5t-48 -126t-125 -147t-190.5 -127t-230.5 -58.5q-31 -61 -31 -70q0 -12 15 -12q2 0 27.5 3t47.5 3q80 0 114 -41t34 -96q0 -115 -76.5 -182.5t-195.5 -67.5q-109 0 -160 54.5t-51 117.5q0 51 26 51q8 0 26.5 -22.5t51.5 -45t78 -22.5 q57 0 88 31t31 70q0 27 -18.5 37t-63.5 10q-6 0 -19.5 -1t-21.5 -1h-4q-33 0 -33 26q0 80 53 160q-324 33 -323 446z" />
<glyph unicode="&#xc8;" horiz-adv-x="1222" d="M72 293q0 80 29.5 163t88 164.5t165 142t241.5 79.5q16 4 16 12q0 10 -12 18q-205 156 -205 304q0 152 149.5 233.5t352.5 81.5q184 0 291.5 -34t107.5 -101q0 -94 -75.5 -209t-137.5 -115q-20 0 -20 43q0 12 3 52t3 63q0 205 -188 205q-84 0 -162 -50.5t-78 -164.5 q0 -152 227 -330q37 -33 37 -49q1 -27 -65 -47q-55 -16 -103.5 -35t-126.5 -62t-132 -94t-95 -133t-41 -176q0 -102 55.5 -165.5t153.5 -63.5q45 0 88 16t96 60t102.5 143.5t82.5 244.5q2 14 34 15q55 0 117 -36t62 -87t-50.5 -128t-129.5 -151.5t-197.5 -128t-237.5 -53.5 q-195 0 -320.5 89t-125.5 284zM610 1802q0 41 49.5 91.5t92.5 50.5q23 0 36 -21q33 -51 71 -107.5t61.5 -89t44 -64.5t30 -53.5t9.5 -35.5q0 -8 -11.5 -23.5t-25.5 -15.5q-49 0 -203 96t-154 172z" />
<glyph unicode="&#xc9;" horiz-adv-x="1222" d="M72 293q0 80 29.5 163t88 164.5t165 142t241.5 79.5q16 4 16 12q0 10 -12 18q-205 156 -205 304q0 152 149.5 233.5t352.5 81.5q184 0 291.5 -34t107.5 -101q0 -94 -75.5 -209t-137.5 -115q-20 0 -20 43q0 12 3 52t3 63q0 205 -188 205q-84 0 -162 -50.5t-78 -164.5 q0 -152 227 -330q37 -33 37 -49q1 -27 -65 -47q-55 -16 -103.5 -35t-126.5 -62t-132 -94t-95 -133t-41 -176q0 -102 55.5 -165.5t153.5 -63.5q45 0 88 16t96 60t102.5 143.5t82.5 244.5q2 14 34 15q55 0 117 -36t62 -87t-50.5 -128t-129.5 -151.5t-197.5 -128t-237.5 -53.5 q-195 0 -320.5 89t-125.5 284zM946 1552q0 63 86 216t176 153q55 0 93 -46t38 -99q0 -12 -4 -22.5t-13 -21t-18.5 -17.5t-26.5 -17t-28.5 -16.5t-34 -18.5t-34.5 -18q-29 -16 -85.5 -48t-85 -47.5t-38.5 -15.5q-25 0 -25 18z" />
<glyph unicode="&#xca;" horiz-adv-x="1222" d="M72 293q0 80 29.5 163t88 164.5t165 142t241.5 79.5q16 4 16 12q0 10 -12 18q-205 156 -205 304q0 152 149.5 233.5t352.5 81.5q184 0 291.5 -34t107.5 -101q0 -94 -75.5 -209t-137.5 -115q-20 0 -20 43q0 12 3 52t3 63q0 205 -188 205q-84 0 -162 -50.5t-78 -164.5 q0 -152 227 -330q37 -33 37 -49q1 -27 -65 -47q-55 -16 -103.5 -35t-126.5 -62t-132 -94t-95 -133t-41 -176q0 -102 55.5 -165.5t153.5 -63.5q45 0 88 16t96 60t102.5 143.5t82.5 244.5q2 14 34 15q55 0 117 -36t62 -87t-50.5 -128t-129.5 -151.5t-197.5 -128t-237.5 -53.5 q-195 0 -320.5 89t-125.5 284zM635 1653q0 12 10 14q92 33 186.5 99.5t156 115.5t85.5 49h2q18 0 33.5 -24.5t31 -60.5t61.5 -90t114 -103q4 -2 4 -11q-6 -31 -59.5 -67.5t-112.5 -36.5q-35 0 -58.5 35t-30.5 77t-14.5 76.5t-17.5 34.5q-14 0 -58 -55t-93.5 -111.5 t-75.5 -56.5q-72 0 -118 41t-46 74z" />
<glyph unicode="&#xcb;" horiz-adv-x="1222" d="M72 293q0 80 29.5 163t88 164.5t165 142t241.5 79.5q16 4 16 12q0 10 -12 18q-205 156 -205 304q0 152 149.5 233.5t352.5 81.5q184 0 291.5 -34t107.5 -101q0 -94 -75.5 -209t-137.5 -115q-20 0 -20 43q0 12 3 52t3 63q0 205 -188 205q-84 0 -162 -50.5t-78 -164.5 q0 -152 227 -330q37 -33 37 -49q1 -27 -65 -47q-55 -16 -103.5 -35t-126.5 -62t-132 -94t-95 -133t-41 -176q0 -102 55.5 -165.5t153.5 -63.5q45 0 88 16t96 60t102.5 143.5t82.5 244.5q2 14 34 15q55 0 117 -36t62 -87t-50.5 -128t-129.5 -151.5t-197.5 -128t-237.5 -53.5 q-195 0 -320.5 89t-125.5 284zM696 1657v14q0 59 39 100t94 41q41 0 70 -25.5t35 -66.5v-14q0 -57 -40 -97t-95 -40q-41 0 -70 24.5t-33 63.5zM1057 1657v14q0 59 39 100t94 41q41 0 69.5 -25.5t34.5 -66.5v-14q0 -57 -40 -97t-95 -40q-41 0 -69.5 24.5t-32.5 63.5z" />
<glyph unicode="&#xcc;" horiz-adv-x="798" d="M213 1069v4q6 115 151.5 243t340.5 128q94 0 144 -45t50 -155.5t-121 -440.5q-223 -598 -223 -717q0 -18 2 -40.5t2 -33.5q0 -47 -207 -47q-39 0 -68.5 16.5t-29.5 39t17.5 80t49 145.5t63.5 171t78 200.5t73 191.5q121 324 120 424q0 98 -34 98q-119 0 -222 -418 q-4 -10 -16 -10q-41 0 -105.5 54.5t-64.5 111.5zM424 1802q0 41 49 91.5t92 50.5q23 0 37 -21q33 -51 71 -107.5t61.5 -89t44 -64.5t29.5 -53.5t9 -35.5q0 -8 -11 -23.5t-26 -15.5q-49 0 -202.5 96t-153.5 172z" />
<glyph unicode="&#xcd;" horiz-adv-x="798" d="M213 1069v4q6 115 151.5 243t340.5 128q94 0 144 -45t50 -155.5t-121 -440.5q-223 -598 -223 -717q0 -18 2 -40.5t2 -33.5q0 -47 -207 -47q-39 0 -68.5 16.5t-29.5 39t17.5 80t49 145.5t63.5 171t78 200.5t73 191.5q121 324 120 424q0 98 -34 98q-119 0 -222 -418 q-4 -10 -16 -10q-41 0 -105.5 54.5t-64.5 111.5zM760 1552q0 63 86 216t176 153q55 0 93 -46t38 -99q0 -12 -4 -22.5t-13.5 -21t-18.5 -17.5t-26.5 -17t-28.5 -16.5t-33.5 -18.5t-35.5 -18q-29 -16 -85 -48t-84.5 -47.5t-39.5 -15.5q-24 0 -24 18z" />
<glyph unicode="&#xce;" horiz-adv-x="798" d="M213 1069v4q6 115 151.5 243t340.5 128q94 0 144 -45t50 -155.5t-121 -440.5q-223 -598 -223 -717q0 -18 2 -40.5t2 -33.5q0 -47 -207 -47q-39 0 -68.5 16.5t-29.5 39t17.5 80t49 145.5t63.5 171t78 200.5t73 191.5q121 324 120 424q0 98 -34 98q-119 0 -222 -418 q-4 -10 -16 -10q-41 0 -105.5 54.5t-64.5 111.5zM428 1653q0 12 10 14q92 33 186.5 99.5t156 115.5t85.5 49h2q18 0 34 -24.5t31 -60.5t61 -90t114 -103q4 -2 4 -11q-6 -31 -59.5 -67.5t-112.5 -36.5q-35 0 -58.5 35t-30.5 77t-14.5 76.5t-17.5 34.5q-14 0 -58 -55 t-93.5 -111.5t-75.5 -56.5q-72 0 -118 41t-46 74z" />
<glyph unicode="&#xcf;" horiz-adv-x="798" d="M213 1069v4q6 115 151.5 243t340.5 128q94 0 144 -45t50 -155.5t-121 -440.5q-223 -598 -223 -717q0 -18 2 -40.5t2 -33.5q0 -47 -207 -47q-39 0 -68.5 16.5t-29.5 39t17.5 80t49 145.5t63.5 171t78 200.5t73 191.5q121 324 120 424q0 98 -34 98q-119 0 -222 -418 q-4 -10 -16 -10q-41 0 -105.5 54.5t-64.5 111.5zM469 1657v14q0 59 39 100t94 41q41 0 69.5 -25.5t35.5 -66.5v-14q0 -57 -40 -97t-96 -40q-41 0 -69.5 24.5t-32.5 63.5zM829 1657v14q0 59 39.5 100t94.5 41q41 0 69.5 -25.5t34.5 -66.5v-14q0 -57 -40 -97t-95 -40 q-41 0 -69.5 24.5t-33.5 63.5z" />
<glyph unicode="&#xd0;" horiz-adv-x="1626" d="M186 842q0 291 223.5 469t563.5 178q74 0 149.5 -9.5t176 -45t175 -94t128 -168t53.5 -254.5q0 -260 -142.5 -482.5t-372 -348.5t-481.5 -126q-227 0 -227 64q0 2 141 395q-188 -4 -270 -14h-12q-23 0 -23 12q0 20 41 48t88 36q121 16 213 20q20 66 33 99 q129 397 129 557q0 6 -1 17t-1 15q0 10 24.5 20.5t78 17.5t122.5 7q41 0 57.5 -6t18.5 -28q0 -55 -180 -596l-31 -93q106 2 289 3q14 0 14 -17q0 -20 -20.5 -41.5t-78.5 -42t-140 -20.5h-29q-20 0 -74 4l-112 -330q0 -29 67 -29q94 0 204 72t203 185.5t155.5 271t62.5 315.5 q0 229 -119 363.5t-369 134.5q-213 0 -350 -128t-137 -323q0 -106 18.5 -196t18.5 -95q0 -27 -33 -26q-55 0 -149.5 63.5t-94.5 145.5z" />
<glyph unicode="&#xd1;" horiz-adv-x="1361" d="M-66 143q0 45 25 45q8 0 23.5 -1t21.5 -1q215 2 297 162q137 272 227 871q6 49 7 77q0 10 -5.5 42t-5.5 55q0 10 18.5 21t60.5 18.5t99 7.5q111 0 123 -41q135 -451 240 -1049q4 -23 18 -22q6 0 13 12q106 334 159.5 520.5t61.5 231.5t8 88q0 61 -43 121.5t-43 72.5 q0 27 41 51.5t117 24.5q156 0 155 -102q0 -45 -60 -198t-163.5 -439.5t-181.5 -579.5q-4 -14 -11.5 -57t-16.5 -67.5t-23 -31.5q-61 -20 -140 -20q-84 0 -90 39q-106 639 -217 1087q-2 20 -16 21q-10 0 -17 -25q-135 -618 -248.5 -873t-285.5 -255q-76 0 -112 63.5 t-36 130.5zM727 1626q0 72 85 130.5t187 58.5q61 0 148.5 -39t124.5 -39q51 0 96 18.5t71.5 36.5t30.5 18q23 0 23 -34q0 -76 -89 -140.5t-204 -64.5q-57 0 -151.5 40t-137.5 40t-79.5 -13.5t-59 -27t-27.5 -13.5q-18 0 -18 29z" />
<glyph unicode="&#xd2;" d="M154 375q0 113 25.5 249t87 287.5t149.5 273.5t228 202.5t308 80.5q170 0 280.5 -103t110.5 -335q0 -115 -26.5 -253t-89 -288.5t-150.5 -272.5t-223 -202t-293 -80q-37 0 -69.5 3.5t-100 27t-115 65.5t-85 132t-37.5 213zM403 246q0 -115 50.5 -168t119.5 -53 q98 0 196.5 131t166.5 314t111 370.5t43 308.5q0 223 -158 223q-109 0 -211.5 -137t-169 -325.5t-107.5 -371.5t-41 -292zM643 1802q0 41 49 91.5t92 50.5q23 0 37 -21q33 -51 71 -107.5t61.5 -89t44 -64.5t29.5 -53.5t9 -35.5q0 -8 -11 -23.5t-26 -15.5q-49 0 -202.5 96 t-153.5 172z" />
<glyph unicode="&#xd3;" d="M154 375q0 113 25.5 249t87 287.5t149.5 273.5t228 202.5t308 80.5q170 0 280.5 -103t110.5 -335q0 -115 -26.5 -253t-89 -288.5t-150.5 -272.5t-223 -202t-293 -80q-37 0 -69.5 3.5t-100 27t-115 65.5t-85 132t-37.5 213zM403 246q0 -115 50.5 -168t119.5 -53 q98 0 196.5 131t166.5 314t111 370.5t43 308.5q0 223 -158 223q-109 0 -211.5 -137t-169 -325.5t-107.5 -371.5t-41 -292zM979 1552q0 63 86 216t176 153q55 0 93 -46t38 -99q0 -12 -4 -22.5t-13 -21t-18.5 -17.5t-27 -17t-28.5 -16.5t-33.5 -18.5t-35.5 -18 q-29 -16 -85 -48t-84.5 -47.5t-38.5 -15.5q-25 0 -25 18z" />
<glyph unicode="&#xd4;" d="M154 375q0 113 25.5 249t87 287.5t149.5 273.5t228 202.5t308 80.5q170 0 280.5 -103t110.5 -335q0 -115 -26.5 -253t-89 -288.5t-150.5 -272.5t-223 -202t-293 -80q-37 0 -69.5 3.5t-100 27t-115 65.5t-85 132t-37.5 213zM403 246q0 -115 50.5 -168t119.5 -53 q98 0 196.5 131t166.5 314t111 370.5t43 308.5q0 223 -158 223q-109 0 -211.5 -137t-169 -325.5t-107.5 -371.5t-41 -292zM668 1653q0 12 10 14q92 33 186 99.5t155.5 115.5t86.5 49h2q18 0 33.5 -24.5t31 -60.5t61.5 -90t114 -103q4 -2 4 -11q-6 -31 -59.5 -67.5 t-112.5 -36.5q-35 0 -58.5 35t-31 77t-14.5 76.5t-17 34.5q-14 0 -58.5 -55t-93.5 -111.5t-76 -56.5q-72 0 -117.5 41t-45.5 74z" />
<glyph unicode="&#xd5;" d="M154 375q0 113 25.5 249t87 287.5t149.5 273.5t228 202.5t308 80.5q170 0 280.5 -103t110.5 -335q0 -115 -26.5 -253t-89 -288.5t-150.5 -272.5t-223 -202t-293 -80q-37 0 -69.5 3.5t-100 27t-115 65.5t-85 132t-37.5 213zM403 246q0 -115 50.5 -168t119.5 -53 q98 0 196.5 131t166.5 314t111 370.5t43 308.5q0 223 -158 223q-109 0 -211.5 -137t-169 -325.5t-107.5 -371.5t-41 -292zM659 1626q0 72 85 130.5t188 58.5q59 0 147 -39t125 -39q51 0 96.5 18.5t72 36.5t30.5 18q23 0 22 -34q0 -76 -89 -140.5t-203 -64.5q-57 0 -151.5 40 t-137.5 40t-80 -13.5t-59.5 -27t-26.5 -13.5q-18 0 -19 29z" />
<glyph unicode="&#xd6;" d="M154 375q0 113 25.5 249t87 287.5t149.5 273.5t228 202.5t308 80.5q170 0 280.5 -103t110.5 -335q0 -115 -26.5 -253t-89 -288.5t-150.5 -272.5t-223 -202t-293 -80q-37 0 -69.5 3.5t-100 27t-115 65.5t-85 132t-37.5 213zM403 246q0 -115 50.5 -168t119.5 -53 q98 0 196.5 131t166.5 314t111 370.5t43 308.5q0 223 -158 223q-109 0 -211.5 -137t-169 -325.5t-107.5 -371.5t-41 -292zM729 1657v14q0 59 39 100t94 41q41 0 70 -25.5t35 -66.5v-14q0 -57 -40 -97t-96 -40q-41 0 -69.5 24.5t-32.5 63.5zM1090 1657v14q0 59 39 100t94 41 q41 0 69.5 -25.5t34.5 -66.5v-14q0 -57 -40 -97t-95 -40q-41 0 -69.5 24.5t-32.5 63.5z" />
<glyph unicode="&#xd7;" horiz-adv-x="1017" d="M111 324q0 12 18 28q272 209 346 271l-227 270q-12 16 -12 27q0 39 124 38q57 0 80 -26l168 -203q51 45 254 209q25 23 99 23q63 0 63 -31t-37 -66q-123 -104 -295 -237l226 -273q10 -14 10 -22q0 -18 -27 -28.5t-57 -10.5h-31q-57 0 -76 20l-180 213q-90 -71 -223 -184 q-70 -57 -135 -57q-88 0 -88 39z" />
<glyph unicode="&#xd8;" d="M154 375q0 113 25.5 249t87 287.5t149.5 273.5t228 202.5t308 80.5q121 0 213 -53q47 49 95 49q12 0 36 -8q18 -14 18.5 -28.5t-11.5 -34.5l-41 -62q82 -111 81 -301q0 -115 -26.5 -253t-89 -288.5t-150.5 -272.5t-223 -202t-293 -80q-111 0 -201 41q-49 -59 -102 -59 q-29 0 -43 10q-14 8 -14 22.5t10 28.5l47 72q-104 115 -104 326zM403 268l666 1008q-37 96 -137 96q-104 0 -205.5 -130t-168 -313.5t-108.5 -363.5t-47 -297zM440 92q45 -67 133 -67q119 0 236 189t186.5 423.5t87.5 425.5z" />
<glyph unicode="&#xd9;" horiz-adv-x="1482" d="M213 1069v4q6 115 151.5 243t340.5 128q94 0 144 -45t50 -156q0 -154 -102 -440q-23 -66 -78 -205t-81 -218t-26 -130v-8q4 -72 45 -72q59 0 165 122t206 298t146 323q102 332 102 437q0 6 -1 15t-1 13q0 10 24.5 20.5t78 17.5t122.5 7q41 0 57.5 -6t18.5 -28v-5 q0 -39 -53.5 -221t-106.5 -329q-154 -440 -153 -668q0 -59 35.5 -94t35.5 -47q0 -18 -78.5 -42t-132.5 -24q-135 0 -135 131q0 74 88 391v6q0 10 -6 11q-4 -1 -10 -11q-299 -535 -535 -534q-180 0 -180 240q0 145 197 616q115 285 114 424q0 98 -34 98q-119 0 -222 -418 q-4 -10 -16 -10q-41 0 -105.5 54.5t-64.5 111.5zM723 1802q0 41 49 91.5t92 50.5q23 0 37 -21q33 -51 71 -107.5t61.5 -89t44 -64.5t29.5 -53.5t9 -35.5q0 -8 -11 -23.5t-26 -15.5q-49 0 -202.5 96t-153.5 172z" />
<glyph unicode="&#xda;" horiz-adv-x="1482" d="M213 1069v4q6 115 151.5 243t340.5 128q94 0 144 -45t50 -156q0 -154 -102 -440q-23 -66 -78 -205t-81 -218t-26 -130v-8q4 -72 45 -72q59 0 165 122t206 298t146 323q102 332 102 437q0 6 -1 15t-1 13q0 10 24.5 20.5t78 17.5t122.5 7q41 0 57.5 -6t18.5 -28v-5 q0 -39 -53.5 -221t-106.5 -329q-154 -440 -153 -668q0 -59 35.5 -94t35.5 -47q0 -18 -78.5 -42t-132.5 -24q-135 0 -135 131q0 74 88 391v6q0 10 -6 11q-4 -1 -10 -11q-299 -535 -535 -534q-180 0 -180 240q0 145 197 616q115 285 114 424q0 98 -34 98q-119 0 -222 -418 q-4 -10 -16 -10q-41 0 -105.5 54.5t-64.5 111.5zM1059 1552q0 63 86 216t176 153q55 0 93 -46t38 -99q0 -12 -4 -22.5t-13.5 -21t-18.5 -17.5t-26.5 -17t-28.5 -16.5t-33.5 -18.5t-35.5 -18q-29 -16 -85 -48t-84.5 -47.5t-39.5 -15.5q-24 0 -24 18z" />
<glyph unicode="&#xdb;" horiz-adv-x="1482" d="M213 1069v4q6 115 151.5 243t340.5 128q94 0 144 -45t50 -156q0 -154 -102 -440q-23 -66 -78 -205t-81 -218t-26 -130v-8q4 -72 45 -72q59 0 165 122t206 298t146 323q102 332 102 437q0 6 -1 15t-1 13q0 10 24.5 20.5t78 17.5t122.5 7q41 0 57.5 -6t18.5 -28v-5 q0 -39 -53.5 -221t-106.5 -329q-154 -440 -153 -668q0 -59 35.5 -94t35.5 -47q0 -18 -78.5 -42t-132.5 -24q-135 0 -135 131q0 74 88 391v6q0 10 -6 11q-4 -1 -10 -11q-299 -535 -535 -534q-180 0 -180 240q0 145 197 616q115 285 114 424q0 98 -34 98q-119 0 -222 -418 q-4 -10 -16 -10q-41 0 -105.5 54.5t-64.5 111.5zM748 1653q0 12 10 14q92 33 186 99.5t155.5 115.5t86.5 49h2q18 0 33.5 -24.5t31 -60.5t61.5 -90t113 -103q4 -2 5 -11q-6 -31 -59.5 -67.5t-112.5 -36.5q-35 0 -58.5 35t-31 77t-14.5 76.5t-17 34.5q-14 0 -58.5 -55 t-93.5 -111.5t-76 -56.5q-72 0 -117.5 41t-45.5 74z" />
<glyph unicode="&#xdc;" horiz-adv-x="1482" d="M213 1069v4q6 115 151.5 243t340.5 128q94 0 144 -45t50 -156q0 -154 -102 -440q-23 -66 -78 -205t-81 -218t-26 -130v-8q4 -72 45 -72q59 0 165 122t206 298t146 323q102 332 102 437q0 6 -1 15t-1 13q0 10 24.5 20.5t78 17.5t122.5 7q41 0 57.5 -6t18.5 -28v-5 q0 -39 -53.5 -221t-106.5 -329q-154 -440 -153 -668q0 -59 35.5 -94t35.5 -47q0 -18 -78.5 -42t-132.5 -24q-135 0 -135 131q0 74 88 391v6q0 10 -6 11q-4 -1 -10 -11q-299 -535 -535 -534q-180 0 -180 240q0 145 197 616q115 285 114 424q0 98 -34 98q-119 0 -222 -418 q-4 -10 -16 -10q-41 0 -105.5 54.5t-64.5 111.5zM809 1657v14q0 59 39 100t94 41q41 0 69.5 -25.5t35.5 -66.5v-14q0 -57 -40 -97t-96 -40q-41 0 -69.5 24.5t-32.5 63.5zM1169 1657v14q0 59 39.5 100t94.5 41q41 0 69.5 -25.5t34.5 -66.5v-14q0 -57 -40 -97t-95 -40 q-41 0 -69.5 24.5t-33.5 63.5z" />
<glyph unicode="&#xdd;" horiz-adv-x="1388" d="M213 1069v4q6 115 151.5 243t340.5 128q96 0 143 -37t47 -141q0 -152 -104 -467q-8 -25 -9 -47q0 -61 70 -62q76 0 185.5 111.5t156.5 257.5q59 184 59 319q0 10 25 20.5t77 17.5t124 7q41 0 57 -6t18 -28v-5q0 -39 -159 -550q-86 -274 -171 -460t-179.5 -292.5 t-189.5 -150.5t-214 -44q-166 0 -273.5 97.5t-107.5 236.5q0 86 97.5 137.5t193.5 51.5q51 0 51 -21q0 -8 -49 -85t-49 -142q0 -170 166 -170q96 0 165.5 77.5t108.5 174t121 346.5q12 39 19.5 60.5t19.5 57t22 66.5q2 4 2 8q0 8 -6 8.5t-12 -10.5q-125 -152 -237.5 -227.5 t-192.5 -75.5t-126 47t-46 133q0 68 31 154q113 322 112 438q0 82 -30 82q-119 0 -222 -418q-4 -10 -16 -10q-41 0 -105.5 54.5t-64.5 111.5zM1022 1552q0 63 86 216t176 153q55 0 93 -46t38 -99q0 -12 -4 -22.5t-13 -21t-18.5 -17.5t-27 -17t-28.5 -16.5t-33.5 -18.5 t-35.5 -18q-29 -16 -85 -48t-84.5 -47.5t-38.5 -15.5q-25 0 -25 18z" />
<glyph unicode="&#xde;" horiz-adv-x="1339" d="M213 1069v4q6 115 151.5 243t340.5 128q94 0 144 -45t50 -156q0 -57 -27 -158q57 12 125 13q195 0 294.5 -81t99.5 -194q0 -209 -167 -356.5t-462 -147.5q-82 0 -150 11q-57 -184 -57 -244q0 -18 2 -41t2 -33q0 -47 -207 -47q-39 0 -68.5 16.5t-29.5 39t17.5 80t49 145.5 t63.5 171t78 200.5t73 191.5q121 324 120 424q0 98 -34 98q-119 0 -222 -418q-4 -10 -16 -10q-41 0 -105.5 54.5t-64.5 111.5zM639 416q54 -4 74 -4q203 0 318.5 103t115.5 245q0 215 -297 248q-43 -129 -72 -205q-74 -201 -139 -387z" />
<glyph unicode="&#xdf;" horiz-adv-x="968" d="M4 18q0 25 111 379q51 160 84.5 262.5t73.5 210t69 169t65.5 124t70.5 93t78 56t91 34t107 8.5q227 0 227 -201q0 -113 -64.5 -198t-140.5 -103q129 -156 129 -414q0 -178 -112.5 -322.5t-272.5 -144.5q-72 0 -119 38t-47 112q0 76 44 163t75 87q27 0 37 -79t14 -159 t19 -80q25 0 57.5 52.5t60 148.5t27.5 197q0 102 -30.5 189t-61.5 139t-31 69q0 29 27 29h16q55 0 117.5 111.5t62.5 201.5q0 100 -67 100q-47 0 -105.5 -75.5t-109.5 -227.5q-63 -184 -155.5 -514t-92.5 -416t-147 -86h-15q-92 0 -92 47z" />
<glyph unicode="&#xe0;" horiz-adv-x="925" d="M41 207q0 264 160.5 498.5t359.5 234.5q72 0 125 -24.5t59 -24.5q2 0 24 7t51.5 15.5t53.5 8.5q53 0 54 -33q0 -25 -113 -455q-86 -319 -86 -340q0 -12 6 -37q8 -20 8 -32q0 -18 -22.5 -31.5t-55 -19t-50 -6.5t-27.5 -1q-92 0 -92 72q0 25 16 79t38.5 117.5t27.5 73.5v2 l2 4q0 10 -11 11q-6 0 -10 -9q-76 -158 -164 -252t-174 -94q-180 0 -180 236zM279 244q0 -45 11 -61.5t42 -16.5q55 0 142 148.5t147.5 307t60.5 203.5v2q-12 39 -59 39q-76 0 -160 -116.5t-134 -263t-50 -242.5zM446 1305q0 41 49.5 91t92.5 50q23 0 37 -21 q166 -258 184 -309q10 -25 10 -41q0 -8 -11 -23.5t-26 -15.5q-47 0 -191.5 96.5t-144.5 172.5z" />
<glyph unicode="&#xe1;" horiz-adv-x="925" d="M41 207q0 264 160.5 498.5t359.5 234.5q72 0 125 -24.5t59 -24.5q2 0 24 7t51.5 15.5t53.5 8.5q53 0 54 -33q0 -25 -113 -455q-86 -319 -86 -340q0 -12 6 -37q8 -20 8 -32q0 -18 -22.5 -31.5t-55 -19t-50 -6.5t-27.5 -1q-92 0 -92 72q0 25 16 79t38.5 117.5t27.5 73.5v2 l2 4q0 10 -11 11q-6 0 -10 -9q-76 -158 -164 -252t-174 -94q-180 0 -180 236zM279 244q0 -45 11 -61.5t42 -16.5q55 0 142 148.5t147.5 307t60.5 203.5v2q-12 39 -59 39q-76 0 -160 -116.5t-134 -263t-50 -242.5zM680 1061q0 63 79 216t163 153q47 0 78.5 -46.5t31.5 -99.5 q0 -27 -24.5 -51.5t-48 -38.5t-78.5 -43q-33 -18 -75 -46t-67.5 -45.5t-33.5 -17.5q-25 1 -25 19z" />
<glyph unicode="&#xe2;" horiz-adv-x="925" d="M41 207q0 264 160.5 498.5t359.5 234.5q72 0 125 -24.5t59 -24.5q2 0 24 7t51.5 15.5t53.5 8.5q53 0 54 -33q0 -25 -113 -455q-86 -319 -86 -340q0 -12 6 -37q8 -20 8 -32q0 -18 -22.5 -31.5t-55 -19t-50 -6.5t-27.5 -1q-92 0 -92 72q0 25 16 79t38.5 117.5t27.5 73.5v2 l2 4q0 10 -11 11q-6 0 -10 -9q-76 -158 -164 -252t-174 -94q-180 0 -180 236zM279 244q0 -45 11 -61.5t42 -16.5q55 0 142 148.5t147.5 307t60.5 203.5v2q-12 39 -59 39q-76 0 -160 -116.5t-134 -263t-50 -242.5zM426 1169q0 10 10 13q76 27 154 88t128 106t73 45 q18 0 32.5 -32.5t54.5 -96t105 -123.5q4 -2 4 -10q-6 -29 -54.5 -61.5t-103.5 -32.5q-39 0 -55 101.5t-20 101.5q-12 0 -82 -101.5t-97 -101.5q-66 0 -107.5 37t-41.5 67z" />
<glyph unicode="&#xe3;" horiz-adv-x="925" d="M41 207q0 264 160.5 498.5t359.5 234.5q72 0 125 -24.5t59 -24.5q2 0 24 7t51.5 15.5t53.5 8.5q53 0 54 -33q0 -25 -113 -455q-86 -319 -86 -340q0 -12 6 -37q8 -20 8 -32q0 -18 -22.5 -31.5t-55 -19t-50 -6.5t-27.5 -1q-92 0 -92 72q0 25 16 79t38.5 117.5t27.5 73.5v2 l2 4q0 10 -11 11q-6 0 -10 -9q-76 -158 -164 -252t-174 -94q-180 0 -180 236zM279 244q0 -45 11 -61.5t42 -16.5q55 0 142 148.5t147.5 307t60.5 203.5v2q-12 39 -59 39q-76 0 -160 -116.5t-134 -263t-50 -242.5zM356 1116q0 78 81 142.5t179 64.5q47 0 115.5 -39t95.5 -39 q39 0 75 18.5t57.5 37t25.5 18.5q23 0 23 -21q0 -82 -77 -150.5t-175 -68.5q-45 0 -119 40t-109 40q-39 0 -73.5 -16.5t-55 -33.5t-24.5 -17q-18 0 -19 24z" />
<glyph unicode="&#xe4;" horiz-adv-x="925" d="M41 207q0 264 160.5 498.5t359.5 234.5q72 0 125 -24.5t59 -24.5q2 0 24 7t51.5 15.5t53.5 8.5q53 0 54 -33q0 -25 -113 -455q-86 -319 -86 -340q0 -12 6 -37q8 -20 8 -32q0 -18 -22.5 -31.5t-55 -19t-50 -6.5t-27.5 -1q-92 0 -92 72q0 25 16 79t38.5 117.5t27.5 73.5v2 l2 4q0 10 -11 11q-6 0 -10 -9q-76 -158 -164 -252t-174 -94q-180 0 -180 236zM279 244q0 -45 11 -61.5t42 -16.5q55 0 142 148.5t147.5 307t60.5 203.5v2q-12 39 -59 39q-76 0 -160 -116.5t-134 -263t-50 -242.5zM438 1182q0 47 36 82.5t81 35.5q35 0 60.5 -22.5t29.5 -56.5 q0 -4 1 -8.5t1 -8.5q0 -49 -34.5 -85t-82.5 -36q-37 0 -61.5 23.5t-28.5 58.5q0 2 -1 8.5t-1 8.5zM748 1182q0 47 35.5 82.5t80.5 35.5q35 0 60.5 -22.5t29.5 -56.5q0 -4 1 -8.5t1 -8.5q0 -49 -34.5 -85t-81.5 -36q-37 0 -61.5 23.5t-28.5 58.5q0 2 -1 8.5t-1 8.5z" />
<glyph unicode="&#xe5;" horiz-adv-x="925" d="M41 207q0 264 160.5 498.5t359.5 234.5q72 0 125 -24.5t59 -24.5q2 0 24 7t51.5 15.5t53.5 8.5q53 0 54 -33q0 -25 -113 -455q-86 -319 -86 -340q0 -12 6 -37q8 -20 8 -32q0 -18 -22.5 -31.5t-55 -19t-50 -6.5t-27.5 -1q-92 0 -92 72q0 25 16 79t38.5 117.5t27.5 73.5v2 l2 4q0 10 -11 11q-6 0 -10 -9q-76 -158 -164 -252t-174 -94q-180 0 -180 236zM279 244q0 -45 11 -61.5t42 -16.5q55 0 142 148.5t147.5 307t60.5 203.5v2q-12 39 -59 39q-76 0 -160 -116.5t-134 -263t-50 -242.5zM504 1165q0 104 78 181t178 77q86 0 139 -46t53 -128 q0 -102 -79.5 -180t-176.5 -78q-88 2 -140 47t-52 127zM635 1192q0 -35 22.5 -57.5t59.5 -22.5q39 0 70.5 34t31.5 77q0 35 -22.5 56t-59.5 21q-39 0 -70.5 -32.5t-31.5 -75.5z" />
<glyph unicode="&#xe6;" horiz-adv-x="1288" d="M-10 152q0 55 16.5 119.5t56 142.5t129 129t214.5 51h24q102 0 102 -45q0 -14 -13 -25.5t-32 -11.5q-76 0 -129 -37t-76.5 -95t-31.5 -104.5t-8 -89.5q0 -27 8 -42t16 -17t23 -2q53 0 132 110.5t135 248t56 214.5q0 63 -29.5 89t-97.5 26q-49 0 -106 -25.5t-98 -51 t-48 -25.5q-26 -1 -26 24q0 72 110.5 144.5t237.5 72.5q76 0 146.5 -31.5t76.5 -31.5q20 0 106.5 31.5t190.5 31.5q233 0 234 -194q0 -139 -133.5 -234.5t-303.5 -95.5q-29 0 -28 25q0 14 10 26.5t27 12.5q76 0 135 66.5t83.5 141t24.5 130t-41 55.5q-14 0 -27.5 -2 t-47 -22.5t-63.5 -57.5t-68.5 -114t-71.5 -183q-10 -31 -27.5 -123t-17.5 -127q0 -162 139 -162q51 0 106.5 30t93.5 59.5t50 29.5q14 0 14 -18q0 -63 -100 -150.5t-260 -87.5q-123 0 -203 64.5t-80 197.5v8q0 14 -8 15q-6 0 -10 -9q-141 -268 -355 -268q-158 0 -157 187z " />
<glyph unicode="&#xe7;" horiz-adv-x="776" d="M41 248q0 147 63.5 302t193.5 268.5t294 113.5q209 0 209 -109q0 -86 -42 -174t-100 -88q-27 0 -27.5 74t-10 148.5t-54.5 74.5q-63 0 -129.5 -95t-107.5 -234.5t-41 -266.5q0 -162 110 -162q61 0 118.5 29t94.5 58.5t50 29.5q14 0 14 -18q0 -63 -100.5 -150.5 t-260.5 -87.5h-16q-10 -41 -10 -49q0 -12 14 -12q2 0 27.5 3t48.5 3q74 0 104.5 -40t30.5 -91q0 -92 -70.5 -147.5t-179 -55.5t-160 54.5t-51.5 115.5q0 51 27 51q8 0 26.5 -22.5t56.5 -45t89 -22.5q45 0 71.5 17.5t26.5 39.5q0 47 -84 47q-6 0 -21.5 -1t-23.5 -1h-4 q-33 0 -33 27q0 68 41 139q-184 45 -184 277z" />
<glyph unicode="&#xe8;" horiz-adv-x="815" d="M41 264q0 162 73.5 320.5t204.5 263t281 104.5q236 0 236 -194q0 -139 -133.5 -234.5t-303.5 -95.5q-29 0 -28 25q0 14 10 26.5t27 12.5q76 0 135 66.5t83.5 141t24.5 130t-41 55.5q-14 0 -27.5 -2t-47 -22.5t-63.5 -57.5t-68.5 -114t-71.5 -183q-10 -31 -27.5 -123 t-17.5 -127q0 -162 139 -162q51 0 106.5 30t93.5 59.5t50 29.5q14 0 14 -18q0 -63 -100.5 -150.5t-259.5 -87.5q-129 0 -209 74.5t-80 232.5zM389 1305q0 41 49 91t92 50q23 0 37 -21q166 -258 185 -309q10 -25 10 -41q0 -8 -11.5 -23.5t-25.5 -15.5q-47 0 -191.5 96.5 t-144.5 172.5z" />
<glyph unicode="&#xe9;" horiz-adv-x="815" d="M41 264q0 162 73.5 320.5t204.5 263t281 104.5q236 0 236 -194q0 -139 -133.5 -234.5t-303.5 -95.5q-29 0 -28 25q0 14 10 26.5t27 12.5q76 0 135 66.5t83.5 141t24.5 130t-41 55.5q-14 0 -27.5 -2t-47 -22.5t-63.5 -57.5t-68.5 -114t-71.5 -183q-10 -31 -27.5 -123 t-17.5 -127q0 -162 139 -162q51 0 106.5 30t93.5 59.5t50 29.5q14 0 14 -18q0 -63 -100.5 -150.5t-259.5 -87.5q-129 0 -209 74.5t-80 232.5zM623 1061q0 63 78.5 216t162.5 153q47 0 79 -46.5t32 -99.5q0 -27 -24.5 -51.5t-48 -38.5t-79.5 -43q-33 -18 -74.5 -46 t-67.5 -45.5t-34 -17.5q-24 1 -24 19z" />
<glyph unicode="&#xea;" horiz-adv-x="815" d="M41 264q0 162 73.5 320.5t204.5 263t281 104.5q236 0 236 -194q0 -139 -133.5 -234.5t-303.5 -95.5q-29 0 -28 25q0 14 10 26.5t27 12.5q76 0 135 66.5t83.5 141t24.5 130t-41 55.5q-14 0 -27.5 -2t-47 -22.5t-63.5 -57.5t-68.5 -114t-71.5 -183q-10 -31 -27.5 -123 t-17.5 -127q0 -162 139 -162q51 0 106.5 30t93.5 59.5t50 29.5q14 0 14 -18q0 -63 -100.5 -150.5t-259.5 -87.5q-129 0 -209 74.5t-80 232.5zM369 1169q0 10 10 13q76 27 153.5 88t128 106t72.5 45q18 0 32.5 -32.5t54.5 -96t106 -123.5q4 -2 4 -10q-6 -29 -54.5 -61.5 t-103.5 -32.5q-39 0 -55.5 101.5t-20.5 101.5q-12 0 -81.5 -101.5t-96.5 -101.5q-66 0 -107.5 37t-41.5 67z" />
<glyph unicode="&#xeb;" horiz-adv-x="815" d="M41 264q0 162 73.5 320.5t204.5 263t281 104.5q236 0 236 -194q0 -139 -133.5 -234.5t-303.5 -95.5q-29 0 -28 25q0 14 10 26.5t27 12.5q76 0 135 66.5t83.5 141t24.5 130t-41 55.5q-14 0 -27.5 -2t-47 -22.5t-63.5 -57.5t-68.5 -114t-71.5 -183q-10 -31 -27.5 -123 t-17.5 -127q0 -162 139 -162q51 0 106.5 30t93.5 59.5t50 29.5q14 0 14 -18q0 -63 -100.5 -150.5t-259.5 -87.5q-129 0 -209 74.5t-80 232.5zM381 1182q0 47 36 82.5t81 35.5q35 0 60.5 -22.5t29.5 -56.5q0 -4 1 -8.5t1 -8.5q0 -49 -35 -85t-82 -36q-37 0 -61.5 23.5 t-28.5 58.5q0 2 -1 8.5t-1 8.5zM690 1182q0 47 36 82.5t81 35.5q35 0 60.5 -22.5t29.5 -56.5q0 -4 1 -8.5t1 -8.5q0 -49 -35 -85t-82 -36q-37 0 -61.5 23.5t-28.5 58.5q0 2 -1 8.5t-1 8.5z" />
<glyph unicode="&#xec;" horiz-adv-x="505" d="M23 18q0 14 100 334q41 127 78 285t37 197q0 10 -1 27.5t-1 25.5q0 61 135 61q113 0 112 -59v-15q0 -29 -17 -91t-49 -163.5t-48 -162.5q-82 -295 -82 -398q0 -92 -137 -92h-9q-119 0 -118 51zM125 1305q0 41 49 91t92 50q23 0 37 -21q166 -258 184 -309q10 -25 11 -41 q0 -8 -11.5 -23.5t-25.5 -15.5q-47 0 -191.5 96.5t-144.5 172.5z" />
<glyph unicode="&#xed;" horiz-adv-x="505" d="M23 18q0 14 100 334q41 127 78 285t37 197q0 10 -1 27.5t-1 25.5q0 61 135 61q113 0 112 -59v-15q0 -29 -17 -91t-49 -163.5t-48 -162.5q-82 -295 -82 -398q0 -92 -137 -92h-9q-119 0 -118 51zM358 1061q0 63 79 216t163 153q47 0 79 -46.5t32 -99.5q0 -27 -24.5 -51.5 t-48.5 -38.5t-79 -43q-33 -18 -75 -46t-67.5 -45.5t-33.5 -17.5q-25 1 -25 19z" />
<glyph unicode="&#xee;" horiz-adv-x="505" d="M23 18q0 14 100 334q41 127 78 285t37 197q0 10 -1 27.5t-1 25.5q0 61 135 61q113 0 112 -59v-15q0 -29 -17 -91t-49 -163.5t-48 -162.5q-82 -295 -82 -398q0 -92 -137 -92h-9q-119 0 -118 51zM104 1169q0 10 11 13q76 27 153.5 88t127.5 106t73 45q18 0 32.5 -32.5 t54.5 -96t106 -123.5q4 -2 4 -10q-6 -29 -54.5 -61.5t-103.5 -32.5q-39 0 -55.5 101.5t-20.5 101.5q-12 0 -81.5 -101.5t-96.5 -101.5q-66 0 -108 37t-42 67z" />
<glyph unicode="&#xef;" horiz-adv-x="505" d="M23 18q0 14 100 334q41 127 78 285t37 197q0 10 -1 27.5t-1 25.5q0 61 135 61q113 0 112 -59v-15q0 -29 -17 -91t-49 -163.5t-48 -162.5q-82 -295 -82 -398q0 -92 -137 -92h-9q-119 0 -118 51zM137 1182q0 47 36 82.5t81 35.5q35 0 60.5 -22.5t29.5 -56.5q0 -4 1 -8.5 t1 -8.5q0 -49 -35 -85t-82 -36q-37 0 -61.5 23.5t-28.5 58.5q0 2 -1 8.5t-1 8.5zM446 1182q0 47 36 82.5t81 35.5q35 0 60.5 -22.5t29.5 -56.5q0 -4 1 -8.5t1 -8.5q0 -49 -34.5 -85t-81.5 -36q-37 0 -61.5 23.5t-28.5 58.5q0 2 -1.5 8.5t-1.5 8.5z" />
<glyph unicode="&#xf0;" horiz-adv-x="894" d="M49 299q0 127 56.5 268.5t166 246t234.5 104.5q41 0 91 -23t50 -70q0 -25 -29 -24q-8 0 -23 8t-32 8q-88 0 -177 -175t-89 -339q0 -219 84 -219q96 0 204.5 190.5t108.5 470.5q0 233 -86 396q-125 -41 -225 -101q-6 -4 -14 -4q-16 0 -17 23q0 27 18.5 61.5t49.5 50.5 q61 35 125 60q-47 55 -108.5 96t-97.5 59.5t-36 28.5q0 18 39 32.5t104 14.5q70 0 161 -34.5t161 -120.5q63 25 129 57q41 20 61 20q23 0 23 -20q0 -25 -26.5 -60.5t-57.5 -50.5l-74 -32q64 -128 64 -310q0 -217 -56.5 -403t-144.5 -302t-187.5 -180.5t-189.5 -64.5 q-125 0 -192.5 90t-67.5 248z" />
<glyph unicode="&#xf1;" horiz-adv-x="995" d="M4 18q0 51 111 379q113 334 112 428q0 10 -1 27.5t-1 26.5q0 63 135 63q57 0 87 -11t30 -48t-16.5 -101.5t-33.5 -118t-44 -129t-33 -96.5v-6q0 -10 6 -10q8 0 13 10q57 111 103 188.5t106.5 157.5t125 122t130.5 42q145 0 145 -121q0 -55 -84 -315q-4 -12 -10 -35 q-86 -260 -94 -387q-2 -27 -3 -51q0 -33 -46 -46.5t-78 -13.5q-129 0 -129 76q0 57 94 322.5t94 318.5q0 33 -18 33q-37 0 -87 -57q-100 -109 -190 -259.5t-135 -265.5q-39 -96 -80 -133t-117 -37q-92 0 -92 47zM346 1116q0 78 81 142.5t179 64.5q47 0 115.5 -39t95.5 -39 q39 0 75 18.5t57.5 37t25.5 18.5q23 0 22 -21q0 -82 -76.5 -150.5t-175.5 -68.5q-45 0 -118.5 40t-108.5 40q-39 0 -73.5 -16.5t-55 -33.5t-24.5 -17q-18 0 -19 24z" />
<glyph unicode="&#xf2;" horiz-adv-x="913" d="M47 299q0 94 35 202.5t99.5 210t174 169t240.5 67.5q53 0 116.5 -18.5t63.5 -65.5q0 -27 -28 -26q-4 0 -27 8t-47 8q-129 0 -254 -185.5t-125 -377.5q0 -213 125 -213q74 0 146.5 98t72.5 244q0 104 -27 158q-8 16 -22.5 33.5t-22.5 34t-8 42.5q0 37 33 72t84 35 q29 0 70.5 -27t70.5 -27q43 0 96.5 38t57.5 38q14 0 14 -16v-2q0 -66 -52 -113t-120 -63q4 -41 4 -74q0 -131 -46 -246t-116.5 -187.5t-152.5 -113.5t-158 -41q-156 0 -226.5 95.5t-70.5 242.5zM424 1305q0 41 49 91t92 50q23 0 37 -21q166 -258 184 -309q10 -25 11 -41 q0 -8 -11.5 -23.5t-25.5 -15.5q-47 0 -191.5 96.5t-144.5 172.5z" />
<glyph unicode="&#xf3;" horiz-adv-x="913" d="M47 299q0 94 35 202.5t99.5 210t174 169t240.5 67.5q53 0 116.5 -18.5t63.5 -65.5q0 -27 -28 -26q-4 0 -27 8t-47 8q-129 0 -254 -185.5t-125 -377.5q0 -213 125 -213q74 0 146.5 98t72.5 244q0 104 -27 158q-8 16 -22.5 33.5t-22.5 34t-8 42.5q0 37 33 72t84 35 q29 0 70.5 -27t70.5 -27q43 0 96.5 38t57.5 38q14 0 14 -16v-2q0 -66 -52 -113t-120 -63q4 -41 4 -74q0 -131 -46 -246t-116.5 -187.5t-152.5 -113.5t-158 -41q-156 0 -226.5 95.5t-70.5 242.5zM657 1061q0 63 79 216t163 153q47 0 79 -46.5t32 -99.5q0 -27 -24.5 -51.5 t-48.5 -38.5t-79 -43q-33 -18 -75 -46t-67.5 -45.5t-33.5 -17.5q-25 1 -25 19z" />
<glyph unicode="&#xf4;" horiz-adv-x="913" d="M47 299q0 94 35 202.5t99.5 210t174 169t240.5 67.5q53 0 116.5 -18.5t63.5 -65.5q0 -27 -28 -26q-4 0 -27 8t-47 8q-129 0 -254 -185.5t-125 -377.5q0 -213 125 -213q74 0 146.5 98t72.5 244q0 104 -27 158q-8 16 -22.5 33.5t-22.5 34t-8 42.5q0 37 33 72t84 35 q29 0 70.5 -27t70.5 -27q43 0 96.5 38t57.5 38q14 0 14 -16v-2q0 -66 -52 -113t-120 -63q4 -41 4 -74q0 -131 -46 -246t-116.5 -187.5t-152.5 -113.5t-158 -41q-156 0 -226.5 95.5t-70.5 242.5zM403 1169q0 10 11 13q76 27 153.5 88t127.5 106t73 45q18 0 32.5 -32.5 t54.5 -96t106 -123.5q4 -2 4 -10q-6 -29 -54.5 -61.5t-103.5 -32.5q-39 0 -55.5 101.5t-20.5 101.5q-12 0 -81.5 -101.5t-96.5 -101.5q-66 0 -108 37t-42 67z" />
<glyph unicode="&#xf5;" horiz-adv-x="913" d="M47 299q0 94 35 202.5t99.5 210t174 169t240.5 67.5q53 0 116.5 -18.5t63.5 -65.5q0 -27 -28 -26q-4 0 -27 8t-47 8q-129 0 -254 -185.5t-125 -377.5q0 -213 125 -213q74 0 146.5 98t72.5 244q0 104 -27 158q-8 16 -22.5 33.5t-22.5 34t-8 42.5q0 37 33 72t84 35 q29 0 70.5 -27t70.5 -27q43 0 96.5 38t57.5 38q14 0 14 -16v-2q0 -66 -52 -113t-120 -63q4 -41 4 -74q0 -131 -46 -246t-116.5 -187.5t-152.5 -113.5t-158 -41q-156 0 -226.5 95.5t-70.5 242.5zM334 1116q0 78 81 142.5t179 64.5q47 0 115.5 -39t95.5 -39q39 0 74.5 18.5 t57 37t26.5 18.5q23 0 22 -21q0 -82 -77 -150.5t-175 -68.5q-45 0 -118.5 40t-108.5 40q-39 0 -74 -16.5t-55.5 -33.5t-24.5 -17q-18 0 -18 24z" />
<glyph unicode="&#xf6;" horiz-adv-x="913" d="M47 299q0 94 35 202.5t99.5 210t174 169t240.5 67.5q53 0 116.5 -18.5t63.5 -65.5q0 -27 -28 -26q-4 0 -27 8t-47 8q-129 0 -254 -185.5t-125 -377.5q0 -213 125 -213q74 0 146.5 98t72.5 244q0 104 -27 158q-8 16 -22.5 33.5t-22.5 34t-8 42.5q0 37 33 72t84 35 q29 0 70.5 -27t70.5 -27q43 0 96.5 38t57.5 38q14 0 14 -16v-2q0 -66 -52 -113t-120 -63q4 -41 4 -74q0 -131 -46 -246t-116.5 -187.5t-152.5 -113.5t-158 -41q-156 0 -226.5 95.5t-70.5 242.5zM416 1182q0 47 35.5 82.5t80.5 35.5q35 0 60.5 -22.5t30.5 -56.5q0 -4 1 -8.5 t1 -8.5q0 -49 -35 -85t-82 -36q-37 0 -61.5 23.5t-28.5 58.5q0 2 -1 8.5t-1 8.5zM725 1182q0 47 36 82.5t81 35.5q35 0 60.5 -22.5t29.5 -56.5q0 -4 1 -8.5t1 -8.5q0 -49 -35 -85t-82 -36q-37 0 -61.5 23.5t-28.5 58.5q0 2 -1 8.5t-1 8.5z" />
<glyph unicode="&#xf7;" horiz-adv-x="1085" d="M174 575q0 18 5 45t24.5 57t48.5 30q219 0 418 8t334 8q27 0 26 -33q0 -29 -18.5 -73t-59.5 -50q-164 0 -360.5 -9t-396.5 -11q-20 0 -21 28zM379 332v16q0 59 41 101.5t96 42.5q41 0 71.5 -27t35.5 -70v-16q0 -55 -41 -97t-97 -42q-43 0 -72.5 25.5t-33.5 66.5zM526 872 v17q0 59 41.5 101t96.5 42q41 0 71.5 -26.5t34.5 -69.5v-16q0 -55 -41 -97.5t-96 -42.5q-43 0 -73 25.5t-34 66.5z" />
<glyph unicode="&#xf8;" horiz-adv-x="983" d="M47 299q0 74 21.5 159t68.5 173t112.5 157.5t166 114.5t217.5 45q70 0 115 -14q35 49 73 49q14 0 27 -6q12 -4 12 -21q0 -8 -8 -22l-23 -35q109 -72 109 -248q0 -166 -92 -328.5t-230.5 -262t-271.5 -99.5q-70 0 -125 23q-31 -37 -65 -37q-20 0 -29 8q-10 4 -10 14 q0 8 8 19l24 39q-100 86 -100 272zM295 291q0 -29 2 -41l383 584q-20 18 -53 18q-113 0 -222.5 -184t-109.5 -377zM324 135q28 -57 96 -57q72 0 144.5 113.5t115.5 259t43 249.5q0 25 -2 37z" />
<glyph unicode="&#xf9;" horiz-adv-x="948" d="M33 115q0 98 101.5 390t101.5 357q0 4 -1.5 10.5t-1.5 8.5v6q0 55 129 55q119 0 119 -61q0 -49 -108 -359q-98 -283 -99 -311q0 -47 35 -47q76 0 200 228.5t204 473.5q23 76 129 76h4q98 0 98 -45q0 -14 -99.5 -354t-99.5 -430q0 -18 4.5 -40t4.5 -38q0 -61 -121 -62 q-76 0 -99.5 22.5t-23.5 76t82 288.5q2 4 2 13q0 6 -4 6q-10 0 -17 -12q-88 -174 -195.5 -285t-219.5 -111q-49 0 -87 33t-38 111zM387 1305q0 41 49 91t92 50q23 0 37 -21q166 -258 185 -309q10 -25 10 -41q0 -8 -11.5 -23.5t-25.5 -15.5q-47 0 -191.5 96.5t-144.5 172.5z " />
<glyph unicode="&#xfa;" horiz-adv-x="948" d="M33 115q0 98 101.5 390t101.5 357q0 4 -1.5 10.5t-1.5 8.5v6q0 55 129 55q119 0 119 -61q0 -49 -108 -359q-98 -283 -99 -311q0 -47 35 -47q76 0 200 228.5t204 473.5q23 76 129 76h4q98 0 98 -45q0 -14 -99.5 -354t-99.5 -430q0 -18 4.5 -40t4.5 -38q0 -61 -121 -62 q-76 0 -99.5 22.5t-23.5 76t82 288.5q2 4 2 13q0 6 -4 6q-10 0 -17 -12q-88 -174 -195.5 -285t-219.5 -111q-49 0 -87 33t-38 111zM621 1061q0 63 78.5 216t162.5 153q47 0 79 -46.5t32 -99.5q0 -27 -24.5 -51.5t-48 -38.5t-79.5 -43q-33 -18 -74.5 -46t-67.5 -45.5 t-34 -17.5q-24 1 -24 19z" />
<glyph unicode="&#xfb;" horiz-adv-x="948" d="M33 115q0 98 101.5 390t101.5 357q0 4 -1.5 10.5t-1.5 8.5v6q0 55 129 55q119 0 119 -61q0 -49 -108 -359q-98 -283 -99 -311q0 -47 35 -47q76 0 200 228.5t204 473.5q23 76 129 76h4q98 0 98 -45q0 -14 -99.5 -354t-99.5 -430q0 -18 4.5 -40t4.5 -38q0 -61 -121 -62 q-76 0 -99.5 22.5t-23.5 76t82 288.5q2 4 2 13q0 6 -4 6q-10 0 -17 -12q-88 -174 -195.5 -285t-219.5 -111q-49 0 -87 33t-38 111zM367 1169q0 10 10 13q76 27 153.5 88t128 106t72.5 45q18 0 32.5 -32.5t54.5 -96t106 -123.5q4 -2 4 -10q-6 -29 -54.5 -61.5t-103.5 -32.5 q-39 0 -55.5 101.5t-20.5 101.5q-12 0 -81.5 -101.5t-96.5 -101.5q-66 0 -107.5 37t-41.5 67z" />
<glyph unicode="&#xfc;" horiz-adv-x="948" d="M33 115q0 98 101.5 390t101.5 357q0 4 -1.5 10.5t-1.5 8.5v6q0 55 129 55q119 0 119 -61q0 -49 -108 -359q-98 -283 -99 -311q0 -47 35 -47q76 0 200 228.5t204 473.5q23 76 129 76h4q98 0 98 -45q0 -14 -99.5 -354t-99.5 -430q0 -18 4.5 -40t4.5 -38q0 -61 -121 -62 q-76 0 -99.5 22.5t-23.5 76t82 288.5q2 4 2 13q0 6 -4 6q-10 0 -17 -12q-88 -174 -195.5 -285t-219.5 -111q-49 0 -87 33t-38 111zM379 1182q0 47 36 82.5t81 35.5q35 0 60.5 -22.5t29.5 -56.5q0 -4 1 -8.5t1 -8.5q0 -49 -35 -85t-82 -36q-37 0 -61.5 23.5t-28.5 58.5 q0 2 -1 8.5t-1 8.5zM688 1182q0 47 36 82.5t81 35.5q35 0 60.5 -22.5t29.5 -56.5q0 -4 1 -8.5t1 -8.5q0 -49 -35 -85t-82 -36q-37 0 -61.5 23.5t-28.5 58.5q0 2 -1 8.5t-1 8.5z" />
<glyph unicode="&#xfd;" horiz-adv-x="917" d="M-96 -375q0 74 45 163t74 89q35 0 50 -78t21 -154.5t21 -76.5q100 0 225 207t238 565q0 10 -9 10q-4 0 -12 -12l-2 -2q-141 -242 -289 -328q-63 -37 -119 -37q-49 0 -86.5 33t-37.5 111q0 33 8 73.5t16 70.5t24.5 80t22.5 73q8 33 44 139t50.5 178t14.5 152q0 49 157 49 q90 0 91 -49q0 -29 -27 -137.5t-59 -200.5l-66 -185q-35 -92 -35 -151q0 -47 35 -47q25 0 43 18q115 109 223.5 319t157.5 369q18 63 151 64q80 0 80 -33q0 -10 -25.5 -83t-64.5 -189.5t-65 -208.5l-88 -312q-174 -618 -621 -618q-82 0 -134 34t-52 105zM606 1061 q0 63 79 216t163 153q47 0 78.5 -46.5t31.5 -99.5q0 -27 -24.5 -51.5t-48 -38.5t-78.5 -43q-33 -18 -75 -46t-67.5 -45.5t-33.5 -17.5q-25 1 -25 19z" />
<glyph unicode="&#xfe;" horiz-adv-x="931" d="M-158 -496q0 14 12.5 52t41 116t51.5 148q98 303 185 637t129 534.5t42 241.5q0 10 -1 27.5t-1 25.5q0 61 141 62q117 -1 117 -58q0 -47 -38 -180t-87 -282.5t-57 -180.5q0 -6 4 -6t12 8q170 295 322 295q172 0 172 -199q0 -178 -58.5 -353t-179.5 -301t-270 -126 q-43 0 -79 7.5t-54 15.5l-21 6q-8 0 -23.5 -52.5t-46 -143.5t-71.5 -160q-86 -152 -213 -152q-29 0 -29 18zM248 90q0 -45 61 -45q94 0 175 128t121 274.5t40 244.5q0 72 -41 72q-29 0 -80 -59.5t-100 -145.5q-47 -82 -111.5 -263t-64.5 -206z" />
<glyph unicode="&#xff;" horiz-adv-x="917" d="M-96 -375q0 74 45 163t74 89q35 0 50 -78t21 -154.5t21 -76.5q100 0 225 207t238 565q0 10 -9 10q-4 0 -12 -12l-2 -2q-141 -242 -289 -328q-63 -37 -119 -37q-49 0 -86.5 33t-37.5 111q0 33 8 73.5t16 70.5t24.5 80t22.5 73q8 33 44 139t50.5 178t14.5 152q0 49 157 49 q90 0 91 -49q0 -29 -27 -137.5t-59 -200.5l-66 -185q-35 -92 -35 -151q0 -47 35 -47q25 0 43 18q115 109 223.5 319t157.5 369q18 63 151 64q80 0 80 -33q0 -10 -25.5 -83t-64.5 -189.5t-65 -208.5l-88 -312q-174 -618 -621 -618q-82 0 -134 34t-52 105zM365 1182 q0 47 35.5 82.5t80.5 35.5q35 0 60.5 -22.5t29.5 -56.5q0 -4 1 -8.5t1 -8.5q0 -49 -34.5 -85t-81.5 -36q-37 0 -61.5 23.5t-28.5 58.5q0 2 -1 8.5t-1 8.5zM674 1182q0 47 36 82.5t81 35.5q35 0 60.5 -22.5t29.5 -56.5q0 -4 1 -8.5t1 -8.5q0 -49 -35 -85t-82 -36 q-37 0 -61.5 23.5t-28.5 58.5q0 2 -1 8.5t-1 8.5z" />
<glyph unicode="&#x152;" horiz-adv-x="1857" d="M158 375q0 113 25.5 249t87 287.5t149.5 273.5t228 202.5t308 80.5q61 0 107.5 -6t69.5 -6q76 0 201.5 17.5t201.5 17.5q172 -2 273.5 -37t101.5 -98q0 -94 -76 -209t-137 -115q-20 0 -21 43q0 12 3 52t3 63q0 195 -165 194q-104 0 -195 -38q-57 -199 -92 -349l-64 -235 q328 102 410 102q53 0 63 -30q2 -10 2 -33q0 -102 -57 -185q-35 -51 -51 -51q-20 0 -55 21.5t-93.5 43t-138.5 21.5q-57 0 -108 -10q-84 -344 -84 -473q0 -37 4 -74h39q141 0 248.5 28t164 65.5t93 76.5t59.5 66.5t39 27.5q27 1 27 -67q-6 -115 -81 -240t-188 -125 q-90 0 -301 22.5t-252 22.5q-72 0 -168 -18.5t-174 -18.5q-37 0 -69.5 3.5t-100 27t-115 65.5t-85 132t-37.5 213zM408 260q0 -117 50 -176t120 -59q100 0 150 48t81 163q10 41 47 208.5t57 247.5q92 350 121 504q10 57 10 88q0 47 -24.5 67.5t-83.5 20.5q-109 0 -211 -130 t-169 -312t-107.5 -365.5t-40.5 -304.5z" />
<glyph unicode="&#x153;" horiz-adv-x="1288" d="M20 207q0 264 161 498.5t360 234.5q72 0 151.5 -25.5t85.5 -25.5q20 0 106.5 31.5t190.5 31.5q233 0 234 -194q0 -139 -133.5 -234.5t-303.5 -95.5q-29 0 -28 25q0 14 10 26.5t27 12.5q76 0 135 66.5t83.5 141t24.5 130t-41 55.5q-14 0 -27.5 -2t-47 -22.5t-63.5 -57.5 t-68.5 -114t-71.5 -183q-10 -31 -27.5 -123t-17.5 -127q0 -162 139 -162q51 0 106.5 30t93.5 59.5t50 29.5q14 0 14 -18q0 -63 -100 -150.5t-260 -87.5q-123 0 -206 71.5t-83 204.5v9q0 14 -8 14q-6 0 -10 -8q-59 -125 -138 -201t-157 -76q-180 0 -181 236zM258 244 q0 -45 11 -61.5t42 -16.5q55 0 142.5 148.5t148 307t60.5 203.5v2q-12 39 -60 39q-76 0 -160 -116.5t-134 -263t-50 -242.5z" />
<glyph unicode="&#x178;" horiz-adv-x="1388" d="M213 1069v4q6 115 151.5 243t340.5 128q96 0 143 -37t47 -141q0 -152 -104 -467q-8 -25 -9 -47q0 -61 70 -62q76 0 185.5 111.5t156.5 257.5q59 184 59 319q0 10 25 20.5t77 17.5t124 7q41 0 57 -6t18 -28v-5q0 -39 -159 -550q-86 -274 -171 -460t-179.5 -292.5 t-189.5 -150.5t-214 -44q-166 0 -273.5 97.5t-107.5 236.5q0 86 97.5 137.5t193.5 51.5q51 0 51 -21q0 -8 -49 -85t-49 -142q0 -170 166 -170q96 0 165.5 77.5t108.5 174t121 346.5q12 39 19.5 60.5t19.5 57t22 66.5q2 4 2 8q0 8 -6 8.5t-12 -10.5q-125 -152 -237.5 -227.5 t-192.5 -75.5t-126 47t-46 133q0 68 31 154q113 322 112 438q0 82 -30 82q-119 0 -222 -418q-4 -10 -16 -10q-41 0 -105.5 54.5t-64.5 111.5zM772 1657v14q0 59 39 100t94 41q41 0 70 -25.5t35 -66.5v-14q0 -57 -40 -97t-96 -40q-41 0 -69.5 24.5t-32.5 63.5zM1133 1657v14 q0 59 39 100t94 41q41 0 69.5 -25.5t34.5 -66.5v-14q0 -57 -40 -97t-95 -40q-41 0 -69.5 24.5t-32.5 63.5z" />
<glyph unicode="&#x2000;" horiz-adv-x="972" />
<glyph unicode="&#x2001;" horiz-adv-x="1944" />
<glyph unicode="&#x2002;" horiz-adv-x="972" />
<glyph unicode="&#x2003;" horiz-adv-x="1944" />
<glyph unicode="&#x2004;" horiz-adv-x="648" />
<glyph unicode="&#x2005;" horiz-adv-x="486" />
<glyph unicode="&#x2006;" horiz-adv-x="324" />
<glyph unicode="&#x2007;" horiz-adv-x="324" />
<glyph unicode="&#x2008;" horiz-adv-x="243" />
<glyph unicode="&#x2009;" horiz-adv-x="388" />
<glyph unicode="&#x200a;" horiz-adv-x="108" />
<glyph unicode="&#x2013;" horiz-adv-x="931" d="M182 406q0 35 17.5 82t60.5 49q156 4 294 12t181 8q22 0 92 -4q27 -2 27 -33q0 -29 -18.5 -73t-59.5 -50q-39 2 -100 2q-57 0 -193.5 -8t-279.5 -14q-20 0 -21 29z" />
<glyph unicode="&#x2014;" horiz-adv-x="1554" d="M150 426q0 18 10 44t48 56.5t97 30.5q188 2 508 9t528 7h97q51 0 51 -32q0 -16 -10.5 -41t-48 -53.5t-93.5 -28.5h-4q-102 2 -258 2q-160 0 -430 -9.5t-455 -13.5q-41 0 -40 29z" />
<glyph unicode="&#x2018;" horiz-adv-x="391" d="M268 1094v41q0 264 174 264q117 0 117 -70q0 -51 -63 -133q-43 -57 -58.5 -112.5t-18.5 -94.5t-11 -51q-14 -18 -39 -18q-33 0 -67 46t-34 128z" />
<glyph unicode="&#x2019;" horiz-adv-x="403" d="M268 938q0 12 31 50t62.5 94.5t31.5 113.5q0 8 -1 35t-1 43q0 125 139 125q104 0 105 -90q0 -51 -28.5 -115t-61.5 -100q-147 -174 -252 -174q-25 0 -25 18z" />
<glyph unicode="&#x201a;" horiz-adv-x="475" d="M-45 -217q0 12 30.5 50t62.5 94.5t32 113.5q0 8 -1 35t-1 43q0 125 139 125q104 0 105 -90q0 -51 -29 -115t-62 -100q-147 -174 -251 -175q-25 0 -25 19z" />
<glyph unicode="&#x201c;" horiz-adv-x="759" d="M268 1094v41q0 264 174 264q117 0 117 -70q0 -51 -63 -133q-43 -57 -58.5 -112.5t-18.5 -94.5t-11 -51q-14 -18 -39 -18q-33 0 -67 46t-34 128zM637 1094v41q0 264 174 264q117 0 117 -70q0 -51 -64 -133q-43 -57 -58 -112.5t-18.5 -94.5t-11.5 -51q-14 -18 -39 -18 q-33 0 -66.5 46t-33.5 128z" />
<glyph unicode="&#x201d;" horiz-adv-x="772" d="M268 938q0 12 31 50t62.5 94.5t31.5 113.5q0 8 -1 35t-1 43q0 125 139 125q104 0 105 -90q0 -51 -28.5 -115t-61.5 -100q-147 -174 -252 -174q-25 0 -25 18zM637 938q0 12 31.5 50t62.5 94.5t31 113.5q0 8 -1 35t-1 43q0 125 139 125q104 0 105 -90q0 -51 -29 -115 t-62 -100q-147 -174 -251 -174q-25 0 -25 18z" />
<glyph unicode="&#x201e;" horiz-adv-x="915" d="M-45 -217q0 12 30.5 50t62.5 94.5t32 113.5q0 8 -1 35t-1 43q0 125 139 125q104 0 105 -90q0 -51 -29 -115t-62 -100q-147 -174 -251 -175q-25 0 -25 19zM324 -217q0 12 30.5 50t62.5 94.5t32 113.5q0 8 -1.5 35t-1.5 43q0 125 140 125q104 0 104 -90q0 -51 -28.5 -115 t-61.5 -100q-147 -174 -252 -175q-25 0 -24 19z" />
<glyph unicode="&#x2026;" horiz-adv-x="1234" d="M35 80v16q0 59 41 101.5t96 42.5q41 0 71.5 -27t35.5 -70v-16q0 -57 -41 -98t-97 -41q-43 0 -72.5 25.5t-33.5 66.5zM444 80v16q0 59 41.5 101.5t96.5 42.5q41 0 71.5 -27t34.5 -70v-16q0 -57 -41 -98t-96 -41q-43 0 -72.5 25.5t-34.5 66.5zM854 80v16q0 59 41 101.5 t96 42.5q41 0 72 -27t35 -70v-16q0 -57 -41 -98t-96 -41q-43 0 -73 25.5t-34 66.5z" />
<glyph unicode="&#x202f;" horiz-adv-x="388" />
<glyph unicode="&#x205f;" horiz-adv-x="486" />
<glyph unicode="&#x20ac;" horiz-adv-x="1310" d="M39 571q0 20 41 48t88 36l100 13q27 98 58 170q-98 -4 -176 -13h-13q-23 0 -22 13q0 20 41 47.5t88 36.5q45 6 125 14q117 236 313.5 386.5t484.5 150.5q119 0 156 -23t37 -92q0 -94 -76 -220t-137 -126q-20 0 -21 43q0 18 5.5 69.5t5.5 79.5q0 141 -105 142 q-115 0 -221 -109t-182 -287q133 4 366 4q14 0 15 -16q0 -20 -20.5 -42t-79 -42t-140.5 -20h-29q-86 4 -155 4q-27 -82 -41 -154q135 4 375 4q14 0 14 -16q0 -20 -20.5 -42t-79 -42.5t-140.5 -20.5h-28q-78 4 -140 4q-12 -90 -12 -176q0 -322 178 -321q221 0 324 446 q2 14 35 15q55 0 116.5 -36t61.5 -87.5t-50.5 -128t-129 -151.5t-197.5 -128t-238 -53q-385 -1 -385 450q0 70 19 170q-94 -4 -174 -12h-13q-23 0 -22 12z" />
<glyph unicode="&#x25fc;" horiz-adv-x="952" d="M0 0v952h952v-952h-952z" />
<glyph unicode="&#xfb01;" horiz-adv-x="1042" d="M-88 -487q0 10 5 27.5t17.5 48t24.5 61.5t32.5 81t37.5 95q41 104 84 259t99 374t89 338q-39 -2 -156 -11h-4q-20 0 -20 17q0 25 32.5 55.5t73.5 36.5q31 6 105 14q135 446 454 447q125 0 205 -50.5t80 -146.5q0 -59 -35 -102t-84 -43q-51 0 -86 27.5t-35 80.5v15 q2 16 3 45q0 90 -66 90q-57 0 -108.5 -75t-108.5 -282q98 -4 154 -4q90 0 188 9q4 0 13 1t14 1q86 0 86 -66v-4q-2 -35 -101 -395q-82 -295 -82 -398q0 -92 -137 -92h-8q-119 0 -119 51q0 14 100 334q37 113 66 242t29 172t-189 43h-43q-18 -72 -67 -260.5t-72 -273.5 t-60.5 -217t-68 -215t-61.5 -142q-106 -207 -252 -207q-29 0 -29 19z" />
<glyph unicode="&#xfb02;" horiz-adv-x="1001" d="M-88 -487q0 10 5 27.5t17.5 48t24.5 61.5t32.5 81t37.5 95q41 104 84 259t99 376t89 338h-2q-84 0 -154 -13h-8q-16 0 -16 15q0 23 33.5 55.5t72.5 38.5q68 10 105 10q131 451 454 451q41 0 103.5 -6.5t93.5 -6.5q29 0 43 3h21q66 0 65 -56q0 -47 -27.5 -145t-82 -262 t-76.5 -240q-139 -469 -140 -586q0 -86 -147 -86h-14q-92 0 -93 47q0 51 111 379q68 199 142.5 490t74.5 332q-45 55 -90 55q-63 0 -114.5 -78t-110.5 -297h30q68 0 111 4h12q45 0 45 -26q0 -25 -30.5 -50.5t-65.5 -27.5q-78 -6 -129 -6q-25 -90 -67.5 -259t-68.5 -265.5 t-61.5 -218.5t-66 -207t-61.5 -142q-106 -207 -252 -207q-29 0 -29 19z" />
<glyph unicode="&#xfb03;" horiz-adv-x="1505" d="M-88 -487q0 10 5 27.5t17.5 48t24.5 61.5t32.5 81t37.5 95q41 104 84 259t99 374t89 338q-53 -2 -156 -11h-4q-20 0 -20 19q0 25 32.5 55.5t73.5 34.5l105 10q51 178 162.5 276.5t281.5 98.5q74 0 209 -23q109 98 262 99q127 0 206 -50.5t79 -146.5q0 -59 -35 -102 t-84 -43q-51 0 -86 27.5t-35 80.5v15q2 18 2 47q0 88 -65 88q-57 0 -107.5 -74t-109.5 -278h342q53 0 82.5 -12.5t29.5 -51.5v-4q-2 -53 -100 -395q-82 -295 -82 -398q0 -92 -137 -92h-8q-119 0 -119 51q0 14 100 334q37 113 65.5 242t28.5 172q0 53 -227 59 q-16 -63 -59 -229t-63.5 -240.5t-53.5 -190.5t-60.5 -188.5t-54.5 -126.5q-106 -207 -252 -206q-29 0 -28 18q0 10 5 27.5t17.5 48.5t24.5 61.5t32.5 80.5t36.5 95q35 92 73 225.5t87 329t76 293.5q-119 -4 -246 -12q-20 -76 -67 -261t-71 -273.5t-61.5 -218.5t-68 -214 t-61.5 -143q-106 -207 -252 -207q-29 0 -29 19zM551 915q160 4 246 5q39 129 90 213q-57 65 -127 65q-61 0 -111.5 -58.5t-97.5 -224.5z" />
</font>
</defs>
</svg>
