<svg xmlns="http://www.w3.org/2000/svg" width="24.3" height="24.3" viewBox="0 0 24.3 24.3"><path fill="#3498db" d="M12.15 24.15a12.01 12.01 0 0 0 0-24 12.01 12.01 0 0 0 0 24zm0-23.04a11.05 11.05 0 0 1 0 22.08 11.05 11.05 0 0 1 0-22.08zM10.86 15.6l3.43-3.45-3.43-3.45a.5.5 0 0 1 0-.72c.2-.2.51-.2.71 0l3.79 3.81a.5.5 0 0 1 0 .72l-3.79 3.81a.49.49 0 0 1-.35.15.5.5 0 0 1-.36-.15.53.53 0 0 1 0-.72z"/><path fill="none" stroke="#3498db" stroke-miterlimit="50" stroke-width=".3" d="M12.15 24.15a12.01 12.01 0 0 0 0-24 12.01 12.01 0 0 0 0 24zm0-23.04a11.05 11.05 0 0 1 0 22.08 11.05 11.05 0 0 1 0-22.08zM10.86 15.6l3.43-3.45-3.43-3.45a.5.5 0 0 1 0-.72c.2-.2.51-.2.71 0l3.79 3.81a.5.5 0 0 1 0 .72l-3.79 3.81a.49.49 0 0 1-.35.15.5.5 0 0 1-.36-.15.53.53 0 0 1 0-.72z"/></svg>