<svg xmlns="http://www.w3.org/2000/svg" width="49" height="40" viewBox="0 0 49 40"><path fill="#3498db" d="M24.79 26.94v-7.35c0-.49.32-.81.8-.81h12.8c.48 0 .8.32.8.81v7.35c0 .49-.32.82-.8.82h-12.8c-.48 0-.8-.33-.8-.82zm1.6-.82h11.2v-5.71h-11.2zM3.2 16.33c0-.49.32-.82.8-.82h6.4c.48 0 .8.33.8.82 0 .49-.32.81-.8.81H4c-.48 0-.8-.32-.8-.81zm9.6 0c0-.49.32-.82.8-.82h6.39c.48 0 .8.33.8.82 0 .49-.32.81-.8.81H13.6c-.48 0-.8-.32-.8-.81zm-9.6 3.26c0-.49.32-.81.8-.81h10.4c.48 0 .8.32.8.81 0 .49-.32.82-.8.82H4c-.48 0-.8-.33-.8-.82zm17.59 0c0 .49-.32.82-.8.82h-2.4c-.48 0-.8-.33-.8-.82 0-.49.32-.81.8-.81h2.4c.48 0 .8.32.8.81zm27.2-8.57l-2.4 26.2a3.22 3.22 0 0 1-3.2 2.78h-.32L5.12 35.76a3.17 3.17 0 0 1-2.83-3.24A3.27 3.27 0 0 1 0 29.39V3.27C0 1.47 1.44 0 3.2 0h36.79c1.76 0 3.2 1.47 3.2 3.27v3.92l1.92.24c.88.08 1.6.49 2.16 1.22.56.66.79 1.55.72 2.37zM1.6 10.61h39.99v-4.9H1.6zm0-7.34v.81h39.99v-.81c0-.9-.72-1.64-1.6-1.64H3.2c-.88 0-1.6.74-1.6 1.64zm1.6 27.75h36.79c.88 0 1.6-.73 1.6-1.63V12.24H1.6v17.15c0 .9.72 1.63 1.6 1.63zM46.07 9.47a1.35 1.35 0 0 0-1.04-.57l-1.84-.17v20.66a3.24 3.24 0 0 1-3.2 3.26H3.92c.08.74.64 1.39 1.44 1.47l36.87 4.25c.88.08 1.68-.57 1.76-1.47l2.4-26.21c.08-.4-.08-.89-.32-1.22z"/></svg>