<svg xmlns="http://www.w3.org/2000/svg" width="58" height="46" viewBox="0 0 58 46"><path fill="#3498db" d="M51.21 19.04C50.65 8.46 40.9 0 29 0S7.35 8.46 6.79 19.04C2.92 19.33 0 21.4 0 24v4c0 2.8 3.4 5 7.73 5 .54 0 .97-.45.97-1V20c0-9.92 9.11-18 20.3-18 11.19 0 20.3 8.08 20.3 18v11.59L46.97 34h-2a22.42 22.42 0 0 0 1.43-7.89c0-10.97-7.81-19.89-17.4-19.89s-17.4 8.92-17.4 19.89S19.41 46 29 46c6.44 0 12.07-4.03 15.08-10h3.29c.25 0 .5-.1.68-.29l2.62-2.72C54.81 32.86 58 30.72 58 28v-4c0-2.6-2.92-4.67-6.79-4.96zM6.77 30.96c-2.9-.27-4.84-1.68-4.84-2.96v-4c0-1.28 1.94-2.69 4.84-2.96zM42.86 34h-9.03c0-1.65-1.3-3-2.9-3h-3.86c-1.6 0-2.9 1.35-2.9 3v2c0 1.65 1.3 3 2.9 3h3.86c1.6 0 2.9-1.35 2.9-3h8.05c-2.78 4.82-7.51 8-12.88 8-8.53 0-15.47-8.02-15.47-17.89 0-9.86 6.94-17.89 15.47-17.89 8.53 0 15.47 8.03 15.47 17.89A20 20 0 0 1 42.86 34zM31.9 34v2c0 .55-.43 1-.97 1h-3.86a.98.98 0 0 1-.97-1v-2c0-.55.43-1 .97-1h3.86c.54 0 .97.45.97 1zm24.17-6c0 1.28-1.94 2.69-4.84 2.96v-9.92c2.9.27 4.84 1.68 4.84 2.96z"/><path fill="#3498db" d="M21 22a2 2 0 1 1 4 0 2 2 0 0 1-4 0zM33 22a2 2 0 1 1 4 0 2 2 0 0 1-4 0z"/></svg>