<svg xmlns="http://www.w3.org/2000/svg" width="50" height="56" viewBox="0 0 50 56"><path fill="#3498db" d="M24.5 29.55v1.78c0 .46.37.84.83.84.46 0 .84-.38.84-.84v-1.78a3.34 3.34 0 1 0-1.67 0zm.83-4.88a1.66 1.66 0 1 1 .01 3.33 1.66 1.66 0 0 1-.01-3.33z"/><path fill="#3498db" d="M30.74 14.6c0-3.09-2.49-5.6-5.55-5.6a5.58 5.58 0 0 0-5.56 5.6v4.67H15V37h20.37V19.27h-4.63zm-9.26 0a3.72 3.72 0 0 1 3.71-3.73c2.04 0 3.7 1.67 3.7 3.73v4.67h-7.41zm12.04 6.53v14H16.85v-14z"/><path fill="#3498db" d="M25 0C11.21 0 0 11.3 0 25.2c0 13.17 10.08 24 22.86 25.1l-4.07 4.11a.94.94 0 0 0 0 1.32.92.92 0 0 0 1.31 0l5.55-5.6a.79.79 0 0 0 .2-.31c.1-.22.1-.48 0-.71a.75.75 0 0 0-.2-.3l-5.55-5.6a.91.91 0 0 0-1.31 0 .94.94 0 0 0 0 1.32l3.86 3.88A23.29 23.29 0 0 1 1.85 25.2 23.27 23.27 0 0 1 25 1.87 23.27 23.27 0 0 1 48.15 25.2a23.3 23.3 0 0 1-6.7 16.42.94.94 0 0 0 0 1.32c.37.36.95.36 1.31-.01A25.12 25.12 0 0 0 50 25.2C50 11.3 38.79 0 25 0z"/></svg>