<svg xmlns="http://www.w3.org/2000/svg" width="20" height="20" viewBox="0 0 20 20"><path fill="#fff" d="M19.2 6.1A9.77 9.77 0 0 0 13.88.8 9.83 9.83 0 0 0 6.1.8 9.78 9.78 0 0 0 .79 6.1a9.82 9.82 0 0 0 0 7.78 9.8 9.8 0 0 0 5.31 5.31 9.77 9.77 0 0 0 7.78 0 9.82 9.82 0 0 0 5.32-5.31 9.83 9.83 0 0 0 0-7.78zm-1.59 8.3a8.85 8.85 0 0 1-7.63 4.39 8.98 8.98 0 0 1-6.21-2.57 9.15 9.15 0 0 1-1.87-2.81 8.69 8.69 0 0 1-.69-3.43 8.82 8.82 0 0 1 13.18-7.6 8.85 8.85 0 0 1 4.4 7.6 8.6 8.6 0 0 1-1.18 4.42z"/><path fill="#fff" d="M10.24 10.28V4.61c0-.34-.3-.61-.64-.61-.32 0-.6.27-.6.61v5.75l.02.09c-.02.2.03.36.17.49l3.27 3.27c.21.22.62.22.84 0a.6.6 0 0 0 0-.85z"/></svg>