<svg xmlns="http://www.w3.org/2000/svg" width="20.2" height="15.2" viewBox="0 0 20.2 15.2"><path fill="#fff" d="M19.53.1c.31 0 .57.26.57.57v13.86c0 .31-.26.57-.57.57H.66a.57.57 0 0 1-.56-.57V.67C.1.36.35.1.66.1H19.24zM10.1 7.91l4.27-3.67 3.5-3.01H2.32l3.5 3.01zm5.01-2.83l-4.64 3.99a.56.56 0 0 1-.74.01l-4.65-4-3.85-3.3v11.64l3.85-3.31 2.15-1.84c.24-.21.6-.19.8.05.21.23.18.59-.06.79l-2.15 1.85-3.5 3.01h15.55l-3.5-3.01-2.15-1.85a.57.57 0 0 1-.06-.79.56.56 0 0 1 .8-.05l2.15 1.84 3.86 3.31V1.78z"/><path fill="none" stroke="#fff" stroke-miterlimit="50" stroke-width=".2" d="M19.53.1c.31 0 .57.26.57.57v13.86c0 .31-.26.57-.57.57H.66a.57.57 0 0 1-.56-.57V.67C.1.36.35.1.66.1H19.24zM10.1 7.91l4.27-3.67 3.5-3.01H2.32l3.5 3.01zm5.01-2.83l-4.64 3.99a.56.56 0 0 1-.74.01l-4.65-4-3.85-3.3v11.64l3.85-3.31 2.15-1.84c.24-.21.6-.19.8.05.21.23.18.59-.06.79l-2.15 1.85-3.5 3.01h15.55l-3.5-3.01-2.15-1.85a.57.57 0 0 1-.06-.79.56.56 0 0 1 .8-.05l2.15 1.84 3.86 3.31V1.78z"/></svg>