<svg xmlns="http://www.w3.org/2000/svg" width="24" height="24" viewBox="0 0 24 24"><path fill="#3498db" d="M0 12a12 12 0 1 1 24 0 12 12 0 0 1-24 0z"/><path fill="#fff" d="M3.83 13.62a.83.83 0 0 1-.83-.83A5.8 5.8 0 0 1 8.79 7h5.8c.45 0 .82.37.82.83 0 .45-.37.83-.82.83h-5.8a4.13 4.13 0 0 0-4.13 4.13c0 .46-.38.83-.83.83z"/><path fill="#fff" d="M10.83 11.28a.83.83 0 0 1-.49-1.5l3.63-2.64-3.63-2.64a.83.83 0 0 1-.18-1.16.82.82 0 0 1 1.15-.18l5.48 3.98-5.48 3.98a.84.84 0 0 1-.48.16zM14.62 17.62H8.83a.83.83 0 0 1 0-1.65h5.79a4.15 4.15 0 0 0 4.14-4.14.83.83 0 0 1 1.65 0 5.8 5.8 0 0 1-5.79 5.79z"/><path fill="#fff" d="M12.96 20.28a.9.9 0 0 1-.49-.16L7 16.14l5.47-3.98a.83.83 0 0 1 .98 1.34l-3.64 2.64 3.64 2.64c.36.27.45.79.18 1.16a.84.84 0 0 1-.67.34z"/></svg>