<svg xmlns="http://www.w3.org/2000/svg" width="107" height="25" viewBox="0 0 107 25"><path fill="#555" d="M18.39 12.83c.88-1.92 2.17-5.49-1.59-3.24-1.09.66-8.65 5.01-9.61 5.47-.83.4-3.52 1.9-3.64 1.03-.67-4.67 8.54-11.5 17.39-12.84 12.82-1.95 13.9.61 14.1.07.06-.18-4.8-3.49-14.46-1.88-8.11 1.34-16.5 6.94-19.53 12.18-.59 1.01-2.09 5.16.11 5.16 2.94 0 12.32-4.27 15.55-6.81 1.06-.84-2.4 2.78-2.4 4.85 0 .72 1.2.15 2.34-.39 1.88-.9 8.86-6.97 2.53-3.28-1.38.81-1.53 1.28-.79-.32zm44.68 3.59c-1.3.29 3.34-1.47 4.22-3.26.31-.63-1.01-.62-2.27-.6-2.07.03-10.93 2.51-3.67 1.83 1.58-.15 1.9-.5.57.6-1.61 1.32-4.28 3.91.05 3.46 1.26-.13 9.91-.89 10.96-.91.93-.01 3.98-.23 3.72.57-1.38 4.34-12.56 6.59-21.08 4.21-12.35-3.45-12.24-6.12-12.64-5.73-.13.13 2.83 4.96 12.2 7.45 7.86 2.09 17.78.58 22.73-2.77.95-.65 4.06-3.66 2.09-4.54-2.65-1.18-12.89-1.23-16.88-.31zM27.6 11.81l-.04.03c-.36.24-.53.33-.61.37 0-.09.04-.34.19-1.02l.36-1.64a8 8 0 0 1 .29-1.03l.06-.13-.39-.28-.47.28a1.95 1.95 0 0 0-.5-.16 1.87 1.87 0 0 0-1.17.03c-.19.06-.48.23-.88.52-.4.29-.66.5-.78.64-.14.14-.24.32-.34.55-.17.42-.3.84-.4 1.26-.1.43-.14.79-.14 1.11 0 .39.07.66.21.84a.7.7 0 0 0 .53.26c.33 0 .73-.19 1.21-.58.29-.23.59-.57.92-1.03l-.07.33c-.05.27-.09.48-.09.63 0 .17.04.32.13.43.2.29.58.27 1.05.01.23-.12.65-.4 1.25-.84l.05-.04.06-.2-.2-.35h-.23zm-2.35-2.55c.12-.17.27-.26.45-.26s.37.05.58.16a6.12 6.12 0 0 1-1.16 2.79c-.36.48-.52.58-.57.61a.7.7 0 0 1-.02-.2c0-.36.09-.92.26-1.68.21-.93.36-1.29.46-1.42zm11.04 2.56c-.33.22-.51.32-.6.37.03-.21.15-.8.59-2.33.14-.48.2-.83.2-1.07a.76.76 0 0 0-.12-.44c-.1-.15-.26-.22-.45-.22-.44 0-.97.22-1.62.7-.33.24-.64.54-.93.89a4.5 4.5 0 0 0 .19-1.04.57.57 0 0 0-.15-.4.55.55 0 0 0-.42-.17c-.41 0-.91.24-1.53.74a6 6 0 0 0-.95.99l.17-.71a3 3 0 0 0 .08-.52.45.45 0 0 0-.12-.32c-.16-.2-.44-.22-.84-.06-.17.06-.42.21-.79.46-.35.25-.65.46-.88.65l-.07.06-.02.19.19.31.26.01.05-.03.59-.4h.01v.01a21.61 21.61 0 0 1-.87 3.55l-.03.08.24.32.13-.03c.52-.12.89-.18 1.09-.18h.19l.01-.17c.01-.16.07-.46.17-.89a4.95 4.95 0 0 1 1.63-2.57c.14-.08.22-.11.26-.12v.02c0 .26-.1.81-.31 1.62-.2.81-.4 1.45-.6 1.91l-.04.09.28.32.12-.03c.47-.09.84-.13 1.07-.13h.19v-.19c0-.09.04-.34.21-.95a4.35 4.35 0 0 1 1.1-2.06c.28-.3.47-.42.57-.49l.23-.1v.04a18.94 18.94 0 0 1-.33 1.43l-.33 1.22c-.06.27-.1.49-.1.65 0 .16.05.3.15.42.24.28.65.25 1.22-.05.29-.15.72-.43 1.31-.82l.05-.04.05-.2-.2-.33-.24-.03zm3.46 0c-.42.26-.62.36-.71.4.02-.13.1-.54.47-1.73l.37-1.24c.07-.23.09-.43.09-.59a.52.52 0 0 0-.15-.38.53.53 0 0 0-.4-.17c-.25 0-.57.1-.97.3a14 14 0 0 0-1.56.96l-.06.04-.04.2.21.32.27.01.06-.04c.43-.26.65-.36.76-.4-.03.18-.13.64-.46 1.71-.14.46-.24.8-.28 1-.05.2-.07.38-.07.54 0 .19.04.35.14.47.08.1.23.22.5.22.14 0 .3-.03.48-.09.17-.05.44-.18.82-.41l.95-.56.06-.04.07-.2-.23-.35-.26-.01zm-.94-5.2a.91.91 0 0 0-.26.67c0 .22.05.41.18.57.13.16.34.25.63.25s.54-.11.7-.33c.15-.2.24-.43.24-.67a.78.78 0 0 0-.81-.78.9.9 0 0 0-.68.29zm4.57 6.14c0 .16.05.31.15.44.2.28.56.29 1.07.06.22-.11.68-.4 1.35-.86l.06-.04.05-.2-.21-.35-.25-.02-.06.04a4.1 4.1 0 0 1-.55.33l.03-.18c.03-.18.11-.65.38-1.9l.61-2.73.42-1.65-.31-.26-.12.04c-.67.22-1.4.37-2.16.46l-.07.01-.16.13-.05.37.16.17h.65c.07 0 .1.02.1.02l.01.05c0 .11-.03.32-.08.62l-.14.84a2.2 2.2 0 0 0-1.24.05c-.22.07-.51.22-.9.46-.39.22-.64.39-.77.5a2.2 2.2 0 0 0-.45.64c-.16.3-.3.67-.42 1.14-.12.46-.18.91-.18 1.32 0 .33.07.61.21.83.16.23.39.35.68.35.42 0 .92-.25 1.53-.78.3-.27.58-.56.85-.88-.13.47-.19.79-.19.98zm-1.33-.38a10.25 10.25 0 0 1 .45-2.57c.17-.54.27-.67.31-.71.06-.05.17-.1.41-.1.21 0 .4.03.58.11l-.05.32a6.35 6.35 0 0 1-1.42 2.95c-.15.12-.22.17-.27.18l-.01-.18zm6.21 1.06c.47 0 .9-.09 1.27-.26.36-.17.71-.38 1.03-.61.35-.26.63-.65.83-1.18.2-.51.3-1.02.3-1.52 0-.58-.18-1.03-.53-1.32a2 2 0 0 0-1.33-.44c-.51 0-1.01.12-1.48.35-.48.23-.86.51-1.14.84-.29.32-.49.73-.61 1.22a5.3 5.3 0 0 0-.17 1.17c0 .29.05.56.16.82.1.27.29.5.56.67.27.18.64.26 1.11.26zm1.57-2.46a4.5 4.5 0 0 1-.29.97c-.1.23-.21.4-.33.49a.67.67 0 0 1-.39.12c-.21 0-.36-.06-.47-.2-.11-.14-.17-.38-.17-.72 0-.41.07-.88.2-1.41.16-.63.32-.9.43-1.01a.68.68 0 0 1 .5-.22c.17 0 .31.07.44.19s.18.38.18.73c0 .31-.03.67-.1 1.06zm2.37-1.01l.14-.1.29-.57.2-.02.44.01.41-.01c-.35.37-.6.67-.75.88a3.1 3.1 0 0 0-.55 1.7c0 .51.13.91.38 1.17.26.27.59.41.99.41.46 0 .94-.19 1.41-.58.47-.38.88-.9 1.24-1.57.36-.68.54-1.32.54-1.91 0-1.01-.57-1.16-.91-1.16a.88.88 0 0 0-.27.04l-.07.02-.04.07a2.45 2.45 0 0 1-.56.58l-.05.04-.05.19.13.25.22.07.07-.04a.34.34 0 0 1 .18-.07c.09 0 .24 0 .24.4 0 .33-.08.74-.24 1.21-.17.47-.37.85-.61 1.1-.22.24-.44.36-.68.36a.4.4 0 0 1-.32-.15c-.1-.12-.15-.34-.15-.63a4.22 4.22 0 0 1 .66-2.19c.21-.35.39-.61.55-.79l.1-.11-.34-.46-.15.11c-.06.05-.2.1-.51.1a11.81 11.81 0 0 1-1.31-.07c-.09 0-.28.03-.57.08l-.12.01-.45 1.46.15.18h.36zm39.36 10.7l-.33.22-.23.15a.08.08 0 0 1-.04.02c.01-.24.12-.76.32-1.55.22-.81.43-1.54.65-2.19l.03-.11-.26-.25-.11.03c-.39.1-.76.17-1.09.19l-.18.01-.01.16a6.02 6.02 0 0 1-1.23 2.95c-.35.42-.53.58-.62.63l-.22.11v-.01c0-.06.01-.19.07-.45l.43-1.64c.12-.41.19-.72.24-.92.04-.21.07-.37.07-.5 0-.36-.21-.58-.54-.58-.23 0-.52.09-.88.29-.3.16-.67.39-1.12.69l.01-.05c.02-.15.06-.3.11-.46l.03-.08-.19-.25-.12.01c-.11.02-.35.04-.85.04h-.29c.17-.71.31-1.21.42-1.51l.03-.1-.29-.3-.12.04-.36.12c-.43.14-.73.23-.92.27l-.16.03v.15c0 .24-.03.53-.11.89-.02.14-.05.27-.05.36-.43.13-.78.23-1.04.29l-.06.01-.15.14-.05.3.14.2h.96l-.38 1.67-.3 1.31c-.04.2-.05.36-.05.49 0 .23.06.43.19.58.1.12.29.25.61.25.19 0 .42-.06.69-.2.27-.11.79-.44 1.62-1.01l.06-.05.03-.19-.18-.35-.25-.01-.06.04-.65.41-.26.14c-.09.03-.16.03-.17.01l-.01-.06.01-.14.08-.4.38-1.71.18-.78h.39c.3 0 .58.01.83.03h.08l-.03.18.15.33.25.04.07-.04.54-.3.03-.01v.01c0 .18-.08.68-.45 1.96l-.24.9a2.4 2.4 0 0 0-.04.44c0 .24.06.43.19.56.13.14.31.21.51.21.41 0 .91-.27 1.52-.82.27-.24.51-.48.74-.75-.12.47-.18.77-.18.94 0 .18.04.31.13.42.2.24.57.23 1.01.03.2-.1.67-.41 1.39-.92l.05-.03.05-.21-.2-.34h-.22zm5.67.05a4.1 4.1 0 0 1-.55.33l.02-.18.38-1.9.62-2.74.42-1.64-.32-.26-.11.04c-.67.22-1.41.37-2.17.46l-.06.01-.16.13-.05.36.16.18h.65c.08 0 .1.02.11.02l.01.05c0 .12-.03.32-.08.62l-.13.84c-.53-.1-.9-.07-1.26.05-.21.07-.51.22-.9.46-.39.22-.64.39-.77.5-.14.12-.28.33-.45.64a5.23 5.23 0 0 0-.61 2.46c0 .33.07.61.22.83.16.23.39.35.68.35.42 0 .92-.25 1.53-.79.3-.25.58-.54.85-.87-.13.47-.19.79-.19.98 0 .16.05.31.15.44.2.27.57.29 1.08.06.22-.11.68-.4 1.35-.86l.06-.04.05-.2-.21-.35-.26-.02zm-4.37.55a9.88 9.88 0 0 1 .45-2.57c.17-.56.27-.68.31-.71.06-.05.17-.1.41-.1.21 0 .41.03.58.11l-.06.31a5.95 5.95 0 0 1-1.41 2.96c-.15.13-.22.17-.27.17l-.01-.17zm7.35-.56a7.2 7.2 0 0 1-.72.4c.02-.13.11-.54.48-1.73.18-.57.31-1.02.37-1.25.06-.23.09-.43.09-.58a.56.56 0 0 0-.15-.38.57.57 0 0 0-.41-.17c-.24 0-.56.1-.97.3-.37.19-.89.51-1.55.96l-.08.04-.03.2.2.32.28.01.06-.04c.43-.27.65-.36.75-.4-.02.18-.13.64-.45 1.71l-.29 1c-.04.2-.07.38-.07.54 0 .19.06.35.14.47.08.1.23.22.51.22.14 0 .3-.03.48-.09.17-.05.43-.18.82-.41l.94-.56.06-.04.07-.2-.23-.35-.24-.01zm-.96-6.09a.95.95 0 0 0-.26.67c0 .22.06.41.19.57.13.16.34.25.62.25.3 0 .54-.11.71-.33.15-.2.23-.43.23-.68 0-.22-.07-.4-.21-.55a.88.88 0 0 0-.59-.22c-.28 0-.51.1-.69.29zm4.89 2.38c-.5 0-1.01.11-1.48.35-.48.23-.85.51-1.14.83-.29.33-.48.74-.6 1.23-.12.47-.18.86-.18 1.17 0 .29.05.56.16.82.11.28.3.5.56.67.27.18.64.26 1.11.26.47 0 .9-.09 1.27-.26.36-.17.7-.38 1.03-.62.35-.25.63-.64.83-1.17.19-.51.3-1.03.3-1.52.01-.58-.17-1.02-.52-1.32-.35-.29-.8-.44-1.34-.44zm0 2.87c-.07.39-.17.71-.28.97-.11.23-.22.4-.34.49a.65.65 0 0 1-.38.11c-.21 0-.37-.06-.47-.19-.12-.14-.17-.38-.17-.72 0-.41.06-.88.2-1.41.13-.5.27-.85.42-1.01a.68.68 0 0 1 .5-.22.6.6 0 0 1 .45.19c.11.12.18.38.18.74 0 .31-.04.66-.11 1.05z"/></svg>