<svg xmlns="http://www.w3.org/2000/svg" width="20" height="20" viewBox="0 0 20 20"><path fill="#aaa" d="M19.39 2.96h-1.8V1.77c0-.98-.81-1.77-1.8-1.77s-1.8.79-1.8 1.77v1.19H11.8V1.77C11.8.79 10.99 0 10 0S8.2.79 8.2 1.77v1.19H6.01V1.77C6.01.79 5.2 0 4.21 0s-1.8.79-1.8 1.77v1.19H.61a.6.6 0 0 0-.61.6v13.99A2.47 2.47 0 0 0 2.48 20h15.04c1.37 0 2.48-1.1 2.48-2.45V3.56a.6.6 0 0 0-.61-.6zM1.22 6.77V4.16h1.19v.31c0 .98.81 1.77 1.8 1.77s1.8-.79 1.8-1.77v-.31H8.2v.31c0 .98.81 1.77 1.8 1.77s1.8-.79 1.8-1.77v-.31h2.19v.31c0 .98.81 1.77 1.8 1.77s1.8-.79 1.8-1.77v-.31h1.19v2.61zm14-5c0-.31.26-.56.57-.56.32 0 .57.25.57.56v2.7c0 .31-.25.56-.57.56a.57.57 0 0 1-.57-.56zm-5.79 0c0-.31.25-.56.57-.56.32 0 .57.25.57.56v2.7c0 .31-.25.56-.57.56a.56.56 0 0 1-.57-.56zm-5.22-.56c.31 0 .57.25.57.56v2.7c0 .31-.26.56-.57.56a.56.56 0 0 1-.57-.56v-2.7c0-.31.25-.56.57-.56zm14.57 16.34c0 .69-.57 1.24-1.26 1.24H2.48c-.69 0-1.26-.55-1.26-1.24V7.97h17.56zM3.02 9.95h13.96c.33 0 .61-.27.61-.61 0-.33-.28-.6-.61-.6H3.02a.61.61 0 0 0-.61.6c0 .34.28.61.61.61zm0 2.79h13.96c.33 0 .61-.27.61-.6 0-.33-.28-.6-.61-.6H3.02a.61.61 0 0 0-.61.6c0 .33.28.6.61.6zm-.61 2.2c0-.34.28-.61.61-.61h13.96c.33 0 .61.27.61.61 0 .33-.28.6-.61.6H3.02a.61.61 0 0 1-.61-.6z"/></svg>