<svg xmlns="http://www.w3.org/2000/svg" width="25" height="22" viewBox="0 0 25 22"><path fill="#0aa4e0" d="M22.18 1.83a6.16 6.16 0 0 0-8.76 0L1.36 14a4.74 4.74 0 0 0 0 6.64 4.6 4.6 0 0 0 5.52.77.76.76 0 0 0 .51-.22L19.44 9.02a3.14 3.14 0 0 0 0-4.42 3.08 3.08 0 0 0-4.38 0L5.2 14.56c-.3.3-.3.8 0 1.1.3.31.79.31 1.09 0l9.87-9.95c.6-.62 1.58-.62 2.19 0 .6.61.6 1.6 0 2.21L6.84 19.53a3.06 3.06 0 0 1-4.38 0 3.14 3.14 0 0 1 0-4.42L14.51 2.94a4.63 4.63 0 0 1 6.58 0 4.72 4.72 0 0 1 0 6.64L10.13 20.64c-.3.3-.3.8 0 1.11.3.3.79.3 1.1 0l10.95-11.07a6.28 6.28 0 0 0 0-8.85z"/></svg>