<svg xmlns="http://www.w3.org/2000/svg" width="18.3" height="20.3" viewBox="0 0 18.3 20.3"><path fill="#aaa" d="M9.08 10.93h.13a3.48 3.48 0 0 0 2.74-1.27c1.5-1.79 1.25-4.88 1.23-5.17-.1-2.21-1.08-3.26-1.89-3.76a4.28 4.28 0 0 0-2.1-.58h-.07c-.43 0-1.28.07-2.09.57-.82.49-1.82 1.55-1.91 3.77-.03.29-.28 3.38 1.22 5.17.68.82 1.6 1.25 2.74 1.27zM6.16 4.59v-.03c.13-2.97 2.11-3.29 2.96-3.29h.05c1.05.03 2.84.48 2.96 3.29v.03c.01.03.28 2.85-.96 4.33a2.5 2.5 0 0 1-2.01.89h-.02-.02a2.49 2.49 0 0 1-2-.89c-1.23-1.47-.97-4.3-.96-4.33zm10.8 13.32a.52.52 0 0 1-.2.26c-.12.08-2.92 1.98-7.6 1.98-4.69 0-7.49-1.9-7.61-1.98a.52.52 0 0 1-.2-.26c-.21-.56-.2-1.66-.2-1.88v-.01-.1c.03-.82.08-2.74 1.77-3.35l.04-.02a10.75 10.75 0 0 0 3.23-1.56.5.5 0 0 1 .73.14c.17.25.11.6-.12.77-.07.05-1.62 1.2-3.56 1.73-.91.34-1.01 1.38-1.04 2.32v.1c-.01.38.02.95.08 1.28.64.38 3.12 1.71 6.87 1.71a13.7 13.7 0 0 0 6.87-1.7c.06-.33.08-.91.08-1.28v-.11c-.03-.94-.13-1.97-1.04-2.31-1.94-.53-3.49-1.68-3.56-1.73a.59.59 0 0 1-.12-.78.5.5 0 0 1 .73-.14c.01.02 1.47 1.09 3.23 1.57l.04.01c1.69.61 1.74 2.53 1.77 3.35V16.04c0 .21.01 1.32-.19 1.87z"/><path fill="none" stroke="#aaa" stroke-miterlimit="50" stroke-width=".3" d="M9.08 10.93h.13a3.48 3.48 0 0 0 2.74-1.27c1.5-1.79 1.25-4.88 1.23-5.17-.1-2.21-1.08-3.26-1.89-3.76a4.28 4.28 0 0 0-2.1-.58h-.07c-.43 0-1.28.07-2.09.57-.82.49-1.82 1.55-1.91 3.77-.03.29-.28 3.38 1.22 5.17.68.82 1.6 1.25 2.74 1.27zM6.16 4.59v-.03c.13-2.97 2.11-3.29 2.96-3.29h.05c1.05.03 2.84.48 2.96 3.29v.03c.01.03.28 2.85-.96 4.33a2.5 2.5 0 0 1-2.01.89h-.02-.02a2.49 2.49 0 0 1-2-.89c-1.23-1.47-.97-4.3-.96-4.33zm10.8 13.32a.52.52 0 0 1-.2.26c-.12.08-2.92 1.98-7.6 1.98-4.69 0-7.49-1.9-7.61-1.98a.52.52 0 0 1-.2-.26c-.21-.56-.2-1.66-.2-1.88v-.01-.1c.03-.82.08-2.74 1.77-3.35l.04-.02a10.75 10.75 0 0 0 3.23-1.56.5.5 0 0 1 .73.14c.17.25.11.6-.12.77-.07.05-1.62 1.2-3.56 1.73-.91.34-1.01 1.38-1.04 2.32v.1c-.01.38.02.95.08 1.28.64.38 3.12 1.71 6.87 1.71a13.7 13.7 0 0 0 6.87-1.7c.06-.33.08-.91.08-1.28v-.11c-.03-.94-.13-1.97-1.04-2.31-1.94-.53-3.49-1.68-3.56-1.73a.59.59 0 0 1-.12-.78.5.5 0 0 1 .73-.14c.01.02 1.47 1.09 3.23 1.57l.04.01c1.69.61 1.74 2.53 1.77 3.35V16.04c0 .21.01 1.32-.19 1.87z"/></svg>