<svg xmlns="http://www.w3.org/2000/svg" width="20.4" height="26.4" viewBox="0 0 20.4 26.4"><path fill="#aaa" d="M4.27 16.54c-.04-.35-.04-.7.04-1.09l1.16-5.41A2.3 2.3 0 0 1 7.03 8.3a9.66 9.66 0 0 1 2.75-.34h.76c1.28 0 2.23.17 2.75.34a2.3 2.3 0 0 1 1.56 1.74l1.16 5.41c.08.35.08.74.04 1.09-.04.13-.04.3-.08.43-.24 1.26-1.36 2.08-2.52 1.82a14.5 14.5 0 0 0-6.58 0c-.12 0-.28.04-.44.04-1 0-1.88-.78-2.08-1.86-.04-.13-.04-.26-.08-.43zm.8-.13c0 .13.04.26.08.39.15.72.75 1.22 1.44 1.15v-1.28c0-.26.16-.44.4-.44.24 0 .4.18.4.44v1.12c.26-.05.53-.09.79-.12v-1.44c0-.26.16-.43.4-.43.24 0 .4.17.4.43v1.35l.8-.04V15.8c0-.26.16-.43.4-.43.24 0 .4.17.4.43v1.74l.8.04v-1.35c0-.26.16-.43.4-.43.24 0 .4.17.4.43v1.44c.26.03.53.07.79.12v-1.12c0-.26.16-.44.4-.44.24 0 .4.18.4.44v1.28c.68.09 1.33-.42 1.48-1.15.04-.13.04-.26.08-.39.04-.26.04-.48-.04-.74l-1.16-5.42a1.42 1.42 0 0 0-.96-1.08c-.55-.13-1.39-.3-2.59-.3h-.8c-1.2 0-2.07.17-2.55.3-.48.13-.84.56-.96 1.08l-1.16 5.42c-.04.26-.08.52-.04.74zm10.3 9.78v.01H4.99v-.01A4.7 4.7 0 0 1 .2 21.91c0-.78.24-1.39.68-1.86a2.71 2.71 0 0 1 1.62-.75c-.25-.67-.45-1.46-.58-2.37A5.2 5.2 0 0 1 2 14.85l1.39-6.5c.46-1.59 2.06-2.33 3.6-2.67V4.53H5.87c-.44 0-.8-.21-1.04-.6a1.65 1.65 0 0 1-.16-1.3l.52-1.56c.2-.52.68-.87 1.2-.87h7.54c.52 0 1 .35 1.2.91l.52 1.56c.16.43.08.91-.16 1.3-.16.35-.56.56-1 .56h-1.12v1.16c1.52.33 3.11 1.06 3.56 2.61l1.43 6.55c.16.69.16 1.38.08 2.08-.13.89-.32 1.66-.56 2.32.46.06 1.15.25 1.64.75.44.44.68 1.09.68 1.82-.04.13-.3 4.15-4.83 4.37zM5.87 3.67h8.62c.16 0 .32-.09.4-.22a.5.5 0 0 0 .04-.48l-.52-1.56c-.08-.21-.24-.34-.44-.34H6.39c-.2 0-.4.13-.44.34l-.52 1.56c-.04.18-.04.35.04.48s.24.22.4.22zm1.91.86v1.01c1.25-.19 2.3-.14 2.4-.14.08 0 1.14-.05 2.4.14V4.53zM2.72 16.8c.23 1.55.87 4.1 2.61 4.2h.02c.32-.14 1.66-.6 3.42-.79l.13-.01c.41-.04.84-.07 1.28-.07h.14c2.34.02 4.31.69 4.76.87.75-.05 1.35-.57 1.85-1.56l.2-.39.02.01c.3-.76.47-1.6.57-2.26.08-.57.08-1.17-.07-1.74l-1.48-6.54c-.6-2.08-4.51-2.34-5.99-2.25h-.4c-1.72 0-5.03.39-5.59 2.29l-1.4 6.5a5.36 5.36 0 0 0-.07 1.74zm2.27 8.53v-3.46a3.04 3.04 0 0 1-.66-.23 3.4 3.4 0 0 1-1.46-1.51c-.28 0-.99.05-1.47.52-.28.31-.4.7-.4 1.22 0 .13.24 3.25 3.99 3.46zm.8 0h8.78v-3.59c-.61-.2-2.33-.72-4.31-.74H10.16c-1.99 0-3.73.52-4.37.74zm13.57-3.51c0-.47-.12-.86-.4-1.17a2.17 2.17 0 0 0-1.47-.52c-.54.99-1.25 1.57-2.12 1.71v3.45c3.79-.22 3.99-3.34 3.99-3.47z"/><path fill="none" stroke="#aaa" stroke-miterlimit="50" stroke-width=".4" d="M4.27 16.54c-.04-.35-.04-.7.04-1.09l1.16-5.41A2.3 2.3 0 0 1 7.03 8.3a9.66 9.66 0 0 1 2.75-.34h.76c1.28 0 2.23.17 2.75.34a2.3 2.3 0 0 1 1.56 1.74l1.16 5.41c.08.35.08.74.04 1.09-.04.13-.04.3-.08.43-.24 1.26-1.36 2.08-2.52 1.82a14.5 14.5 0 0 0-6.58 0c-.12 0-.28.04-.44.04-1 0-1.88-.78-2.08-1.86-.04-.13-.04-.26-.08-.43zm.8-.13c0 .13.04.26.08.39.15.72.75 1.22 1.44 1.15v-1.28c0-.26.16-.44.4-.44.24 0 .4.18.4.44v1.12c.26-.05.53-.09.79-.12v-1.44c0-.26.16-.43.4-.43.24 0 .4.17.4.43v1.35l.8-.04V15.8c0-.26.16-.43.4-.43.24 0 .4.17.4.43v1.74l.8.04v-1.35c0-.26.16-.43.4-.43.24 0 .4.17.4.43v1.44c.26.03.53.07.79.12v-1.12c0-.26.16-.44.4-.44.24 0 .4.18.4.44v1.28c.68.09 1.33-.42 1.48-1.15.04-.13.04-.26.08-.39.04-.26.04-.48-.04-.74l-1.16-5.42a1.42 1.42 0 0 0-.96-1.08c-.55-.13-1.39-.3-2.59-.3h-.8c-1.2 0-2.07.17-2.55.3-.48.13-.84.56-.96 1.08l-1.16 5.42c-.04.26-.08.52-.04.74zm10.3 9.78v.01H4.99v-.01A4.7 4.7 0 0 1 .2 21.91c0-.78.24-1.39.68-1.86a2.71 2.71 0 0 1 1.62-.75c-.25-.67-.45-1.46-.58-2.37A5.2 5.2 0 0 1 2 14.85l1.39-6.5c.46-1.59 2.06-2.33 3.6-2.67V4.53H5.87c-.44 0-.8-.21-1.04-.6a1.65 1.65 0 0 1-.16-1.3l.52-1.56c.2-.52.68-.87 1.2-.87h7.54c.52 0 1 .35 1.2.91l.52 1.56c.16.43.08.91-.16 1.3-.16.35-.56.56-1 .56h-1.12v1.16c1.52.33 3.11 1.06 3.56 2.61l1.43 6.55c.16.69.16 1.38.08 2.08-.13.89-.32 1.66-.56 2.32.46.06 1.15.25 1.64.75.44.44.68 1.09.68 1.82-.04.13-.3 4.15-4.83 4.37zM5.87 3.67h8.62c.16 0 .32-.09.4-.22a.5.5 0 0 0 .04-.48l-.52-1.56c-.08-.21-.24-.34-.44-.34H6.39c-.2 0-.4.13-.44.34l-.52 1.56c-.04.18-.04.35.04.48s.24.22.4.22zm1.91.86v1.01c1.25-.19 2.3-.14 2.4-.14.08 0 1.14-.05 2.4.14V4.53zM2.72 16.8c.23 1.55.87 4.1 2.61 4.2h.02c.32-.14 1.66-.6 3.42-.79l.13-.01c.41-.04.84-.07 1.28-.07h.14c2.34.02 4.31.69 4.76.87.75-.05 1.35-.57 1.85-1.56l.2-.39.02.01c.3-.76.47-1.6.57-2.26.08-.57.08-1.17-.07-1.74l-1.48-6.54c-.6-2.08-4.51-2.34-5.99-2.25h-.4c-1.72 0-5.03.39-5.59 2.29l-1.4 6.5a5.36 5.36 0 0 0-.07 1.74zm2.27 8.53v-3.46a3.04 3.04 0 0 1-.66-.23 3.4 3.4 0 0 1-1.46-1.51c-.28 0-.99.05-1.47.52-.28.31-.4.7-.4 1.22 0 .13.24 3.25 3.99 3.46zm.8 0h8.78v-3.59c-.61-.2-2.33-.72-4.31-.74H10.16c-1.99 0-3.73.52-4.37.74zm13.57-3.51c0-.47-.12-.86-.4-1.17a2.17 2.17 0 0 0-1.47-.52c-.54.99-1.25 1.57-2.12 1.71v3.45c3.79-.22 3.99-3.34 3.99-3.47z"/></svg>