<svg xmlns="http://www.w3.org/2000/svg" width="18" height="18" viewBox="0 0 18 18"><path fill="#444" d="M16.2 0H1.8C.81 0 0 .81 0 1.8v14.4c0 .99.81 1.8 1.8 1.8h14.4c.99 0 1.8-.81 1.8-1.8V1.8c0-.99-.81-1.8-1.8-1.8zM8.89 5.33a3.56 3.56 0 1 1-3.56 3.56c0-1.96 1.6-3.56 3.56-3.56zM2.23 16c-.27 0-.45-.18-.45-.44V8h1.89c-.09.27-.09.62-.09.89A5.4 5.4 0 0 0 9 14.22a5.4 5.4 0 0 0 5.42-5.33c0-.27 0-.62-.09-.89h1.89v7.56c0 .26-.18.44-.45.44zM16.22 4c0 .27-.18.44-.44.44H14c-.27 0-.44-.17-.44-.44V2.22c0-.26.17-.44.44-.44h1.78c.26 0 .44.18.44.44z"/></svg>