<svg xmlns="http://www.w3.org/2000/svg" width="50" height="56" viewBox="0 0 50 56"><path fill="#f5a623" d="M0 50V0h50v50z"/><path fill="#fff" d="M27.94 20.66l.34-2.72-4.62 1.64c-.23.08-.25.3-.28.5-.52 3.81-1.03 7.61-1.58 11.42-.08.58.08.55.5.39 1.27-.47 2.54-.92 3.82-1.35.31-.11.48-.26.53-.62.11-.98.27-1.95.41-3l-2.87 1.01c-.02-.68.13-1.29.21-1.9.03-.23.25-.24.41-.3l9.82-3.5c.42-.16.49-.11.42.37a75.64 75.64 0 0 0-.53 3.97 4.54 4.54 0 0 1-1.8 3.13 7.86 7.86 0 0 1-2.41 1.31l-12.79 4.57c-.75.27-1.51.49-2.32.4-.88-.1-1.3-.66-1.18-1.57l1.52-11.18a4.52 4.52 0 0 1 1.94-3.05 7.8 7.8 0 0 1 2.21-1.16l12.96-4.62a4.12 4.12 0 0 1 2.32-.34c.76.17 1.08.54 1.02 1.33-.05.76-.18 1.51-.25 2.27-.03.24-.19.29-.35.35l-7.45 2.65"/><path fill="#f5a623" d="M21 50l4 6 4-6z"/></svg>