<svg xmlns="http://www.w3.org/2000/svg" width="140" height="62" viewBox="0 0 140 62"><path fill="#f5a623" d="M96.91 3.1c-.09.29-.35.33-.57.41L69.6 12.85c-5.66 1.98-11.32 3.96-16.99 5.92-.33.12-.51.25-.54.65l-.95 15.78c-.01.12.01.23.03.42l4.58-1.67c1.83-.67 2.81.03 2.85 2.04.05 2.56.08 5.13.11 7.69.01 1.46-.35 2.78-1.49 3.76-.28.23-.21.45-.12.72.52 1.61 1.01 3.23 1.55 4.83.15.45.06.6-.36.74-1.37.47-2.73.96-4.07 1.5-.51.21-.66.03-.8-.43-.46-1.52-.95-3.04-1.44-4.56-.08-.24-.04-.7-.5-.48-.44.2-1.21-.22-1.26.73-.13 2.48-.32 4.96-.42 7.44-.03 1.03.13 1.37-2.24 2.31s-3.27 1.49-3.27 1.2c.04-2.98.32-5.95.49-8.92l.52-8.7.99-17.63c.09-1.55.13-3.1.26-4.65.05-.61-.14-.59-.59-.43L37 24.24l-7.99 2.78c-.08-1.33.3-2.53.43-3.75.04-.35.45-.33.71-.42l15.06-5.09L91.62 2.08 97.81 0l-.9 3.1zM17.05 36.04l.41-3.29-5.65 1.99c-.29.1-.31.36-.34.6-.64 4.6-1.27 9.2-1.93 13.79-.11.7.09.67.61.48 1.54-.57 3.1-1.11 4.66-1.64.39-.13.6-.3.65-.75.14-1.17.33-2.34.51-3.62l-3.52 1.23c-.02-.82.16-1.56.26-2.3.04-.28.31-.29.51-.36 3.99-1.41 8-2.81 11.99-4.23.52-.19.61-.13.52.44-.25 1.6-.47 3.2-.65 4.8a5.42 5.42 0 0 1-2.2 3.79 9.84 9.84 0 0 1-2.94 1.58L4.3 54.06c-.92.33-1.84.6-2.83.49-1.08-.12-1.6-.8-1.44-1.9l1.85-13.5a5.45 5.45 0 0 1 2.37-3.68 9.59 9.59 0 0 1 2.71-1.41c5.28-1.86 10.55-3.73 15.84-5.58a5.19 5.19 0 0 1 2.83-.41c.93.21 1.32.66 1.26 1.61-.07.91-.23 1.82-.32 2.73-.03.31-.23.36-.42.43l-9.1 3.2"/><path fill="#f5a623" d="M87.64 35.64c0 2.18-.01 4.35.02 6.53 0 .47-.13.71-.59.86-1.21.4-2.43.81-3.62 1.28-.64.25-.73.04-.73-.54-.02-4.18-.07-8.36-.1-12.55-.01-.83 0-.83-.78-.56-1.88.66-1.89.66-1.87 2.64.04 3.82.07 7.63.13 11.45.01.56-.15.82-.69.99-1.24.4-2.47.86-3.69 1.31-.46.17-.6.08-.6-.42-.02-5.11-.06-10.23-.12-15.34 0-.37.13-.51.45-.63l10.04-3.55c.95-.33 1.65.08 1.9 1.05.15.6.12 1.22.12 1.83v5.65zM120.04 28.11l7.49-2.63.06.14c.16 2 .17 2.01-1.74 2.69a2562 2562 0 0 1-8.03 2.83c-1.56.54-2.64-.13-2.68-1.76-.09-3.77-.13-7.54-.14-11.32 0-1.52.88-2.61 2.33-3.13l7.75-2.73c1.56-.54 2.36.01 2.39 1.66.06 2.9.07 5.8.15 8.69.01.52-.18.71-.64.87-2.13.72-4.24 1.5-6.37 2.22-.45.15-.62.36-.58.83.04.51.01 1.02.01 1.64M62.41 37.18V35.2c-.01-.3.22-.35.43-.42 2.55-.9 5.09-1.8 7.65-2.67 1.15-.39 1.96.27 1.99 1.61.06 2.29.09 4.57.11 6.86.03 2.16.02 4.32.06 6.48.02.51-.16.72-.63.88-3.05 1.05-6.08 2.12-9.12 3.18-1.68.58-2.74-.1-2.8-1.85-.07-2.14-.11-4.27-.1-6.41.01-1.8.81-2.82 2.55-3.43 1.49-.52 2.98-1.06 4.49-1.56.43-.15.56-.36.55-.79-.02-1.72 0-1.72-1.62-1.16l-3.56 1.26M95.61 28.84v-2.5c-.87.3-1.65.58-2.44.84-.25.09-.24.27-.24.47.01 1.31.03 2.63.01 3.94 0 .55.29.37.57.27 1.6-.56 3.2-1.14 4.81-1.69 1.33-.46 2.13.04 2.2 1.43.08 1.65.27 3.31-.02 4.95a3.74 3.74 0 0 1-2.66 3.12c-2.33.8-4.65 1.64-6.98 2.45-1.63.57-2.57-.04-2.73-1.76-.18-1.98-.18-1.98 1.72-2.65.91-.32 1.82-.63 2.72-.96.36-.13.5-.06.49.33-.02.54 0 1.07-.01 1.61-.01.31.11.38.4.27.62-.23 1.25-.45 1.88-.66.25-.08.37-.21.37-.47l-.07-4.08c0-.46-.27-.3-.49-.22l-4.18 1.48c-1.86.65-2.88-.04-2.93-1.98a99.86 99.86 0 0 1-.02-3.87c.02-1.62.81-2.7 2.36-3.24l7.74-2.73c1.47-.51 2.29.02 2.37 1.56.03.75.24 1.63-.07 2.23-.31.61-1.32.6-2.02.87-.89.34-1.8.64-2.78.99M129.01 19.53c0-2.5.01-5-.01-7.5 0-.45.08-.71.54-.87 2.72-.98 5.42-2.01 8.14-3.01 1.17-.43 1.98.07 2.02 1.35.08 2.35.08 4.71.07 7.06 0 .93-.36 1.74-1.05 2.35-.3.26-.23.48-.13.77.39 1.25.76 2.5 1.17 3.74.12.35.09.52-.28.64a78.6 78.6 0 0 0-3.23 1.2c-.38.16-.48.03-.59-.32a84.45 84.45 0 0 0-1.1-3.52c-.07-.21.02-.73-.46-.55-.38.14-.92.09-.89.82.07 1.36.03 2.73.08 4.09.01.45-.13.65-.54.79-1.02.35-2.03.72-3.03 1.12-.46.19-.57.05-.57-.43.02-2.58.01-5.15.01-7.73h-.15M113.76 13l.06.17c.13 2.06.12 2.06-1.79 2.76l-2.33.85c-.43.17-.78 1.57-.47 1.91.17.17.36 0 .53-.06l3.08-1.12c0 .67-.02 1.24 0 1.8.02.36-.1.54-.43.65-.85.29-1.68.64-2.53.91-.53.16-.7.42-.69 1 .07 4.3.09 8.59.16 12.89.01.56-.14.83-.67 1.01-1.2.39-2.38.84-3.55 1.3-.48.18-.6.09-.6-.44-.03-4.32-.1-8.65-.12-12.97 0-.61-.11-.81-.71-.51-.39.19-.81.3-1.22.46-.32.13-.46.03-.43-.31l-.01-.08c-.11-1.71-.12-1.76 1.47-2.26.7-.23.98-.57.88-1.31-.05-.34-.01-.7.02-1.05.15-1.47.78-2.52 2.27-3.02 2.37-.79 4.69-1.7 7.08-2.58M44.82 27c-.07.55-.13.99-.17 1.44-.04.39-.33.43-.6.53-2.13.76-4.25 1.53-6.39 2.27-.41.15-.6.34-.65.82-.14 1.25-.35 2.5-.54 3.86l5.72-2.03c.14.54-.09 1.01-.11 1.5-.01.33-.33.33-.53.41-1.52.55-3.03 1.11-4.55 1.61-.55.18-.83.41-.89 1.05-.1 1.2-.31 2.4-.49 3.7l6.19-2.21c.07-.02.14-.07.2-.07.35-.01.71-.52 1.01-.1.23.32-.19 1.39-.57 1.55-.8.34-1.61.64-2.42.94l-8.08 2.89c-.52.18-1.05.35-1.61.36-.98.02-1.45-.48-1.32-1.48.42-3.23.87-6.46 1.32-9.7a3.4 3.4 0 0 1 1.05-1.91 5.52 5.52 0 0 1 1.93-1.28c3.79-1.38 7.59-2.74 11.5-4.15M78.85 28.13l11.99-4.52c1.68-.63 3.36-1.29 5.06-1.89.52-.18.61-.37.37-.88a41.6 41.6 0 0 1-1.85-4.72 2.48 2.48 0 0 0-1.04-1.42c-.53-.35-.78-.96-1.11-1.49-.27-.45-.59-.65-1.11-.59a7.08 7.08 0 0 1-2.05-.13c-.38.06-.58-.27-.86-.44-.83-.5-1.63-1.05-2.45-1.58-.21-.16-.44-.29-.56-.55-.52-.41-1.09-.36-1.69-.24a81.15 81.15 0 0 0-8.39 2.13c-.15.06-.18-.02-.15-.15a33.92 33.92 0 0 1 8.91-2.62c.67-.12 1.31.04 1.89.44 1.05.71 2.14 1.36 3.18 2.08.63.44 1.29.58 2.02.48.9-.12 1.56.15 2.01 1 .31.6.7 1.14 1.3 1.51.37.24.53.67.67 1.09A62.46 62.46 0 0 0 97 20.76c.29.7.16 1.09-.5 1.33l-17.36 6.17c-.15.08-.29.13-.29-.13"/><path fill="#f5a623" d="M75.7 12.43c2.94-1.27 6-2.04 9.16-2.42.22-.02.42-.01.63.04.28.08.56.18.8.36 1.1.78 2.28 1.43 3.32 2.3-1.3.49-2.67.72-4.01 1.08-4.08 1.1-8 2.7-11.99 4.1l-.34.09c-.14.08-.27.15-.27-.12 4.94-1.84 9.79-3.92 15.04-5.31-.94-.65-1.74-1.27-2.6-1.79-.63-.37-1.35-.13-2.02-.05-2.59.3-5.07 1.11-7.56 1.86-.14.06-.18 0-.16-.14M74 27.87l17.42-6.08c1.16-.4 2.33-.8 3.14-1.79-.24 1.06-1.01 1.62-1.98 1.95-1.9.64-3.81 1.24-5.71 1.88l-12.15 4.06c-.13.05-.28.07-.42.11-.14.05-.29.13-.3-.13M83 19.73c1.96-1.22 3.91-.7 5.85.06.49.19.61.67.33 1.13-.22.36-.53.63-.94.74-.65.19-1.31.36-1.96.53-.15.08-.16 0-.14-.12.62-.27 1.24-.52 1.85-.82.31-.14.62-.36.59-.75-.04-.35-.41-.3-.65-.38-1.16-.41-2.31-.94-3.6-.55-.34.11-.69.2-1.03.3-.14.04-.3.12-.3-.14M90.72 18.86a7.3 7.3 0 0 0 1.56-.98c.63-.52.75-1.21.38-1.82-.34-.58-.81-.66-1.6-.22-1.04.58-1.89 1.45-2.89 2.11-.16.06-.19-.02-.16-.17a12.51 12.51 0 0 1 3.34-2.55c.64-.29 1.26-.4 1.78.27.56.71.55 1.5-.08 2.19a4.83 4.83 0 0 1-2.17 1.32c-.13.05-.18 0-.16-.15M90 11.37c.24-.53.58-.74 1.03-.83.71-.15 1.41-.39 2.12-.53.55-.1 1.33.42 1.55.94.15.36-.08.49-.31.6-.2.08-.3.14-.41-.24-.13-.46-.54-.95-1.21-.76-.9.26-1.87.24-2.77.82"/><path fill="#f5a623" d="M89.15 13.42c-1.12-.61-2.09-1.5-3.14-2.24-.02-.14 0-.22.15-.16 1.02.7 2.04 1.4 3 2.21l-.01.19M79.64 28l.31.15-3.85 1.46-.1-.28L79.64 28M73.09 28l.28.11c-.71.3-1.47.49-2.22.7-.05-.04-.14-.03-.15-.11.66-.31 1.38-.49 2.09-.7M83.29 20l.29.16-1.51.65-.07-.2c.41-.25.83-.47 1.29-.61M72.31 18l.27.14c-.44.33-.94.48-1.43.67a.26.26 0 0 1-.15-.16c.41-.31.86-.49 1.31-.65M70.58 30.16l-1.42.65a.22.22 0 0 1-.16-.14c.43-.34.93-.45 1.4-.67.07.04.16.04.18.16M86.79 10.58l-.15.23-.64-.64.24-.17.55.58M68.04 19.23c.2-.06.37-.33.75-.19-.3.22-.51.33-.75.35-.04-.04-.05-.08-.04-.11l.04-.05M87.58 17l.21.2-.79.61c.07-.42.3-.64.58-.81M71.16 29.38l-.16-.15.64-.23.15.14-.63.24M75.79 30.13c-.32.09-.48.28-.79.14.22-.26.4-.38.79-.14M68.65 30l.14.12-.65.24c-.14.09-.15 0-.13-.14l.64-.22M74.79 31.13l-.79.21c.23-.42.49-.4.79-.21M90.61 19l.18.27c-.21.35-.49.35-.79.54.1-.7.41-.62.61-.81M75.6 12l.19.15c-.22.17-.48.2-.79.25.1-.31.38-.32.6-.4M68.63 31l.16.22c-.2.41-.49.32-.79.59.1-.77.43-.6.63-.81M71.61 19l.18.14c-.26.06-.47.29-.79.17.14-.24.38-.27.61-.31M70 19.3c.16-.3.38-.4.79-.18l-.79.18M73 31.27c.2-.3.42-.34.79-.18-.26.17-.46.22-.79.18M86.79 23.17c-.23.17-.47.22-.79.06l.62-.23c.06.05.16.06.17.17M70.72 32.12l-.72.23c.22-.22.44-.39.74-.34.05.03.06.06.04.08l-.06.03M75.58 11l.21.17c-.22.17-.48.22-.79.19.08-.3.34-.31.58-.36M66 32.21c.24-.15.53-.35.78-.07.08.09-.25.1-.41.12-.14.07-.27.05-.37-.05"/><path fill="#f5a623" d="M66.45 32l.34.05c-.11.05-.22.13-.34.14-.15.02-.42.2-.45-.04-.02-.2.29-.12.45-.15M71 32.32c-.01-.05 0-.08.03-.12.17-.26.45-.22.76-.13-.19.22-.52.18-.79.25M90.79 19c-.25.36-.53.19-.79.32.14-.34.43-.26.79-.32M88 19.13c.38-.07.55-.11.72-.13.01 0 .09.09.07.11-.15.17-.36.13-.79.02M86.21 23.33a3.13 3.13 0 0 0-.21-.17l.59-.16.2.14c-.14.17-.37.17-.58.19M68.39 19v.16c-.1.15-.37.23-.38.14-.05-.24.23-.22.38-.3M94 11.2c.16-.18.47-.26.66-.15.34.2-.08.18-.26.2-.12.01-.25-.03-.4-.05"/><path fill="#222" d="M53.16 37v8.95c0 .34-.13.5-.42.6-.77.26-1.53.54-2.27.85-.46.19-.49-.03-.46-.41.18-2.82.36-5.65.52-8.47.02-.38.11-.61.48-.73.65-.21 1.28-.47 2.15-.79M122.37 16v6.93c0 .23-.07.36-.26.43-.62.25-1.37.86-1.83.65-.5-.23-.17-1.29-.19-1.98-.06-1.47-.04-2.95-.09-4.43-.01-.5.14-.74.56-.87.56-.19 1.11-.45 1.81-.73M65 48.05v-6.84c0-.29.1-.45.34-.53.54-.2 1.07-.41 1.59-.63.29-.12.4-.03.4.3l.04 6.38c.01.3-.1.43-.34.52l-2.03.8M135.36 14.66c0 .98-.02 1.95.01 2.93.02.48-.12.71-.53.84-.46.14-.9.35-1.34.55-.31.13-.47.12-.47-.35.01-2.1-.01-4.2-.03-6.3 0-.36.1-.54.4-.65.49-.18.98-.39 1.46-.61.33-.15.46-.08.45.37-.02 1.07 0 2.15 0 3.22h.05"/></svg>