<svg xmlns="http://www.w3.org/2000/svg" width="54.2" height="31" viewBox="0 0 54.2 31"><path fill="#aaa" d="M39.19 1.41a2 2 0 0 0-1.78-.33L3.32 11.02H2.03c-1.12 0-2.03.92-2.03 2.06v5.59c0 1.13.91 2.05 2.03 2.05h1.29l6.36 1.85v2.23a4.17 4.17 0 0 0 2.96 3.99l7.11 2.07a3.34 3.34 0 0 0 2.99-.56 3.4 3.4 0 0 0 1.36-2.75v-.77l13.31 3.88a2 2 0 0 0 1.78-.33c.51-.39.81-.99.81-1.64V3.05c0-.65-.3-1.24-.81-1.64zM4.06 19.57v-7.4l31.88-9.3v26zm-2.76-.9v-5.59c0-.41.33-.75.73-.75h.73v7.08h-.73a.74.74 0 0 1-.73-.74zm21.51 8.88a2.13 2.13 0 0 1-2.71 2.05L13 27.53a2.86 2.86 0 0 1-2.03-2.73v-1.85l11.84 3.45zm15.89 1.14c0 .24-.1.45-.29.59a.68.68 0 0 1-.64.12l-.53-.15V2.5l.53-.16a.74.74 0 0 1 .64.12c.19.14.29.36.29.59zM33.75 5.74a.64.64 0 0 0-.8-.45l-1.38.4a.66.66 0 0 0-.44.81c.08.29.34.48.62.48l.18-.03 1.38-.4c.35-.1.54-.46.44-.81zm-4.14 1.21c.1.35-.1.71-.45.81L18.8 10.78a.57.57 0 0 1-.18.03.67.67 0 0 1-.63-.47.67.67 0 0 1 .45-.82L28.8 6.5c.35-.1.71.1.81.45zM45.85 11.58c1.36 2.05 1.36 6.05 0 8.07a.48.48 0 0 1-.39.19.6.6 0 0 1-.23-.05c-.22-.1-.3-.34-.17-.53 1.22-1.79 1.21-5.49 0-7.31-.13-.18-.05-.41.17-.52.22-.1.5-.04.62.15zm2.76-2.21a20.2 20.2 0 0 1 0 12.49c-.04.18-.23.3-.43.3l-.12-.02c-.24-.05-.39-.26-.33-.47a19.72 19.72 0 0 0 0-12.11c-.06-.21.09-.41.33-.47.25-.05.49.07.55.28zm2.72-3.09c-.07-.21-.31-.32-.56-.26-.24.06-.38.27-.31.47a28.48 28.48 0 0 1 0 19.02c-.07.21.08.41.31.47l.13.02c.2 0 .38-.11.43-.28a29.08 29.08 0 0 0 0-19.44z"/><path fill="none" stroke="#aaa" stroke-miterlimit="50" stroke-width=".4" d="M45.85 11.58c1.36 2.05 1.36 6.05 0 8.07a.48.48 0 0 1-.39.19.6.6 0 0 1-.23-.05c-.22-.1-.3-.34-.17-.53 1.22-1.79 1.21-5.49 0-7.31-.13-.18-.05-.41.17-.52.22-.1.5-.04.62.15zm2.76-2.21a20.2 20.2 0 0 1 0 12.49c-.04.18-.23.3-.43.3l-.12-.02c-.24-.05-.39-.26-.33-.47a19.72 19.72 0 0 0 0-12.11c-.06-.21.09-.41.33-.47.25-.05.49.07.55.28zm2.72-3.09c-.07-.21-.31-.32-.56-.26-.24.06-.38.27-.31.47a28.48 28.48 0 0 1 0 19.02c-.07.21.08.41.31.47l.13.02c.2 0 .38-.11.43-.28a29.08 29.08 0 0 0 0-19.44z"/></svg>