<svg xmlns="http://www.w3.org/2000/svg" width="17.26" height="20.3" viewBox="0 0 17.26 20.3"><path fill="#fff" d="M9.26 4.15a4.16 4.16 0 0 0-4.13 4.18c0 2.3 1.85 4.18 4.13 4.18a4.15 4.15 0 0 0 4.13-4.18c0-2.3-1.85-4.18-4.13-4.18zm0 7.36a3.17 3.17 0 0 1-3.14-3.18 3.16 3.16 0 0 1 3.14-3.17 3.16 3.16 0 0 1 3.14 3.17 3.17 3.17 0 0 1-3.14 3.18z"/><path fill="none" stroke="#fff" stroke-miterlimit="50" stroke-width=".3" d="M9.26 4.15a4.16 4.16 0 0 0-4.13 4.18c0 2.3 1.85 4.18 4.13 4.18a4.15 4.15 0 0 0 4.13-4.18c0-2.3-1.85-4.18-4.13-4.18zm0 7.36a3.17 3.17 0 0 1-3.14-3.18 3.16 3.16 0 0 1 3.14-3.17 3.16 3.16 0 0 1 3.14 3.17 3.17 3.17 0 0 1-3.14 3.18z"/><path fill="#fff" d="M9.11.15h-.29a8.03 8.03 0 0 0-7.49 9.86c.12.55.3 1.09.53 1.59.82 1.97 2.62 5 6.52 8.28a1.16 1.16 0 0 0 1.47 0c3.89-3.28 5.69-6.31 6.51-8.27.23-.51.41-1.05.54-1.59l.05-.26A8.03 8.03 0 0 0 9.11.15zm6.86 9.44l-.04.2c-.11.48-.27.95-.48 1.42-.78 1.86-2.49 4.75-6.24 7.89-.04.03-.07.04-.1.04a.19.19 0 0 1-.1-.04c-3.75-3.15-5.46-6.03-6.25-7.91-.2-.45-.36-.92-.47-1.4l-.04-.2v-.02a7.03 7.03 0 0 1 6.61-8.41 7.04 7.04 0 0 1 7.11 8.43z"/><path fill="none" stroke="#fff" stroke-miterlimit="50" stroke-width=".3" d="M9.11.15h-.29a8.03 8.03 0 0 0-7.49 9.86c.12.55.3 1.09.53 1.59.82 1.97 2.62 5 6.52 8.28a1.16 1.16 0 0 0 1.47 0c3.89-3.28 5.69-6.31 6.51-8.27.23-.51.41-1.05.54-1.59l.05-.26A8.03 8.03 0 0 0 9.11.15zm6.86 9.44l-.04.2c-.11.48-.27.95-.48 1.42-.78 1.86-2.49 4.75-6.24 7.89-.04.03-.07.04-.1.04a.19.19 0 0 1-.1-.04c-3.75-3.15-5.46-6.03-6.25-7.91-.2-.45-.36-.92-.47-1.4l-.04-.2v-.02a7.03 7.03 0 0 1 6.61-8.41 7.04 7.04 0 0 1 7.11 8.43z"/></svg>