<svg xmlns="http://www.w3.org/2000/svg" width="18.2" height="24.2" viewBox="0 0 18.2 24.2"><path fill="#aaa" d="M3.76 15.18c-.03-.32-.03-.64.04-1l1.04-5c.18-.76.69-1.4 1.4-1.6a8.42 8.42 0 0 1 2.48-.32h.69c1.15 0 2.01.16 2.47.32.69.2 1.23.8 1.41 1.6l1.04 5c.07.32.07.68.03 1-.03.12-.03.28-.07.4-.21 1.16-1.22 1.92-2.26 1.68a12.85 12.85 0 0 0-2.95-.36c-.93 0-1.94.12-2.98.36-.11 0-.25.04-.4.04-.89 0-1.68-.72-1.86-1.72-.04-.12-.04-.24-.08-.4zm.72-.12c0 .12.04.24.08.36.13.67.67 1.13 1.29 1.06V15.3c0-.24.14-.4.36-.4.21 0 .36.16.36.4v1.04l.72-.12V14.9c0-.24.14-.4.35-.4.22 0 .36.16.36.4v1.25c.25-.02.48-.04.72-.04V14.5c0-.24.15-.4.36-.4.22 0 .36.16.36.4v1.61c.24 0 .48.02.72.04V14.9c0-.24.14-.4.36-.4.21 0 .36.16.36.4v1.32a9 9 0 0 1 .72.12V15.3c0-.24.14-.4.36-.4.21 0 .36.16.36.4v1.18c.6.09 1.19-.38 1.32-1.06.04-.12.04-.24.08-.36.03-.24.03-.44-.04-.68l-1.04-5c-.11-.48-.43-.88-.86-1a9.64 9.64 0 0 0-2.34-.28h-.72c-1.08 0-1.87.16-2.3.28-.43.12-.75.52-.86 1l-1.04 5a2.3 2.3 0 0 0-.04.68zm9.27 9.03v.01H4.41v-.01A4.3 4.3 0 0 1 .1 20.14c0-.72.22-1.28.61-1.72a2.45 2.45 0 0 1 1.46-.69c-.23-.62-.4-1.35-.53-2.19-.1-.64-.07-1.28.08-1.92l1.25-6c.41-1.46 1.86-2.14 3.24-2.46V4.1H5.2c-.39 0-.72-.2-.93-.56-.22-.36-.25-.8-.15-1.2L4.59.9C4.77.42 5.2.1 5.67.1h6.79c.47 0 .9.32 1.08.84L14 2.38c.15.4.08.84-.14 1.2-.14.32-.5.52-.9.52h-1v1.06c1.36.32 2.79.99 3.19 2.42l1.3 6.04c.14.64.14 1.28.07 1.92-.12.82-.29 1.54-.51 2.15.42.05 1.03.22 1.48.69.39.4.61 1 .61 1.68-.03.12-.27 3.82-4.35 4.03zM5.2 3.3h7.76c.15 0 .29-.08.36-.2a.48.48 0 0 0 .04-.44l-.47-1.44c-.07-.2-.22-.32-.39-.32H5.67a.4.4 0 0 0-.4.32l-.46 1.44c-.04.16-.04.32.03.44s.22.2.36.2zm1.73.8v.93c1.12-.17 2.06-.13 2.15-.13.08 0 1.03-.04 2.16.13V4.1zM2.36 15.42c.22 1.44.79 3.79 2.36 3.88h.02c.28-.13 1.49-.56 3.07-.73l.12-.01c.37-.04.76-.06 1.15-.06h.13c2.1.02 3.88.63 4.28.8.68-.05 1.22-.52 1.66-1.44l.18-.36.03.01c.27-.7.42-1.48.51-2.09.07-.52.07-1.08-.07-1.6l-1.33-6.04c-.54-1.92-4.06-2.16-5.39-2.08h-.36c-1.54 0-4.52.36-5.03 2.12l-1.25 6a4.8 4.8 0 0 0-.08 1.6zm2.05 7.88v-3.2a2.2 2.2 0 0 1-.59-.21 3.02 3.02 0 0 1-1.31-1.39c-.26 0-.9.04-1.33.48-.25.28-.36.64-.36 1.12 0 .12.21 3 3.59 3.2zm.72 0h7.9v-3.31c-.55-.19-2.09-.67-3.87-.69H9.07c-1.79 0-3.37.48-3.94.68zm12.22-3.24c0-.44-.11-.8-.36-1.08-.43-.44-1.08-.48-1.33-.48-.49.91-1.13 1.45-1.91 1.57v3.19c3.42-.2 3.6-3.08 3.6-3.2z"/><path fill="none" stroke="#aaa" stroke-miterlimit="50" stroke-width=".2" d="M3.76 15.18c-.03-.32-.03-.64.04-1l1.04-5c.18-.76.69-1.4 1.4-1.6a8.42 8.42 0 0 1 2.48-.32h.69c1.15 0 2.01.16 2.47.32.69.2 1.23.8 1.41 1.6l1.04 5c.07.32.07.68.03 1-.03.12-.03.28-.07.4-.21 1.16-1.22 1.92-2.26 1.68a12.85 12.85 0 0 0-2.95-.36c-.93 0-1.94.12-2.98.36-.11 0-.25.04-.4.04-.89 0-1.68-.72-1.86-1.72-.04-.12-.04-.24-.08-.4zm.72-.12c0 .12.04.24.08.36.13.67.67 1.13 1.29 1.06V15.3c0-.24.14-.4.36-.4.21 0 .36.16.36.4v1.04l.72-.12V14.9c0-.24.14-.4.35-.4.22 0 .36.16.36.4v1.25c.25-.02.48-.04.72-.04V14.5c0-.24.15-.4.36-.4.22 0 .36.16.36.4v1.61c.24 0 .48.02.72.04V14.9c0-.24.14-.4.36-.4.21 0 .36.16.36.4v1.32a9 9 0 0 1 .72.12V15.3c0-.24.14-.4.36-.4.21 0 .36.16.36.4v1.18c.6.09 1.19-.38 1.32-1.06.04-.12.04-.24.08-.36.03-.24.03-.44-.04-.68l-1.04-5c-.11-.48-.43-.88-.86-1a9.64 9.64 0 0 0-2.34-.28h-.72c-1.08 0-1.87.16-2.3.28-.43.12-.75.52-.86 1l-1.04 5a2.3 2.3 0 0 0-.04.68zm9.27 9.03v.01H4.41v-.01A4.3 4.3 0 0 1 .1 20.14c0-.72.22-1.28.61-1.72a2.45 2.45 0 0 1 1.46-.69c-.23-.62-.4-1.35-.53-2.19-.1-.64-.07-1.28.08-1.92l1.25-6c.41-1.46 1.86-2.14 3.24-2.46V4.1H5.2c-.39 0-.72-.2-.93-.56-.22-.36-.25-.8-.15-1.2L4.59.9C4.77.42 5.2.1 5.67.1h6.79c.47 0 .9.32 1.08.84L14 2.38c.15.4.08.84-.14 1.2-.14.32-.5.52-.9.52h-1v1.06c1.36.32 2.79.99 3.19 2.42l1.3 6.04c.14.64.14 1.28.07 1.92-.12.82-.29 1.54-.51 2.15.42.05 1.03.22 1.48.69.39.4.61 1 .61 1.68-.03.12-.27 3.82-4.35 4.03zM5.2 3.3h7.76c.15 0 .29-.08.36-.2a.48.48 0 0 0 .04-.44l-.47-1.44c-.07-.2-.22-.32-.39-.32H5.67a.4.4 0 0 0-.4.32l-.46 1.44c-.04.16-.04.32.03.44s.22.2.36.2zm1.73.8v.93c1.12-.17 2.06-.13 2.15-.13.08 0 1.03-.04 2.16.13V4.1zM2.36 15.42c.22 1.44.79 3.79 2.36 3.88h.02c.28-.13 1.49-.56 3.07-.73l.12-.01c.37-.04.76-.06 1.15-.06h.13c2.1.02 3.88.63 4.28.8.68-.05 1.22-.52 1.66-1.44l.18-.36.03.01c.27-.7.42-1.48.51-2.09.07-.52.07-1.08-.07-1.6l-1.33-6.04c-.54-1.92-4.06-2.16-5.39-2.08h-.36c-1.54 0-4.52.36-5.03 2.12l-1.25 6a4.8 4.8 0 0 0-.08 1.6zm2.05 7.88v-3.2a2.2 2.2 0 0 1-.59-.21 3.02 3.02 0 0 1-1.31-1.39c-.26 0-.9.04-1.33.48-.25.28-.36.64-.36 1.12 0 .12.21 3 3.59 3.2zm.72 0h7.9v-3.31c-.55-.19-2.09-.67-3.87-.69H9.07c-1.79 0-3.37.48-3.94.68zm12.22-3.24c0-.44-.11-.8-.36-1.08-.43-.44-1.08-.48-1.33-.48-.49.91-1.13 1.45-1.91 1.57v3.19c3.42-.2 3.6-3.08 3.6-3.2z"/></svg>