<svg xmlns="http://www.w3.org/2000/svg" width="20" height="20" viewBox="0 0 20 20"><path fill="#fff" d="M18.92 1.08a3.63 3.63 0 0 0-5.19 0L2.68 12.06a.6.6 0 0 0-.14.23l-2.5 6.87a.65.65 0 0 0 .13.65c.12.12.29.19.46.19l.18-.03 6.22-1.9a.8.8 0 0 0 .26-.16L18.92 6.27A3.61 3.61 0 0 0 20 3.67c0-.98-.38-1.9-1.08-2.59zM6.31 16.98l-2.33.71a2.9 2.9 0 0 0-.63-1.04 4.1 4.1 0 0 0-.85-.6l1.06-2.92H5v1.25c0 .34.28.62.63.62h1.1zm9.2-9.06l-7.62 7.61.22-1.03a.65.65 0 0 0-.12-.52.65.65 0 0 0-.49-.23H6.25V12.5a.62.62 0 0 0-.62-.62h-.99l7.43-7.4.01.01a2.4 2.4 0 0 1 3.43 0 2.4 2.4 0 0 1 0 3.43zm2.53-2.53l-.58.58a3.66 3.66 0 0 0-3.43-3.43l.58-.58a2.41 2.41 0 0 1 3.43 0 2.4 2.4 0 0 1 0 3.43zm-3.22-.21c.24.25.24.64 0 .89l-6.25 6.25a.64.64 0 0 1-.89 0 .64.64 0 0 1 0-.89l6.25-6.25a.64.64 0 0 1 .89 0z"/></svg>