<svg xmlns="http://www.w3.org/2000/svg" width="20" height="21" viewBox="0 0 20 21"><path fill="#fff" d="M15.81 13.39c-.41-.43-.9-.65-1.42-.65-.52 0-1.02.22-1.45.65l-1.34 1.32-.32-.16c-.15-.08-.3-.15-.42-.23a14.6 14.6 0 0 1-3.48-3.16 8.64 8.64 0 0 1-1.14-1.8c.35-.32.67-.65.98-.96l.36-.36c.88-.89.88-2.04 0-2.92L6.42 3.96a14.9 14.9 0 0 1-.39-.4c-.26-.26-.52-.53-.8-.78-.41-.41-.9-.62-1.41-.62-.52 0-1.02.21-1.44.62l-.01.01L.93 4.23A3.1 3.1 0 0 0 .02 6.2a7.4 7.4 0 0 0 .54 3.13 18.19 18.19 0 0 0 3.23 5.38 19.71 19.71 0 0 0 6.63 5.18c.97.46 2.27 1.01 3.72 1.1l.26.01c.98 0 1.8-.35 2.44-1.05l.02-.02c.22-.26.47-.5.74-.76l.55-.55c.42-.43.64-.94.64-1.46s-.23-1.02-.65-1.44zm1.52 4.44c-.01 0-.01.01 0 0l-.52.52c-.27.26-.55.54-.81.84-.43.46-.93.67-1.59.67h-.2a9.1 9.1 0 0 1-3.29-.99c-2.4-1.15-4.5-2.8-6.24-4.88a16.98 16.98 0 0 1-3.05-5.06 6.1 6.1 0 0 1-.47-2.64c.04-.49.23-.9.58-1.25L3.18 3.6c.21-.2.43-.3.65-.3a.9.9 0 0 1 .61.29l.02.01.76.76.4.41 1.15 1.15c.45.45.45.86 0 1.31l-.36.36c-.36.37-.69.7-1.06 1.03l-.02.02c-.37.37-.3.72-.22.96l.01.04c.3.73.72 1.41 1.37 2.23a15.86 15.86 0 0 0 3.75 3.41c.18.11.35.2.52.28a3.97 3.97 0 0 1 .47.26c.15.07.28.1.42.1.35 0 .57-.22.64-.29l1.45-1.44c.14-.15.37-.32.64-.32.26 0 .48.17.61.31v.01l2.33 2.32c.44.43.44.88.01 1.32zM10.81 5.76a5.36 5.36 0 0 1 4.43 4.42c.05.28.29.47.56.47h.1a.58.58 0 0 0 .47-.66 6.53 6.53 0 0 0-5.36-5.36.58.58 0 0 0-.66.47c-.06.31.15.61.46.66zm8.72 4.71l-.1.01a.55.55 0 0 1-.56-.47 9.6 9.6 0 0 0-2.7-5.19 9.56 9.56 0 0 0-5.19-2.69.57.57 0 0 1-.47-.66.56.56 0 0 1 .65-.46c2.21.37 4.22 1.41 5.82 3.01 1.6 1.59 2.64 3.6 3.01 5.8a.55.55 0 0 1-.46.65z"/></svg>