<svg xmlns="http://www.w3.org/2000/svg" width="19.39" height="19.5" viewBox="0 0 19.39 19.5"><path fill="#f5a623" d="M18.1 18.64l-5.25-5.54a7.59 7.59 0 0 0 2.16-5.32A7.48 7.48 0 0 0 7.61.25 7.48 7.48 0 0 0 .18 7.78a7.48 7.48 0 0 0 7.41 7.54c1.8 0 3.44-.66 4.73-1.74l5.25 5.56c.07.07.16.11.26.11s.17-.03.24-.1a.36.36 0 0 0 .01-.51zM7.6 14.6C3.9 14.6.9 11.54.9 7.78.9 4.02 3.9.97 7.6.97s6.71 3.05 6.71 6.81a6.77 6.77 0 0 1-6.7 6.82z"/><path fill="none" stroke="#f5a623" stroke-miterlimit="50" stroke-width=".5" d="M18.1 18.64l-5.25-5.54a7.59 7.59 0 0 0 2.16-5.32A7.48 7.48 0 0 0 7.61.25 7.48 7.48 0 0 0 .18 7.78a7.48 7.48 0 0 0 7.41 7.54c1.8 0 3.44-.66 4.73-1.74l5.25 5.56c.07.07.16.11.26.11s.17-.03.24-.1a.36.36 0 0 0 .01-.51zM7.6 14.6C3.9 14.6.9 11.54.9 7.78.9 4.02 3.9.97 7.6.97s6.71 3.05 6.71 6.81a6.77 6.77 0 0 1-6.7 6.82z"/></svg>