<svg xmlns="http://www.w3.org/2000/svg" width="30.2" height="38.2" viewBox="0 0 30.2 38.2"><path fill="#fff" d="M6.21 23.98a4.78 4.78 0 0 1 .06-1.59L8 14.48a3.38 3.38 0 0 1 2.34-2.54c.84-.25 2.22-.5 4.13-.5h1.14c1.92 0 3.35.25 4.13.5a3.39 3.39 0 0 1 2.34 2.54l1.73 7.91c.12.51.12 1.08.06 1.59-.06.19-.06.44-.12.63-.36 1.84-2.03 3.04-3.77 2.66a22.45 22.45 0 0 0-4.91-.57c-1.56 0-3.23.19-4.97.57-.18 0-.42.06-.66.06a3.24 3.24 0 0 1-3.11-2.72c-.06-.19-.06-.38-.12-.63zm1.2-.19c0 .19.06.38.12.57.22 1.06 1.11 1.79 2.15 1.68v-1.87c0-.38.24-.64.6-.64s.6.26.6.64v1.64l1.2-.18v-2.1c0-.38.24-.63.59-.63.36 0 .6.25.6.63v1.97l1.2-.06V22.9c0-.38.24-.63.6-.63s.6.25.6.63v2.54l1.2.06v-1.97c0-.38.24-.63.6-.63.35 0 .59.25.59.63v2.1l1.2.18v-1.64c0-.38.24-.64.6-.64s.6.26.6.64v1.87c1.01.13 1.99-.61 2.21-1.68.06-.19.06-.38.12-.57.06-.38.06-.7-.06-1.08L21 14.79a2.1 2.1 0 0 0-1.44-1.58c-.84-.19-2.09-.44-3.89-.44h-1.2c-1.8 0-3.11.25-3.83.44a2.1 2.1 0 0 0-1.44 1.58l-1.73 7.92c-.06.38-.12.76-.06 1.08zm15.44 14.3v.01H7.29v-.01C.5 37.76.1 31.89.1 31.83c0-1.14.36-2.03 1.02-2.72a4.2 4.2 0 0 1 2.42-1.1c-.37-.97-.66-2.13-.87-3.46a7.79 7.79 0 0 1 .12-3.04l2.1-9.5c.68-2.32 3.09-3.4 5.39-3.9V6.43H8.6c-.66 0-1.19-.31-1.55-.88a2.35 2.35 0 0 1-.24-1.9l.78-2.28A1.95 1.95 0 0 1 9.38.1H20.7c.78 0 1.5.51 1.8 1.33l.77 2.28c.24.63.12 1.33-.24 1.9-.24.51-.83.82-1.49.82h-1.68v1.69c2.28.49 4.65 1.56 5.33 3.82l2.16 9.57c.24 1.01.24 2.02.12 3.04-.2 1.3-.49 2.43-.85 3.4.69.09 1.72.35 2.46 1.09a3.65 3.65 0 0 1 1.02 2.66c-.06.19-.46 6.06-7.25 6.39zM8.6 5.17h12.94c.24 0 .48-.13.6-.32a.72.72 0 0 0 .06-.7l-.78-2.28c-.12-.31-.36-.5-.66-.5H9.38c-.3 0-.6.19-.66.5l-.78 2.28c-.06.26-.06.51.06.7.12.19.36.32.6.32zm2.88 1.26V7.9c1.87-.27 3.44-.2 3.59-.2.13 0 1.71-.07 3.59.2V6.43zM3.87 24.36c.36 2.27 1.31 5.99 3.93 6.14h.03c.48-.2 2.49-.88 5.12-1.15l.2-.02c.62-.06 1.26-.1 1.92-.1H15.28c3.5.03 6.46 1.01 7.14 1.26 1.12-.06 2.03-.82 2.77-2.27l.3-.57.04.02c.45-1.11.71-2.35.86-3.31.12-.83.12-1.71-.12-2.54l-2.22-9.56c-.9-3.04-6.76-3.42-8.98-3.29h-.6c-2.57 0-7.54.57-8.38 3.35l-2.1 9.5a7.25 7.25 0 0 0-.12 2.54zm3.42 12.47v-5.06a3.87 3.87 0 0 1-.99-.34 4.89 4.89 0 0 1-2.19-2.2c-.42 0-1.5.07-2.21.76-.42.45-.6 1.02-.6 1.78 0 .19.36 4.75 5.99 5.06zm1.19 0h13.18v-5.24a22.5 22.5 0 0 0-6.47-1.09H15.05c-2.99 0-5.61.76-6.57 1.08zm20.36-5.13c0-.69-.18-1.26-.6-1.71-.71-.69-1.79-.76-2.21-.76-.81 1.45-1.87 2.3-3.18 2.49v5.05c5.69-.32 5.99-4.88 5.99-5.07z"/><path fill="none" stroke="#fff" stroke-miterlimit="50" stroke-width=".2" d="M6.21 23.98a4.78 4.78 0 0 1 .06-1.59L8 14.48a3.38 3.38 0 0 1 2.34-2.54c.84-.25 2.22-.5 4.13-.5h1.14c1.92 0 3.35.25 4.13.5a3.39 3.39 0 0 1 2.34 2.54l1.73 7.91c.12.51.12 1.08.06 1.59-.06.19-.06.44-.12.63-.36 1.84-2.03 3.04-3.77 2.66a22.45 22.45 0 0 0-4.91-.57c-1.56 0-3.23.19-4.97.57-.18 0-.42.06-.66.06a3.24 3.24 0 0 1-3.11-2.72c-.06-.19-.06-.38-.12-.63zm1.2-.19c0 .19.06.38.12.57.22 1.06 1.11 1.79 2.15 1.68v-1.87c0-.38.24-.64.6-.64s.6.26.6.64v1.64l1.2-.18v-2.1c0-.38.24-.63.59-.63.36 0 .6.25.6.63v1.97l1.2-.06V22.9c0-.38.24-.63.6-.63s.6.25.6.63v2.54l1.2.06v-1.97c0-.38.24-.63.6-.63.35 0 .59.25.59.63v2.1l1.2.18v-1.64c0-.38.24-.64.6-.64s.6.26.6.64v1.87c1.01.13 1.99-.61 2.21-1.68.06-.19.06-.38.12-.57.06-.38.06-.7-.06-1.08L21 14.79a2.1 2.1 0 0 0-1.44-1.58c-.84-.19-2.09-.44-3.89-.44h-1.2c-1.8 0-3.11.25-3.83.44a2.1 2.1 0 0 0-1.44 1.58l-1.73 7.92c-.06.38-.12.76-.06 1.08zm15.44 14.3v.01H7.29v-.01C.5 37.76.1 31.89.1 31.83c0-1.14.36-2.03 1.02-2.72a4.2 4.2 0 0 1 2.42-1.1c-.37-.97-.66-2.13-.87-3.46a7.79 7.79 0 0 1 .12-3.04l2.1-9.5c.68-2.32 3.09-3.4 5.39-3.9V6.43H8.6c-.66 0-1.19-.31-1.55-.88a2.35 2.35 0 0 1-.24-1.9l.78-2.28A1.95 1.95 0 0 1 9.38.1H20.7c.78 0 1.5.51 1.8 1.33l.77 2.28c.24.63.12 1.33-.24 1.9-.24.51-.83.82-1.49.82h-1.68v1.69c2.28.49 4.65 1.56 5.33 3.82l2.16 9.57c.24 1.01.24 2.02.12 3.04-.2 1.3-.49 2.43-.85 3.4.69.09 1.72.35 2.46 1.09a3.65 3.65 0 0 1 1.02 2.66c-.06.19-.46 6.06-7.25 6.39zM8.6 5.17h12.94c.24 0 .48-.13.6-.32a.72.72 0 0 0 .06-.7l-.78-2.28c-.12-.31-.36-.5-.66-.5H9.38c-.3 0-.6.19-.66.5l-.78 2.28c-.06.26-.06.51.06.7.12.19.36.32.6.32zm2.88 1.26V7.9c1.87-.27 3.44-.2 3.59-.2.13 0 1.71-.07 3.59.2V6.43zM3.87 24.36c.36 2.27 1.31 5.99 3.93 6.14h.03c.48-.2 2.49-.88 5.12-1.15l.2-.02c.62-.06 1.26-.1 1.92-.1H15.28c3.5.03 6.46 1.01 7.14 1.26 1.12-.06 2.03-.82 2.77-2.27l.3-.57.04.02c.45-1.11.71-2.35.86-3.31.12-.83.12-1.71-.12-2.54l-2.22-9.56c-.9-3.04-6.76-3.42-8.98-3.29h-.6c-2.57 0-7.54.57-8.38 3.35l-2.1 9.5a7.25 7.25 0 0 0-.12 2.54zm3.42 12.47v-5.06a3.87 3.87 0 0 1-.99-.34 4.89 4.89 0 0 1-2.19-2.2c-.42 0-1.5.07-2.21.76-.42.45-.6 1.02-.6 1.78 0 .19.36 4.75 5.99 5.06zm1.19 0h13.18v-5.24a22.5 22.5 0 0 0-6.47-1.09H15.05c-2.99 0-5.61.76-6.57 1.08zm20.36-5.13c0-.69-.18-1.26-.6-1.71-.71-.69-1.79-.76-2.21-.76-.81 1.45-1.87 2.3-3.18 2.49v5.05c5.69-.32 5.99-4.88 5.99-5.07z"/></svg>