<svg xmlns="http://www.w3.org/2000/svg" width="23.28" height="24.29" viewBox="0 0 23.28 24.29"><path fill="#aaa" d="M1.4 1.6c.04.12.22.18.37.15l2.12-.53c.14-.03.22-.18.18-.3.29-.06.51-.09.66 0 .18.1.21.24.25.27l7.59 19.54c-.4.17-.73.44-.95.77a1.5 1.5 0 0 0-.14 1.36 2 2 0 0 0 1.09 1.07c.33.15.66.21 1.02.21.22 0 .44-.03.7-.09 1.05-.27 1.67-1.13 1.53-1.99l2.08-.53 2.59-.69 1.17-.29c1.24-.33 1.82-1.73 1.27-3.09L18.77 6.77c-.54-1.4-2-2.26-3.24-1.93L7.9 6.8 5.64.98c0-.03-.15-.42-.59-.62A1.89 1.89 0 0 0 3.81.3C3.78.18 3.59.12 3.45.15L1.33.68c-.14.03-.22.18-.18.3zm13.51 21.3c-.19.3-.51.5-.88.6-.36.08-.77.05-1.13-.1a1.28 1.28 0 0 1-.73-.7c-.26-.67.18-1.35.98-1.53.15-.03.3-.06.44-.06.62 0 1.24.33 1.43.86.11.3.07.63-.11.92zm.84-17.47c.83-.2 1.89.48 2.33 1.55l4.16 10.66c.4 1.07.04 2.14-.8 2.34l-1.17.3-5.69-14.55zm-1.87.48l5.7 14.55-1.21.32-5.69-14.55zm-1.89.5l5.69 14.55-2.08.54c-.22-.33-.55-.6-.95-.77-.4-.18-.88-.24-1.35-.18L8.16 7.4z"/><path fill="none" stroke="#aaa" stroke-miterlimit="50" stroke-width=".3" d="M1.4 1.6c.04.12.22.18.37.15l2.12-.53c.14-.03.22-.18.18-.3.29-.06.51-.09.66 0 .18.1.21.24.25.27l7.59 19.54c-.4.17-.73.44-.95.77a1.5 1.5 0 0 0-.14 1.36 2 2 0 0 0 1.09 1.07c.33.15.66.21 1.02.21.22 0 .44-.03.7-.09 1.05-.27 1.67-1.13 1.53-1.99l2.08-.53 2.59-.69 1.17-.29c1.24-.33 1.82-1.73 1.27-3.09L18.77 6.77c-.54-1.4-2-2.26-3.24-1.93L7.9 6.8 5.64.98c0-.03-.15-.42-.59-.62A1.89 1.89 0 0 0 3.81.3C3.78.18 3.59.12 3.45.15L1.33.68c-.14.03-.22.18-.18.3zm13.51 21.3c-.19.3-.51.5-.88.6-.36.08-.77.05-1.13-.1a1.28 1.28 0 0 1-.73-.7c-.26-.67.18-1.35.98-1.53.15-.03.3-.06.44-.06.62 0 1.24.33 1.43.86.11.3.07.63-.11.92zm.84-17.47c.83-.2 1.89.48 2.33 1.55l4.16 10.66c.4 1.07.04 2.14-.8 2.34l-1.17.3-5.69-14.55zm-1.87.48l5.7 14.55-1.21.32-5.69-14.55zm-1.89.5l5.69 14.55-2.08.54c-.22-.33-.55-.6-.95-.77-.4-.18-.88-.24-1.35-.18L8.16 7.4z"/></svg>