<svg xmlns="http://www.w3.org/2000/svg" width="32.3" height="39.3" viewBox="0 0 32.3 39.3"><path fill="#fff" d="M1.51 3.47c.05.18.3.28.5.23l2.88-.85c.2-.04.3-.28.25-.47.4-.09.7-.14.9 0 .25.15.3.38.35.43l10.35 30.93c-.55.29-1 .71-1.3 1.23a2.8 2.8 0 0 0-.2 2.16 3.03 3.03 0 0 0 2.89 2.02c.3 0 .6-.05.95-.14a2.88 2.88 0 0 0 2.09-3.15l2.83-.85 3.54-1.08 1.59-.47c1.69-.52 2.49-2.73 1.74-4.89L25.2 11.65c-.75-2.21-2.74-3.58-4.43-3.06l-10.4 3.1-3.09-9.21c0-.05-.2-.66-.79-.99A2.3 2.3 0 0 0 4.8 1.4c-.05-.19-.3-.29-.5-.24l-2.89.85c-.2.05-.3.28-.25.47zm18.41 33.71c-.25.47-.69.79-1.19.94-.5.14-1.05.09-1.54-.15-.5-.23-.85-.65-1-1.12a1.85 1.85 0 0 1 1.34-2.4c.2-.05.4-.1.6-.1a2 2 0 0 1 1.94 1.37c.15.47.1.99-.15 1.46zm1.15-27.65c1.14-.33 2.58.75 3.18 2.45l5.67 16.87c.55 1.7.05 3.39-1.09 3.72l-1.59.47L19.47 10zm-2.54.75l7.76 23.04-1.64.52-7.76-23.04zm-2.59.8l7.76 23.04-2.83.85a3.09 3.09 0 0 0-3.14-1.51l-7.01-20.83z"/><path fill="none" stroke="#fff" stroke-miterlimit="50" stroke-width=".3" d="M1.51 3.47c.05.18.3.28.5.23l2.88-.85c.2-.04.3-.28.25-.47.4-.09.7-.14.9 0 .25.15.3.38.35.43l10.35 30.93c-.55.29-1 .71-1.3 1.23a2.8 2.8 0 0 0-.2 2.16 3.03 3.03 0 0 0 2.89 2.02c.3 0 .6-.05.95-.14a2.88 2.88 0 0 0 2.09-3.15l2.83-.85 3.54-1.08 1.59-.47c1.69-.52 2.49-2.73 1.74-4.89L25.2 11.65c-.75-2.21-2.74-3.58-4.43-3.06l-10.4 3.1-3.09-9.21c0-.05-.2-.66-.79-.99A2.3 2.3 0 0 0 4.8 1.4c-.05-.19-.3-.29-.5-.24l-2.89.85c-.2.05-.3.28-.25.47zm18.41 33.71c-.25.47-.69.79-1.19.94-.5.14-1.05.09-1.54-.15-.5-.23-.85-.65-1-1.12a1.85 1.85 0 0 1 1.34-2.4c.2-.05.4-.1.6-.1a2 2 0 0 1 1.94 1.37c.15.47.1.99-.15 1.46zm1.15-27.65c1.14-.33 2.58.75 3.18 2.45l5.67 16.87c.55 1.7.05 3.39-1.09 3.72l-1.59.47L19.47 10zm-2.54.75l7.76 23.04-1.64.52-7.76-23.04zm-2.59.8l7.76 23.04-2.83.85a3.09 3.09 0 0 0-3.14-1.51l-7.01-20.83z"/></svg>