<svg xmlns="http://www.w3.org/2000/svg" width="22" height="17" viewBox="0 0 22 17"><path fill="#f5f5f5" d="M21.58 15.97H.38c-.21 0-.38-.18-.38-.42V.42C0 .19.17 0 .38 0h21.2c.21 0 .38.19.38.42v15.13c0 .24-.17.42-.38.42z"/><path fill="#ff4b55" d="M21.96 1.23H0V.42C0 .19.17 0 .38 0h21.2c.21 0 .38.19.38.42zM0 6V5h22v1zM0 3V2h22v1zM21.96 8.23H.38c-.21 0-.38-.19-.38-.42V7h21.96zM0 13v-1h22v1zM21.58 16.23H.38c-.21 0-.38-.19-.38-.42V15h21.96v.81c0 .23-.17.42-.38.42zM0 11v-1h22v1z"/><path fill="#41479b" d="M9.84 0H.38C.17 0 0 .19 0 .42v7.76c0 .23.17.42.38.42h9.46c.21 0 .38-.19.38-.42V.42c0-.23-.17-.42-.38-.42z"/><path fill="#f5f5f5" d="M1.45 1.03l.09.28h.26c.03 0 .05.05.02.07l-.21.17.08.29c.01.03-.03.06-.06.04l-.21-.17-.22.17c-.03.02-.06-.01-.05-.04l.08-.29-.22-.17c-.02-.02-.01-.07.03-.07h.26l.08-.28c.01-.04.06-.04.07 0zM1.45 2.03l.09.28h.26c.03 0 .05.05.02.07l-.21.17.08.29c.01.03-.03.06-.06.04l-.21-.17-.22.17c-.03.02-.06-.01-.05-.04l.08-.29-.22-.17c-.02-.02-.01-.07.03-.07h.26l.08-.28c.01-.04.06-.04.07 0zM1.45 4.03l.09.28h.26c.03 0 .05.05.02.07l-.21.17.08.29c.01.03-.03.06-.06.04l-.21-.17-.22.17c-.03.02-.06-.01-.05-.04l.08-.29-.22-.17c-.02-.02-.01-.07.03-.07h.26l.08-.28c.01-.04.06-.04.07 0zM1.45 5.03l.09.28h.26c.03 0 .05.05.02.07l-.21.17.08.29c.01.03-.03.06-.06.04l-.21-.17-.22.17c-.03.02-.06-.01-.05-.04l.08-.29-.22-.17c-.02-.02-.01-.07.03-.07h.26l.08-.28c.01-.04.06-.04.07 0zM1.45 7.03l.09.28h.26c.03 0 .05.05.02.07l-.21.17.08.29c.01.03-.03.06-.06.04l-.21-.17-.22.17c-.03.02-.06-.01-.05-.04l.08-.29-.22-.17c-.02-.02-.01-.07.03-.07h.26l.08-.28c.01-.04.06-.04.07 0zM2.45 2.03l.09.28h.26c.03 0 .05.05.02.07l-.21.17.08.29c.01.03-.03.06-.06.04l-.21-.17-.22.17c-.03.02-.06-.01-.05-.04l.08-.29-.22-.17c-.02-.02-.01-.07.03-.07h.26l.08-.28c.01-.04.06-.04.07 0zM2.45 3.03l.09.28h.26c.03 0 .05.05.02.07l-.21.17.08.29c.01.03-.03.06-.06.04l-.21-.17-.22.17c-.03.02-.06-.01-.05-.04l.08-.29-.22-.17c-.02-.02-.01-.07.03-.07h.26l.08-.28c.01-.04.06-.04.07 0zM2.45 5.03l.09.28h.26c.03 0 .05.05.02.07l-.21.17.08.29c.01.03-.03.06-.06.04l-.21-.17-.22.17c-.03.02-.06-.01-.05-.04l.08-.29-.22-.17c-.02-.02-.01-.07.03-.07h.26l.08-.28c.01-.04.06-.04.07 0zM2.45 6.03l.09.28h.26c.03 0 .05.05.02.07l-.21.17.08.29c.01.03-.03.06-.06.04l-.21-.17-.22.17c-.03.02-.06-.01-.05-.04l.08-.29-.22-.17c-.02-.02-.01-.07.03-.07h.26l.08-.28c.01-.04.06-.04.07 0zM3.45 1.03l.09.28h.26c.03 0 .05.05.02.07l-.21.17.08.29c.01.03-.03.06-.06.04l-.21-.17-.22.17c-.03.02-.06-.01-.05-.04l.08-.29-.22-.17c-.02-.02-.01-.07.03-.07h.26l.08-.28c.01-.04.06-.04.07 0zM3.45 2.03l.09.28h.26c.03 0 .05.05.02.07l-.21.17.08.29c.01.03-.03.06-.06.04l-.21-.17-.22.17c-.03.02-.06-.01-.05-.04l.08-.29-.22-.17c-.02-.02-.01-.07.03-.07h.26l.08-.28c.01-.04.06-.04.07 0zM3.45 4.03l.09.28h.26c.03 0 .05.05.02.07l-.21.17.08.29c.01.03-.03.06-.06.04l-.21-.17-.22.17c-.03.02-.06-.01-.05-.04l.08-.29-.22-.17c-.02-.02-.01-.07.03-.07h.26l.08-.28c.01-.04.06-.04.07 0zM3.45 5.03l.09.28h.26c.03 0 .05.05.02.07l-.21.17.08.29c.01.03-.03.06-.06.04l-.21-.17-.22.17c-.03.02-.06-.01-.05-.04l.08-.29-.22-.17c-.02-.02-.01-.07.03-.07h.26l.08-.28c.01-.04.06-.04.07 0zM3.45 7.03l.09.28h.26c.03 0 .05.05.02.07l-.21.17.08.29c.01.03-.03.06-.06.04l-.21-.17-.22.17c-.03.02-.06-.01-.05-.04l.08-.29-.22-.17c-.02-.02-.01-.07.03-.07h.26l.08-.28c.01-.04.06-.04.07 0zM4.45 2.03l.09.28h.26c.03 0 .05.05.02.07l-.21.17.08.29c.01.03-.03.06-.06.04l-.21-.17-.22.17c-.03.02-.06-.01-.05-.04l.08-.29-.22-.17c-.02-.02-.01-.07.03-.07h.26l.08-.28c.01-.04.06-.04.07 0zM4.45 3.03l.09.28h.26c.03 0 .05.05.02.07l-.21.17.08.29c.01.03-.03.06-.06.04l-.21-.17-.22.17c-.03.02-.06-.01-.05-.04l.08-.29-.22-.17c-.02-.02-.01-.07.03-.07h.26l.08-.28c.01-.04.06-.04.07 0zM4.45 5.03l.09.28h.26c.03 0 .05.05.02.07l-.21.17.08.29c.01.03-.03.06-.06.04l-.21-.17-.22.17c-.03.02-.06-.01-.05-.04l.08-.29-.22-.17c-.02-.02-.01-.07.03-.07h.26l.08-.28c.01-.04.06-.04.07 0zM4.45 6.03l.09.28h.26c.03 0 .05.05.02.07l-.21.17.08.29c.01.03-.03.06-.06.04l-.21-.17-.22.17c-.03.02-.06-.01-.05-.04l.08-.29-.22-.17c-.02-.02-.01-.07.03-.07h.26l.08-.28c.01-.04.06-.04.07 0zM5.45 1.03l.09.28h.26c.03 0 .05.05.02.07l-.21.17.08.29c.01.03-.03.06-.06.04l-.21-.17-.22.17c-.03.02-.06-.01-.05-.04l.08-.29-.22-.17c-.02-.02-.01-.07.03-.07h.26l.08-.28c.02-.04.06-.04.07 0zM5.45 2.03l.09.28h.26c.03 0 .05.05.02.07l-.21.17.08.29c.01.03-.03.06-.06.04l-.21-.17-.22.17c-.03.02-.06-.01-.05-.04l.08-.29-.22-.17c-.02-.02-.01-.07.03-.07h.26l.08-.28c.02-.04.06-.04.07 0zM5.45 4.03l.09.28h.26c.03 0 .05.05.02.07l-.21.17.08.29c.01.03-.03.06-.06.04l-.21-.17-.22.17c-.03.02-.06-.01-.05-.04l.08-.29-.22-.17c-.02-.02-.01-.07.03-.07h.26l.08-.28c.02-.04.06-.04.07 0zM5.45 5.03l.09.28h.26c.03 0 .05.05.02.07l-.21.17.08.29c.01.03-.03.06-.06.04l-.21-.17-.22.17c-.03.02-.06-.01-.05-.04l.08-.29-.22-.17c-.02-.02-.01-.07.03-.07h.26l.08-.28c.02-.04.06-.04.07 0zM5.45 7.03l.09.28h.26c.03 0 .05.05.02.07l-.21.17.08.29c.01.03-.03.06-.06.04l-.21-.17-.22.17c-.03.02-.06-.01-.05-.04l.08-.29-.22-.17c-.02-.02-.01-.07.03-.07h.26l.08-.28c.02-.04.06-.04.07 0zM6.45 2.03l.09.28h.26c.03 0 .05.05.02.07l-.21.17.08.29c.01.03-.03.06-.06.04l-.21-.17-.22.17c-.03.02-.06-.01-.05-.04l.08-.29-.22-.17c-.02-.02-.01-.07.03-.07h.26l.08-.28c.02-.04.06-.04.07 0zM6.45 3.03l.09.28h.26c.03 0 .05.05.02.07l-.21.17.08.29c.01.03-.03.06-.06.04l-.21-.17-.22.17c-.03.02-.06-.01-.05-.04l.08-.29-.22-.17c-.02-.02-.01-.07.03-.07h.26l.08-.28c.02-.04.06-.04.07 0zM6.45 5.03l.09.28h.26c.03 0 .05.05.02.07l-.21.17.08.29c.01.03-.03.06-.06.04l-.21-.17-.22.17c-.03.02-.06-.01-.05-.04l.08-.29-.22-.17c-.02-.02-.01-.07.03-.07h.26l.08-.28c.02-.04.06-.04.07 0zM6.45 6.03l.09.28h.26c.03 0 .05.05.02.07l-.21.17.08.29c.01.03-.03.06-.06.04l-.21-.17-.22.17c-.03.02-.06-.01-.05-.04l.08-.29-.22-.17c-.02-.02-.01-.07.03-.07h.26l.08-.28c.02-.04.06-.04.07 0zM7.45 1.03l.09.28h.26c.03 0 .05.05.02.07l-.21.17.08.29c.01.03-.03.06-.06.04l-.21-.17-.22.17c-.03.02-.06-.01-.05-.04l.08-.29-.22-.17c-.02-.02-.01-.07.03-.07h.26l.08-.28c.01-.04.06-.04.07 0zM7.45 2.03l.09.28h.26c.03 0 .05.05.02.07l-.21.17.08.29c.01.03-.03.06-.06.04l-.21-.17-.22.17c-.03.02-.06-.01-.05-.04l.08-.29-.22-.17c-.02-.02-.01-.07.03-.07h.26l.08-.28c.01-.04.06-.04.07 0zM7.45 4.03l.09.28h.26c.03 0 .05.05.02.07l-.21.17.08.29c.01.03-.03.06-.06.04l-.21-.17-.22.17c-.03.02-.06-.01-.05-.04l.08-.29-.22-.17c-.02-.02-.01-.07.03-.07h.26l.08-.28c.01-.04.06-.04.07 0zM7.45 5.03l.09.28h.26c.03 0 .05.05.02.07l-.21.17.08.29c.01.03-.03.06-.06.04l-.21-.17-.22.17c-.03.02-.06-.01-.05-.04l.08-.29-.22-.17c-.02-.02-.01-.07.03-.07h.26l.08-.28c.01-.04.06-.04.07 0zM7.45 7.03l.09.28h.26c.03 0 .05.05.02.07l-.21.17.08.29c.01.03-.03.06-.06.04l-.21-.17-.22.17c-.03.02-.06-.01-.05-.04l.08-.29-.22-.17c-.02-.02-.01-.07.03-.07h.26l.08-.28c.01-.04.06-.04.07 0zM8.45 2.03l.09.28h.26c.03 0 .05.05.02.07l-.21.17.08.29c.01.03-.03.06-.06.04l-.21-.17-.22.17c-.03.02-.06-.01-.05-.04l.08-.29-.22-.17c-.02-.02-.01-.07.03-.07h.26l.08-.28c.01-.04.06-.04.07 0zM8.45 3.03l.09.28h.26c.03 0 .05.05.02.07l-.21.17.08.29c.01.03-.03.06-.06.04l-.21-.17-.22.17c-.03.02-.06-.01-.05-.04l.08-.29-.22-.17c-.02-.02-.01-.07.03-.07h.26l.08-.28c.01-.04.06-.04.07 0zM8.45 5.03l.09.28h.26c.03 0 .05.05.02.07l-.21.17.08.29c.01.03-.03.06-.06.04l-.21-.17-.22.17c-.03.02-.06-.01-.05-.04l.08-.29-.22-.17c-.02-.02-.01-.07.03-.07h.26l.08-.28c.01-.04.06-.04.07 0zM8.45 6.03l.09.28h.26c.03 0 .05.05.02.07l-.21.17.08.29c.01.03-.03.06-.06.04l-.21-.17-.22.17c-.03.02-.06-.01-.05-.04l.08-.29-.22-.17c-.02-.02-.01-.07.03-.07h.26l.08-.28c.01-.04.06-.04.07 0zM9.45 1.03l.09.28h.26c.03 0 .05.05.02.07l-.21.17.08.29c.01.03-.03.06-.06.04l-.21-.17-.22.17c-.03.02-.06-.01-.05-.04l.08-.29-.22-.17c-.02-.02-.01-.07.03-.07h.26l.08-.28c.01-.04.06-.04.07 0zM9.45 2.03l.09.28h.26c.03 0 .05.05.02.07l-.21.17.08.29c.01.03-.03.06-.06.04l-.21-.17-.22.17c-.03.02-.06-.01-.05-.04l.08-.29-.22-.17c-.02-.02-.01-.07.03-.07h.26l.08-.28c.01-.04.06-.04.07 0zM9.45 4.03l.09.28h.26c.03 0 .05.05.02.07l-.21.17.08.29c.01.03-.03.06-.06.04l-.21-.17-.22.17c-.03.02-.06-.01-.05-.04l.08-.29-.22-.17c-.02-.02-.01-.07.03-.07h.26l.08-.28c.01-.04.06-.04.07 0zM9.45 5.03l.09.28h.26c.03 0 .05.05.02.07l-.21.17.08.29c.01.03-.03.06-.06.04l-.21-.17-.22.17c-.03.02-.06-.01-.05-.04l.08-.29-.22-.17c-.02-.02-.01-.07.03-.07h.26l.08-.28c.01-.04.06-.04.07 0zM9.45 7.03l.09.28h.26c.03 0 .05.05.02.07l-.21.17.08.29c.01.03-.03.06-.06.04l-.21-.17-.22.17c-.03.02-.06-.01-.05-.04l.08-.29-.22-.17c-.02-.02-.01-.07.03-.07h.26l.08-.28c.01-.04.06-.04.07 0z"/></svg>