<svg xmlns="http://www.w3.org/2000/svg" width="34" height="34" viewBox="0 0 34 34"><path fill="#fff" d="M29.02 4.98A16.9 16.9 0 0 0 17 0 16.9 16.9 0 0 0 4.98 4.98 16.9 16.9 0 0 0 0 17a16.9 16.9 0 0 0 4.98 12.02A16.9 16.9 0 0 0 17 34a16.9 16.9 0 0 0 12.02-4.98A16.9 16.9 0 0 0 34 17a16.9 16.9 0 0 0-4.98-12.02zM17 32.64a15.65 15.65 0 0 1 0-31.28 15.65 15.65 0 0 1 0 31.28zm0-29.77A14.15 14.15 0 0 0 2.87 17c0 7.79 6.34 14.13 14.13 14.13 7.79 0 14.13-6.34 14.13-14.13 0-7.79-6.34-14.13-14.13-14.13zm1.68 24.21h-3.36a14.15 14.15 0 0 0-8.66-9.2l1.16-4.94a38.75 38.75 0 0 1 18.36 0l1.16 4.94a14.15 14.15 0 0 0-8.66 9.2zM4.23 17c0-1.08.14-2.13.39-3.13.57-.19 1.14-.37 1.72-.54l-.98 4.14c-.37-.1-.74-.18-1.13-.25V17zm24.41.47l-.98-4.14c.58.17 1.15.35 1.72.54.25 1 .39 2.05.39 3.13v.22c-.39.07-.76.15-1.13.25zM17 4.23a12.8 12.8 0 0 1 11.86 8.04 40.16 40.16 0 0 0-23.72 0A12.8 12.8 0 0 1 17 4.23zM4.33 18.62a12.79 12.79 0 0 1 10.12 10.89A12.81 12.81 0 0 1 4.33 18.62zm11.51 11.1c-.05-.43-.11-.86-.19-1.28h2.7c-.08.42-.15.85-.19 1.28a14.79 14.79 0 0 1-2.32 0zm3.71-.21a12.77 12.77 0 0 1 10.12-10.89 12.81 12.81 0 0 1-10.12 10.89zM17 13.14a3.86 3.86 0 1 0 0 7.72 3.86 3.86 0 0 0 0-7.72zm0 6.36a2.5 2.5 0 1 1 0-5 2.5 2.5 0 0 1 0 5z"/></svg>